<?xml version="1.0" encoding="UTF-8"?>
<svg id="Layer_2" data-name="Layer 2" xmlns="http://www.w3.org/2000/svg" viewBox="0 0 45 45">
  <defs>
    <style>
      .cls-1 {
        fill: #733b80;
      }

      .cls-2 {
        fill: #f2bfff;
      }
    </style>
  </defs>
  <rect class="cls-2" width="45" height="45"/>
  <rect class="cls-1" x="2.64" y="2.64" width="39.73" height="39.73"/>
  <path class="cls-2" d="M15.2,15.96h2.57l5.7,14.98h-3l-1.39-3.73h-5.23l-1.37,3.73h-3l5.72-14.98ZM18.55,25.16l-2.07-5.88-2.15,5.88h4.22ZM29.67,31.15c-3.53,0-5.82-2.62-5.82-5.67,0-2.74,1.91-5.78,5.84-5.78,2.81,0,5.76,1.86,5.76,5.67l-.06.95h-8.54c.04.43.51,2.76,2.93,2.76,1.57,0,2.43-1.05,2.62-1.5l2.43.67c-.41.84-1.79,2.89-5.15,2.89M32.53,24.48c-.17-1.76-1.44-2.74-2.89-2.74s-2.72,1.12-2.85,2.74h5.74Z"/>
</svg>