<?xml version="1.0" encoding="UTF-8"?>
<svg id="Layer_2" data-name="Layer 2" xmlns="http://www.w3.org/2000/svg" viewBox="0 0 45 45">
  <defs>
    <style>
      .cls-1 {
        fill: #364f73;
      }

      .cls-2 {
        fill: #99ffeb;
      }
    </style>
  </defs>
  <rect class="cls-2" width="45" height="45"/>
  <rect class="cls-1" x="2.64" y="2.64" width="39.73" height="39.73"/>
  <path class="cls-2" d="M14.98,15.96h2.57l5.7,14.98h-3l-1.39-3.73h-5.23l-1.37,3.73h-3l5.72-14.98ZM18.33,25.16l-2.07-5.88-2.15,5.88h4.22ZM27.74,31.15c2.62,0,3.96-1.52,4.45-2.28l.06.89c.06.41.41,1.31,1.79,1.31l.52-.02c.19-.02.42-.05.71-.11v-2.4c-.65-.03-.67-.55-.67-.84v-7.81h-2.83v6.86c-.32.67-1.21,2-2.85,2-1.22,0-1.83-.85-1.83-2.55v-6.31h-2.83v6.92c0,2.86,1.23,4.34,3.48,4.34"/>
</svg>