<?xml version="1.0" encoding="UTF-8"?>
<svg id="Layer_2" data-name="Layer 2" xmlns="http://www.w3.org/2000/svg" viewBox="0 0 45 45">
  <defs>
    <style>
      .cls-1 {
        fill: #801c33;
      }

      .cls-2 {
        fill: #ff5e96;
      }

      .cls-3 {
        fill: #ff458c;
      }
    </style>
  </defs>
  <rect class="cls-2" width="45" height="45"/>
  <rect class="cls-1" x="2.64" y="2.64" width="39.73" height="39.73"/>
  <path class="cls-3" d="M23.68,19.27l-2.39-4.14c.39-.06.8-.1,1.21-.1.73,0,1.43.11,2.09.31.58.17,1.13.4,1.64.69h0s0,0,0,0l-.3.51-1.91,3.32-.34-.59ZM29.97,22.5c0-1.8-.64-3.45-1.69-4.73l-2.73,4.73h4.43ZM18.76,16.03c-1.48.86-2.64,2.21-3.26,3.83h5.47l-2.21-3.83ZM18.77,28.97c1.1.64,2.37,1,3.73,1,.41,0,.82-.04,1.21-.1l-2.73-4.73-2.21,3.83ZM40.18,22.5l-9.29,9.29c-2.31,2.31-5.35,3.47-8.39,3.47s-6.08-1.16-8.39-3.47l-9.29-9.29,9.29-9.29c4.63-4.63,12.15-4.63,16.78,0l9.29,9.29ZM36.45,22.5l-7.43-7.43c-3.6-3.6-9.45-3.6-13.05,0l-7.43,7.43,7.43,7.43c3.6,3.6,9.45,3.6,13.05,0l7.43-7.43ZM26.23,28.97c1.48-.86,2.64-2.21,3.26-3.83h-5.47l2.21,3.83ZM15.03,22.5c0,1.8.64,3.45,1.69,4.73l2.73-4.73h-4.43Z"/>
</svg>