<?xml version="1.0" encoding="UTF-8"?>
<svg id="Layer_2" data-name="Layer 2" xmlns="http://www.w3.org/2000/svg" viewBox="0 0 45 45">
  <defs>
    <style>
      .cls-1 {
        fill: #733b80;
      }

      .cls-2 {
        fill: #f7d9ff;
      }
    </style>
  </defs>
  <rect class="cls-2" width="45" height="45"/>
  <rect class="cls-1" x="2.64" y="2.64" width="39.73" height="39.73"/>
  <path class="cls-2" d="M9.68,23.34c0-4.43,3.42-7.47,7.38-7.47,3.65,0,5.33,2.3,5.82,3.27l-2.23,1.54c-.2-.42-1.09-2.24-3.67-2.24-2.08,0-4.35,1.71-4.35,4.98,0,2.75,1.83,5.06,4.39,5.06s3.52-1.87,3.69-2.28l2.38,1.37c-.24.56-1.89,3.48-6.16,3.48s-7.26-3.72-7.26-7.72M35.06,24.04c0-3.44-1.63-4.34-3.48-4.34-2.4,0-3.56,1.52-3.97,2.23v-6.39h-2.83v15.4h2.83v-6.46c.1-.34,1.03-2.3,2.76-2.3,1.19,0,1.85.84,1.85,2.55v6.2h2.83v-6.9Z"/>
</svg>