<?xml version="1.0" encoding="UTF-8"?>
<svg id="Layer_2" data-name="Layer 2" xmlns="http://www.w3.org/2000/svg" viewBox="0 0 45 45">
  <defs>
    <style>
      .cls-1 {
        fill: #eda3ff;
      }

      .cls-2 {
        fill: #733b80;
      }

      .cls-3 {
        fill: none;
      }

      .cls-4 {
        fill: #f7d9ff;
      }
    </style>
  </defs>
  <rect class="cls-4" width="45" height="45"/>
  <rect class="cls-2" x="2.64" y="2.64" width="39.73" height="39.73"/>
  <g>
    <polygon class="cls-3" points="23.82 16.21 23.82 20.22 30.76 16.21 23.82 16.21"/>
    <polygon class="cls-3" points="23.82 9.56 23.82 13.57 30.76 13.57 23.82 9.56"/>
    <polygon class="cls-3" points="21.18 9.56 14.24 13.57 21.18 13.57 21.18 9.56"/>
    <polygon class="cls-3" points="21.18 16.21 14.24 16.21 21.18 20.22 21.18 16.21"/>
    <path class="cls-4" d="M17.67,28.84l2.64,1.52-6.59,3.81-2.64-1.52,6.59-3.81ZM12.48,26.76l-5.8,3.35,2.64,1.52,6.59-3.81-2.64-1.52-.79.46ZM35.68,28.59l-15.82,9.13,2.64,1.52,6.79-3.92,9.02-5.21-2.64-1.52ZM31.73,26.3l-9.23,5.33-.44-.25-6.59,3.8,2.64,1.52,15.82-9.13-2.2-1.27Z"/>
    <polygon class="cls-1" points="31.73 18.69 22.5 24.02 13.27 18.69 6.68 22.5 13.27 26.3 15.91 27.83 17.67 28.84 20.3 30.36 22.06 31.38 22.5 31.63 31.73 26.3 38.32 22.5 31.73 18.69"/>
    <path class="cls-4" d="M22.5,5.75L6.68,14.89l6.59,3.8,9.23,5.33,9.23-5.33,6.59-3.8-15.82-9.14ZM23.82,9.56l6.94,4.01h-6.94v-4.01ZM23.82,16.21h6.94l-6.94,4.01v-4.01ZM21.18,9.56v4.01h-6.94l6.94-4.01ZM21.18,16.21v4.01l-6.94-4.01h6.94Z"/>
  </g>
</svg>