<?xml version="1.0" encoding="UTF-8"?>
<svg id="Layer_2" data-name="Layer 2" xmlns="http://www.w3.org/2000/svg" viewBox="0 0 45 45.02">
  <defs>
    <style>
      .cls-1 {
        fill: #00b6ff;
      }

      .cls-2 {
        fill: #ff3737;
      }

      .cls-3 {
        fill: #24cb71;
      }

      .cls-4 {
        fill: #874fff;
      }

      .cls-5 {
        fill: #ff7237;
      }
    </style>
  </defs>
  <path class="cls-3" d="M7.5,37.51c0-4.14,3.36-7.5,7.5-7.5h7.5v7.5c0,4.14-3.36,7.5-7.5,7.5s-7.5-3.36-7.5-7.5Z"/>
  <path class="cls-5" d="M22.5,0v15h7.5c4.14,0,7.5-3.36,7.5-7.5S34.14,0,30,0h-7.5Z"/>
  <path class="cls-1" d="M29.94,30.01c4.14,0,7.5-3.36,7.5-7.5s-3.36-7.5-7.5-7.5-7.5,3.36-7.5,7.5,3.36,7.5,7.5,7.5Z"/>
  <path class="cls-2" d="M7.5,7.51c0,4.14,3.36,7.5,7.5,7.5h7.5V0h-7.5C10.86,0,7.5,3.37,7.5,7.51Z"/>
  <path class="cls-4" d="M7.5,22.51c0,4.14,3.36,7.5,7.5,7.5h7.5v-15h-7.5c-4.14,0-7.5,3.36-7.5,7.5Z"/>
</svg>