<?xml version="1.0" encoding="UTF-8"?>
<svg id="Layer_2" data-name="Layer 2" xmlns="http://www.w3.org/2000/svg" viewBox="0 0 45 45">
  <defs>
    <style>
      .cls-1 {
        fill: #801c33;
      }

      .cls-2 {
        fill: #ff5e96;
      }
    </style>
  </defs>
  <rect class="cls-2" width="45" height="45"/>
  <rect class="cls-1" x="2.64" y="2.64" width="39.73" height="39.73"/>
  <path class="cls-2" d="M14.44,15.96h2.91v14.98h-2.91v-14.98ZM24.65,31.15c2.21,0,3.43-1.43,3.84-2.13,0,0-.19,2.07,1.85,2.07.31,0,.71-.05,1.2-.15v-2.4c-.24-.01-.65-.55-.65-.84v-12.15h-2.83v6.29c-.37-.63-1.51-2.13-3.73-2.13-2.62,0-4.94,2.28-4.94,5.71,0,3.03,2.01,5.74,5.25,5.74M25.38,28.74c-1.87,0-3.06-1.66-3.06-3.27,0-1.47.96-3.38,2.89-3.38,1.72,0,2.73,1.84,2.85,2.15v2.64c-.1.27-.91,1.86-2.68,1.86"/>
</svg>