<?xml version="1.0" encoding="UTF-8"?>
<svg id="Layer_2" data-name="Layer 2" xmlns="http://www.w3.org/2000/svg" viewBox="0 0 45 44.92">
  <defs>
    <style>
      .cls-1 {
        fill: #fff;
      }

      .cls-2 {
        fill: #f36;
      }
    </style>
  </defs>
  <polyline class="cls-2" points="45 0 0 0 0 44.92 44.92 44.92 45 0"/>
  <path class="cls-1" d="M15.01,14.13c-1.49,0-2.74-1.17-2.74-2.71s1.25-2.7,2.74-2.7,2.74,1.17,2.74,2.7-1.25,2.71-2.74,2.71M9.32,28.62c-.16.69-.24,1.43-.24,2.03,0,2.38,1.29,3.96,4.04,3.96,2.28,0,4.12-1.35,5.45-3.53l-.81,3.25h4.52l2.58-10.36c.65-2.62,1.9-3.98,3.79-3.98,1.49,0,2.42.93,2.42,2.46,0,.44-.04.93-.2,1.45l-1.33,4.76c-.2.69-.28,1.37-.28,2.02,0,2.26,1.33,3.91,4.12,3.91,2.38,0,4.28-1.53,5.33-5.21l-1.77-.68c-.89,2.46-1.66,2.91-2.26,2.91s-.93-.4-.93-1.21c0-.37.08-.77.2-1.25l1.29-4.64c.32-1.09.44-2.05.44-2.94,0-3.47-2.1-5.28-4.64-5.28-2.38,0-4.8,2.15-6.01,4.41l.89-4.06h-6.9l-.97,3.57h3.23l-1.99,7.96c-1.56,3.47-4.43,3.53-4.79,3.45-.59-.13-.97-.36-.97-1.12,0-.44.08-1.08.28-1.85l3.03-12.01h-7.67l-.97,3.57h3.19l-2.06,8.41Z"/>
</svg>