<?xml version="1.0" encoding="UTF-8"?>
<svg id="Layer_2" data-name="Layer 2" xmlns="http://www.w3.org/2000/svg" viewBox="0 0 44.97 44.98">
  <defs>
    <style>
      .cls-1 {
        fill: #ededed;
      }

      .cls-2 {
        fill: #358aca;
      }
    </style>
  </defs>
  <circle class="cls-2" cx="22.49" cy="22.37" r="21.37"/>
  <path d="M20.83,34.36c-.96,0-1.87-.35-2.59-.99l-6.02-5.37c-1.01-.9-1.48-2.28-1.23-3.6l1.49-8.09c.25-1.38,1.23-2.52,2.56-2.97l7.71-2.73c.42-.14.84-.22,1.27-.22.95,0,1.86.34,2.57.97l6.24,5.61c1.04.92,1.51,2.35,1.22,3.72l-1.74,8.09c-.29,1.33-1.26,2.43-2.56,2.87l-7.69,2.51c-.39.13-.8.2-1.23.2"/>
  <path class="cls-1" d="M22.49,0C10.07,0,0,10.07,0,22.49s10.07,22.49,22.49,22.49,22.49-10.07,22.49-22.49S34.91,0,22.49,0M16.02,3.44c1.69-.69,9.5-2.45,16.36,1.47.47.27.75.63.77,1.29.04,1.61.12,4.9-.09,8.77-.01.26-.33.4-.56.25,0,0-6.61-6.92-16.48-11.42v-.37ZM32.64,20.39l-1.74,8.09c-.18.85-.79,1.53-1.61,1.81l-7.68,2.51c-.84.28-1.76.09-2.41-.49l-6.02-5.37c-.64-.57-.93-1.43-.78-2.27l1.49-8.09c.16-.87.78-1.58,1.61-1.87l7.72-2.74c.83-.29,1.75-.1,2.41.48l6.22,5.6c.66.59.96,1.49.77,2.35M12.09,5.21c.45-.29.87-.23,1.5-.03,0,0,3.66,1.28,7.68,4.35.21.16.18.49-.06.6,0,0-9.19,2.35-17.98,8.71l-.32-.19c.23-1.81,1.65-8.66,9.18-13.44M9.67,37.47l-.32.19c-1.45-1.11-6.55-6.1-6.92-15.01-.02-.54.31-.83.8-1.28,0,0,3.15-2.49,7.54-4.43.24-.11.51.09.5.35-.06.36-2.73,9.71-1.59,20.19M28.92,41.31c-1.68.7-9.47,2.46-16.32-1.45-.47-.27-.75-.63-.77-1.29-.04-1.61-.13-4.89.06-8.76.02-.27.33-.4.55-.25,0,0,6.62,6.9,16.47,11.37v.37ZM32.75,39.64c-.46.29-.87.22-1.5.02,0,0-3.66-1.3-7.66-4.39-.21-.16-.18-.49.06-.6,0,0,9.2-2.3,18.03-8.61l.32.19c-.24,1.81-1.7,8.64-9.25,13.4M41.68,23.55s-3.17,2.45-7.57,4.35c-.24.11-.51-.09-.49-.36,0,0,2.76-9.35,1.77-20.14l.32-.18c1.44,1.12,6.48,6.15,6.77,15.06.02.54-.32.83-.81,1.27"/>
</svg>