<?xml version="1.0" encoding="UTF-8"?>
<svg id="Layer_2" data-name="Layer 2" xmlns="http://www.w3.org/2000/svg" viewBox="0 0 45 45">
  <defs>
    <style>
      .cls-1 {
        fill: #ffe01c;
      }
    </style>
  </defs>
  <rect class="cls-1" width="45" height="45"/>
  <path d="M31.29,21.48c-.21-.26-.39-.69-.49-1.18-.18-.88-.16-1.52.35-1.6.51-.08.76.45.95,1.33.12.59.1,1.13-.04,1.45-.24-.03-.5-.03-.77,0M26.88,22.18c.37.16.59.27.68.17l-.05-.31c-.18-.3-.56-.6-.95-.77-.81-.35-1.78-.23-2.52.3-.25.18-.48.43-.44.58l.13.1c.2.02.91-.34,1.73-.39.58-.04,1.05.14,1.42.31M26.13,22.6c-.48.08-.74.23-.91.38l-.23.37.04.09.08.03.35-.1c.67-.24,1.11-.21,1.54-.16.24.03.35.04.41-.04v-.15c-.13-.18-.61-.49-1.27-.41M29.8,24.15c.32.16.68.1.8-.14.11-.24-.05-.56-.38-.72-.32-.16-.68-.1-.8.14-.12.24.05.56.38.72M31.89,22.33c-.26,0-.48.29-.49.65,0,.36.2.66.47.67.26,0,.48-.29.49-.65,0-.37-.2-.66-.47-.67M14.13,28.87l-.28-.03-.25.03-.45-.23c-.12-.19-.11-.46.02-.78l.06-.14c.21-.48.57-1.27.17-2.03-.3-.57-.79-.93-1.38-1-.57-.07-1.15.14-1.52.55-.59.65-.68,1.52-.56,1.83l.15.15c.1.01.24-.06.34-.31l.03-.08.24-.57c.15-.23.39-.4.66-.46.28-.06.57,0,.81.15.41.27.57.77.39,1.25-.09.25-.24.72-.21,1.11.07.79.55,1.1.99,1.14.42.02.72-.22.79-.4l-.02-.19ZM38.57,27.42c.53,0,1.36.61,1.36,2.08s-.61,3.12-.75,3.5c-2.19,5.25-7.42,8.17-13.65,7.99-5.81-.17-10.76-3.24-12.93-8.23-1.31,0-2.66-.57-3.69-1.48-1.08-.96-1.75-2.2-1.88-3.5-.1-1.01.02-1.94.34-2.76l-1.22-1.03C.59,19.28,18.01-.08,23.58,4.78l1.9,1.86,1.03-.44c4.89-2.02,8.85-1.05,8.86,2.18,0,1.68-1.07,3.64-2.78,5.41.62.58,1.12,1.48,1.4,2.51.24.76.28,1.53.3,2.03.03.68.06,2.28.06,2.31l.69.19c1.31.37,2.25.86,2.7,1.34.46.48.68.94.76,1.49.08.44.07,1.21-.51,2.08,0,0,.15.32.29.79s.25.85.26.9M13.08,31.36c2.04-.35,2.57-2.56,2.23-4.73-.38-2.45-2.04-3.32-3.16-3.38-.31-.02-.6.01-.84.06-2.01.41-3.14,2.11-2.92,4.33.2,2.01,2.24,3.7,4.12,3.75l.58-.04M10.98,21.98c1.59-4.27,4.25-8.21,7.77-10.92,2.61-2.18,5.43-3.74,5.43-3.74,0,0-1.52-1.76-1.98-1.89-2.81-.76-8.9,3.43-12.78,8.98-1.57,2.24-3.82,6.21-2.75,8.26.13.25.88.91,1.29,1.24.67-.98,1.77-1.69,3.02-1.93M30.73,30.53s-2.26,1.05-5.86-.06c.1.84.92,1.22,1.32,1.37.49.19,1.03.28,1.03.28,4.45.77,8.62-1.78,9.56-2.42l.06.08-.09.13c-1.15,1.48-4.23,3.19-8.25,3.19-1.75,0-3.5-.62-4.14-1.56-1-1.47-.05-3.62,1.61-3.39l.73.08c2.08.23,5.08-.06,7.56-1.21,2.27-1.05,3.12-2.21,2.99-3.15-.04-.25-.15-.52-.39-.77-.41-.4-1.05-.71-2.14-1.02-.36-.1-.6-.16-.87-.25-.47-.15-.7-.28-.75-1.16-.02-.39-.09-1.73-.12-2.28-.04-.97-.16-2.3-.98-2.84-.21-.14-.45-.21-.7-.22-.25-.01-.37.03-.42.04-.47.08-.75.33-1.09.62-1.03.86-1.89,1-2.86.95-.58-.02-1.19-.11-1.89-.15l-.41-.03c-1.62-.08-3.35,1.31-3.63,3.29-.4,2.76,1.59,4.18,2.17,5.02l.16.38-.21.39h0c-1.65,1.69-2.17,4.39-1.55,6.63.07.28.17.55.29.8,1.46,3.4,5.97,4.99,10.39,3.55.59-.19,1.15-.43,1.68-.71.99-.48,1.86-1.15,2.57-1.92,1.17-1.22,1.87-2.55,2.14-4.19.13-.88-.06-1.22-.33-1.38-.28-.17-.62-.11-.62-.11,0,0-.15-1.05-.59-2-1.29,1.01-2.94,1.73-4.21,2.09-1.45.42-3.42.74-5.62.61-1.22-.1-2.02-.46-2.33.53,2.78,1.02,5.73.58,5.73.58l.12.09-.07.11M25.03,29.86h0s0,0,0,0ZM18.24,14.48c1.19-.87,2.83-1.67,4.97-2.2,2.4-.59,4.71-.34,6.12-.02l.05-.14c-.93-.52-2.36-.88-3.38-.88l-.05-.1c.17-.24.41-.47.64-.64l-.04-.12c-1.45.09-3.09.78-4.04,1.43l-.1-.06c.07-.35.31-.83.43-1.04l-.08-.08c-1.52.78-3.22,2.17-4.6,3.76l.08.09Z"/>
</svg>