<?xml version="1.0" encoding="UTF-8"?>
<svg id="Layer_2" data-name="Layer 2" xmlns="http://www.w3.org/2000/svg" viewBox="0 0 45 45">
  <defs>
    <style>
      .cls-1 {
        fill: #47b865;
      }

      .cls-2 {
        fill: #fefefe;
      }
    </style>
  </defs>
  <path class="cls-1" d="M.2,0h-.2v45h45V0H.2ZM17.8,42s.03.03.04.04c-.02-.02-.04-.03-.04-.04Z"/>
  <path class="cls-2" d="M.12,45s9.67-16.94,16.39-24.54c0,0,1.78-1.5,2.76-1.21,0,0,.13.46-1.2,1.93s-7.47,9.42-8.04,11.24-.76,2.27,1.24.22,12.53-11.51,16-11.2-.49,6.13-.49,6.13l-2.49,4.76s-2.31,5.06,3.42-.83c5.73-5.88,11.91-12.19,16.89-12.06,0,0,1.29.18-1.64,5.11-2.93,4.93-8.49,14.93-8.49,14.93,0,0-1.78,2.44-.76,2.76,0,0-2.51,2.57-3.33,2.76h-2.18s-.38-.33,1.47-2.91,6.3-10.02,8.25-13.99,2.93-5.51-.33-3.2-12.06,11.2-12.06,11.2c0,0-6.04,6.31-7.88,5.84s-.59-1.9.06-2.93,5.81-9.42,6.49-12.39-.12-3.53-2.64-1.69-9.05,8.39-10.41,10.03-7.47,9.89-8.02,10.04H.12Z"/>
</svg>