<?xml version="1.0" encoding="UTF-8"?>
<svg id="Layer_2" xmlns="http://www.w3.org/2000/svg" version="1.1" xmlns:xlink="http://www.w3.org/1999/xlink" viewBox="0 0 45 45">
  <!-- Generator: Adobe Illustrator 29.3.1, SVG Export Plug-In . SVG Version: 2.1.0 Build 151)  -->
  <defs>
    <style>
      .st0 {
        fill: url(#linear-gradient2);
      }

      .st1 {
        fill: #fff;
      }

      .st2 {
        mask: url(#mask);
      }

      .st3 {
        fill: url(#linear-gradient1);
      }

      .st4 {
        fill: url(#linear-gradient);
      }
    </style>
    <mask id="mask" x="5.6" y="0" width="33.7" height="45" maskUnits="userSpaceOnUse">
      <g id="mask0_8592:56198">
        <path class="st1" d="M37.5,0c1,0,1.9.8,1.9,1.9v41.2c0,1-.8,1.9-1.9,1.9H7.5c-1,0-1.9-.8-1.9-1.9v-18.7c0-1,.8-1.9,1.9-1.9h7.3v-9.4c0-1,.8-1.9,1.9-1.9h7.3V1.9c0-1,.8-1.9,1.9-1.9h11.7Z"/>
      </g>
    </mask>
    <linearGradient id="linear-gradient" x1="21.3" y1="46" x2="40.7" y2="3.6" gradientTransform="translate(0 46) scale(1 -1)" gradientUnits="userSpaceOnUse">
      <stop offset="0" stop-color="#e6ad10"/>
      <stop offset="1" stop-color="#c87e0e"/>
    </linearGradient>
    <linearGradient id="linear-gradient1" x1="13.9" y1="34.3" x2="30.3" y2="1.7" gradientTransform="translate(0 46) scale(1 -1)" gradientUnits="userSpaceOnUse">
      <stop offset="0" stop-color="#f6d751"/>
      <stop offset="1" stop-color="#e6ad10"/>
    </linearGradient>
    <linearGradient id="linear-gradient2" x1="8.3" y1="24.6" x2="17.3" y2="2.6" gradientTransform="translate(0 46) scale(1 -1)" gradientUnits="userSpaceOnUse">
      <stop offset="0" stop-color="#f9e589"/>
      <stop offset="1" stop-color="#f6d751"/>
    </linearGradient>
  </defs>
  <g class="st2">
    <g>
      <path class="st4" d="M39.4,1.9v41.2c0,1-.8,1.9-1.9,1.9h-11.7c-1,0-1.9-.8-1.9-1.9V1.9c0-1,.8-1.9,1.9-1.9h11.7c1,0,1.9.8,1.9,1.9Z"/>
      <path class="st3" d="M30.2,13.1v31.9h-15.5V13.1c0-1,.8-1.9,1.9-1.9h11.7c1,0,1.9.8,1.9,1.9Z"/>
      <path class="st0" d="M5.6,24.4v18.7c0,1,.8,1.9,1.9,1.9h13.6v-20.6c0-1-.8-1.9-1.9-1.9H7.5c-1,0-1.9.8-1.9,1.9Z"/>
    </g>
  </g>
</svg>