<?xml version="1.0" encoding="UTF-8"?>
<svg id="Layer_2" data-name="Layer 2" xmlns="http://www.w3.org/2000/svg" viewBox="0 0 45 45.02">
  <defs>
    <style>
      .cls-1 {
        fill: #ccf0ff;
      }

      .cls-2 {
        fill: #0d61c7;
      }
    </style>
  </defs>
  <rect class="cls-1" width="45" height="45.02"/>
  <rect class="cls-2" x="2.64" y="2.59" width="39.69" height="39.69"/>
  <path class="cls-1" d="M12.37,30.86v-14.96h6.34c2.9,0,4.76,2.67,4.76,4.97,0,2.72-2.06,4.97-4.66,4.97h-3.54v5.02h-2.91ZM15.28,23.29h3.37c1.02,0,1.87-.95,1.87-2.42,0-1.26-.77-2.42-2-2.42h-3.25v4.85ZM29.4,31.07c1.38,0,4.47-.43,4.47-3.5,0-2.6-3.52-3.13-4.28-3.33-.41-.1-2.17-.38-2.17-1.39,0-.81.66-1.24,1.69-1.24,1.39,0,2.64.8,3.2,1.22l1.14-1.71c-.6-.53-1.9-1.52-4.32-1.52s-4.34,1.31-4.34,3.64,3.22,2.88,3.94,3.08c.86.24,2.42.55,2.42,1.5,0,.77-.74,1.22-1.81,1.22-1.65,0-3.2-.98-3.88-1.46l-1.05,1.77c.63.55,2.45,1.71,4.99,1.71"/>
</svg>