<?xml version="1.0" encoding="UTF-8"?>
<svg id="Layer_2" data-name="Layer 2" xmlns="http://www.w3.org/2000/svg" viewBox="0 0 45 40.72">
  <defs>
    <style>
      .cls-1 {
        fill: #ffedb8;
      }

      .cls-2 {
        fill: #fcad00;
      }

      .cls-3 {
        fill: #fcd130;
      }

      .cls-4 {
        fill: #eb6b00;
      }
    </style>
  </defs>
  <polygon class="cls-4" points="35.89 14.52 22.5 40.72 45 14.52 35.89 14.52"/>
  <polygon class="cls-4" points="0 14.52 22.5 40.72 9.12 14.52 0 14.52"/>
  <polygon class="cls-2" points="35.89 14.52 9.11 14.52 22.5 40.72 35.89 14.52"/>
  <polygon class="cls-3" points="22.5 0 35.18 1.34 35.89 14.52 22.5 0"/>
  <polygon class="cls-3" points="22.5 0 9.82 1.34 9.11 14.52 22.5 0"/>
  <polygon class="cls-2" points="0 14.52 9.11 14.52 9.82 1.34 0 14.52"/>
  <polygon class="cls-2" points="35.89 14.52 45 14.52 35.18 1.34 35.89 14.52"/>
  <polygon class="cls-1" points="22.5 0 35.89 14.52 9.11 14.52 22.5 0"/>
</svg>