<?xml version="1.0" encoding="UTF-8"?>
<svg id="Layer_2" data-name="Layer 2" xmlns="http://www.w3.org/2000/svg" viewBox="0 0 45 44.52">
  <defs>
    <style>
      .cls-1 {
        fill: #2489ca;
      }

      .cls-2 {
        fill: #0877b9;
      }

      .cls-3 {
        fill: #3c99d4;
      }

      .cls-4 {
        fill: #1070b3;
      }
    </style>
  </defs>
  <path class="cls-1" d="M.43,15.52s-1.1-.79.22-1.84l3.06-2.74s.88-.92,1.8-.12l28.28,21.41v10.27s-.01,1.61-2.08,1.43L.43,15.52Z"/>
  <path class="cls-4" d="M7.72,22.14L.43,28.77s-.75.56,0,1.55l3.38,3.08s.8.86,1.99-.12l7.73-5.86-5.81-5.28Z"/>
  <path class="cls-2" d="M20.51,22.2l13.37-10.21-.09-10.21s-.57-2.23-2.48-1.07L13.53,16.9l6.98,5.3Z"/>
  <path class="cls-3" d="M31.71,43.94c.78.79,1.72.53,1.72.53l10.42-5.13c1.33-.91,1.15-2.04,1.15-2.04V6.66c0-1.35-1.38-1.81-1.38-1.81L34.58.49c-1.97-1.22-3.27.22-3.27.22,0,0,1.66-1.2,2.48,1.07v40.53c0,.28-.06.55-.18.8-.24.48-.75.93-1.99.74l.09.1Z"/>
</svg>