<?xml version="1.0" encoding="UTF-8"?>
<svg id="Layer_2" data-name="Layer 2" xmlns="http://www.w3.org/2000/svg" viewBox="0 0 45 45.02">
  <defs>
    <style>
      .cls-1 {
        fill: #801263;
      }

      .cls-2 {
        fill: #ff80e3;
      }
    </style>
  </defs>
  <rect class="cls-2" y="0" width="45" height="45"/>
  <rect class="cls-1" x="2.64" y="2.64" width="39.73" height="39.73"/>
  <path class="cls-2" d="M12.87,15.97l3.73,5.57,3.71-5.57h3.14l-5.34,7.59,5.17,7.38h-3.14l-3.54-5.36-3.57,5.36h-3.16l5.17-7.38-5.34-7.59h3.16ZM28.63,31.16c2.21,0,3.43-1.43,3.84-2.13,0,0-.19,2.07,1.85,2.07.31,0,.71-.05,1.2-.15v-2.4c-.24-.01-.66-.55-.66-.84v-12.15h-2.82v6.29c-.37-.63-1.51-2.13-3.73-2.13-2.62,0-4.94,2.28-4.94,5.72,0,3.03,2.01,5.74,5.25,5.74M29.37,28.75c-1.87,0-3.06-1.66-3.06-3.27,0-1.46.96-3.37,2.89-3.37,1.72,0,2.74,1.84,2.85,2.15v2.64c-.1.27-.91,1.86-2.68,1.86"/>
</svg>