<?xml version="1.0" encoding="UTF-8"?>
<svg id="Layer_1" xmlns="http://www.w3.org/2000/svg" version="1.1" viewBox="0 0 128 128">
  <!-- Generator: Adobe Illustrator 29.3.1, SVG Export Plug-In . SVG Version: 2.1.0 Build 151)  -->
  <defs>
    <style>
      .st0 {
        fill: #fff;
      }
    </style>
  </defs>
  <path class="st0" d="M86.8,44.9s-1.4-3.7-32.8-3.9c-31.4-.2-36-8.8-36-8.8,12.7,7.4,42.3,5,57.3,4.6,15-.4,19,5.9,19,5.9-17.3,18.3-4,31.2-4,31.2,0,0-17.5-10-3.4-29h0ZM54.3,45.6c0,1.6,7.8,2.8,13.9,2.8h6.1c0-1.6-1.1-2.8-6.3-2.8h-13.6,0ZM47.2,48.9c0,1.3,7.3,2.3,13,2.3h5.7c0-1.3-1-2.3-5.9-2.3h-12.7,0ZM64.5,75.9s-4.7,3.9-25.3,7.2c-28.6,4.6-31.4,12.8-31.4,12.8,3.2-5.1,19.8-8.4,25.2-9.3,1-.2,2-.3,3-.4,17.1-1.4,24.7-3.3,27.7-4.3,1.2-.4,2.5-.6,3.8-.7,10.5-.5,14.3-4.7,15.7-5.8,1.4-1.2.7-2,.7-2-22.7-9.9-16.3-20.2-16.3-20.2,0,0-10.8,7,8.8,20.2,0,0-3,2.5-4.7,2.4,0,0-22.3-10-16-21.1,0,0-11.1,8.1,8.8,21.4h0ZM103,59.9c1-.9-.2-2.5-.2-2.5,2.5.6,7.7,1.1,7.7,1.1-4.1-3.5-11.3-2.1-11.3-2.1l1.9,2c-.3,1.7-9.1,4.7-9.1,4.7,3.3.9,10-2.2,11.1-3.1h0ZM116.2,62.9c-.2,0-3.9.7-3.9.7v2c-1.3,1-.5,1.8-.5,1.8l1.7-1.4c1.3-1.1,3.2-1.2,4.6-.3l1.6,1s.9-.5.5-2.1c-.4-1.6-7.3-5.2-7.3-5.2l3.4,3.5h0Z"/>
</svg>