<?xml version="1.0" encoding="UTF-8"?>
<svg id="Layer_2" data-name="Layer 2" xmlns="http://www.w3.org/2000/svg" viewBox="0 0 90 45">
  <defs>
    <style>
      .cls-1 {
        fill: #787878;
      }
    </style>
  </defs>
  <path class="cls-1" d="M45.84,2.5c.11.02.21.04.32.06.63.13,1.18.43,1.69.81.74.54,1.38,1.18,1.97,1.87,1.15,1.33,2.17,2.75,2.97,4.32.85,1.66,1.42,3.4,1.73,5.24.22,1.31.29,2.63.24,3.96-.06,1.81-.33,3.58-.91,5.3-.79,2.35-2.09,4.37-3.88,6.08-1.4,1.33-3.05,2.18-4.95,2.52-.77.14-1.55.2-2.33.17-.94-.04-1.83-.31-2.67-.75-1.28-.67-2.39-1.55-3.22-2.75-.65-.94-1.05-1.97-1.27-3.09-.13-.66-.19-1.33-.18-2.01.01-.8.09-1.6.21-2.4.41-2.69,1.16-5.3,1.98-7.89.49-1.55,1.02-3.09,1.66-4.58.59-1.38,1.26-2.72,2.12-3.95.54-.76,1.14-1.46,1.89-2.01.57-.42,1.19-.72,1.9-.83.13-.02.25-.04.38-.06h.35ZM44.34,25.44c.4-.03.81-.04,1.22-.08,1.18-.13,2.31-.47,3.39-.96.67-.3,1.3-.67,1.82-1.19.5-.49.84-1.07.93-1.77.06-.5.01-1-.06-1.49-.15-1.03-.49-2-.97-2.92-1.06-2.03-2.52-3.74-4.21-5.26-.47-.42-.99-.79-1.58-1.03-.31-.13-.63-.21-.97-.19-.59.03-1.1.26-1.55.63-.56.45-.98,1.02-1.36,1.62-.58.91-1.03,1.88-1.44,2.88-.67,1.64-1.22,3.3-1.35,5.08-.03.37-.06.74.02,1.1.19.83.61,1.54,1.24,2.12.72.67,1.59,1.03,2.53,1.24.77.17,1.56.21,2.35.24M54.39,42.5c0-.54,0-1.08,0-1.62,0-.01,0-.02.01-.05.02.02.03.02.04.04.37.54.73,1.08,1.1,1.63h.23c0-.33,0-.67,0-1,0-.28,0-.56,0-.84,0-.07-.02-.09-.09-.09-.08,0-.09.04-.09.1,0,.47,0,.94,0,1.41,0,.04,0,.08,0,.12-.05-.03-.07-.06-.09-.09-.32-.47-.65-.95-.97-1.42-.09-.14-.14-.15-.31-.1v.59c0,.44,0,.88,0,1.32h.19ZM38.42,42.5c0-.3,0-.59,0-.89,0-.31,0-.63,0-.94,0-.09.03-.11.11-.11.22.01.44,0,.66.03.27.03.42.22.41.48,0,.16-.08.27-.22.34-.03.02-.06.03-.11.05.03.02.05.03.07.03.2.06.32.18.35.39.02.2-.05.37-.22.47-.08.05-.19.07-.28.11-.03.01-.06.02-.09.03h-.69ZM38.6,41.94c0,.1,0,.21,0,.31,0,.03.03.08.05.08.19,0,.38,0,.57-.03.2-.03.31-.19.3-.37,0-.19-.12-.33-.33-.36-.17-.02-.35-.02-.53-.02-.02,0-.06.05-.07.08,0,.1,0,.2,0,.3M38.6,41.07c0,.09,0,.18,0,.27,0,.03.04.07.06.07.16,0,.33,0,.49-.02.18-.03.28-.15.28-.32,0-.17-.09-.3-.27-.33-.17-.03-.34-.02-.51-.02-.02,0-.05.04-.05.07,0,.09,0,.19,0,.28M34.29,42.5c0-.6,0-1.21,0-1.81,0-.09.02-.13.12-.12.23.01.46,0,.69.02.47.06.81.42.83.86.03.52-.25.89-.75,1.01-.05.01-.09.03-.14.04h-.75ZM34.47,41.53c0,.24,0,.47,0,.71,0,.06,0,.1.08.1.17,0,.35,0,.52-.02.4-.05.68-.38.68-.79,0-.39-.27-.72-.66-.78-.17-.03-.35-.01-.52-.02-.09,0-.1.03-.1.11,0,.23,0,.46,0,.7M51.97,42.5c0-.6,0-1.21,0-1.81,0-.1.03-.13.12-.12.22.01.45,0,.68.02.5.06.83.43.84.91.01.5-.29.87-.8.98-.04,0-.07.02-.11.03h-.73ZM52.15,41.52h0c0,.24,0,.48,0,.72,0,.07.02.1.09.1.17,0,.34,0,.5-.02.4-.05.68-.37.68-.77,0-.42-.26-.74-.66-.81-.1-.02-.2-.02-.3-.02-.1,0-.24-.02-.29.03-.05.05-.02.19-.02.29,0,.16,0,.32,0,.48M44.9,42.5c.26-.61.53-1.22.79-1.83.03-.06.05-.11.14-.11.08,0,.11.05.13.11.25.58.5,1.17.75,1.75.01.02.02.05.03.08h-.19c-.06-.15-.12-.3-.19-.44-.02-.04-.07-.08-.11-.08-.29,0-.58,0-.87,0-.03,0-.08.02-.08.04-.07.16-.13.32-.19.48h-.21ZM46.26,41.81c-.15-.35-.29-.69-.42-1.02-.01,0-.02,0-.03,0-.14.33-.28.67-.42,1.02h.88ZM36.52,42.5s0-.05.02-.07c.17-.26.34-.51.52-.76,0-.01.02-.02.04-.04.02.02.04.03.05.04.18.26.35.52.52.77.01.02.01.04.02.06h.23s-.02-.05-.04-.07c-.19-.28-.39-.56-.59-.83-.06-.09-.06-.14,0-.23.17-.23.33-.47.49-.7.02-.03.04-.06.05-.09q-.18-.03-.27.1c-.13.19-.26.39-.39.58-.02.03-.04.05-.07.09-.03-.04-.05-.07-.07-.1-.13-.2-.26-.39-.4-.59-.07-.1-.13-.12-.27-.07.02.04.05.07.07.1.17.24.34.48.51.72.03.04.05.08,0,.13-.23.32-.45.64-.68.96h.25ZM44.65,42.5c0-.05,0-.1-.01-.16-.26,0-.51,0-.77,0-.1,0-.13-.03-.13-.13,0-.51,0-1.03,0-1.54,0-.09-.03-.11-.11-.1-.09,0-.07.06-.07.11,0,.61,0,1.22,0,1.82h1.08ZM51.49,42.5q-.02-.16-.19-.16c-.21,0-.42,0-.62,0-.08,0-.11-.03-.1-.1,0-.06,0-.12,0-.19,0-.46,0-.92,0-1.37,0-.07,0-.11-.09-.11-.09,0-.08.06-.08.11,0,.61,0,1.21,0,1.82h1.08ZM56.81,37.21c.3.5.6.99.9,1.49-.04,0-.06,0-.09,0-.25,0-.49,0-.74,0-.07,0-.1-.02-.13-.08-.21-.42-.43-.83-.65-1.25-.04-.08-.09-.11-.18-.11-.29,0-.29,0-.29.29,0,.34,0,.69,0,1.03,0,.08-.02.11-.11.11-.19,0-.38,0-.57,0-.07,0-.09-.03-.09-.09,0-1.13,0-2.25,0-3.38,0-.06.01-.1.09-.1.53,0,1.05,0,1.57.02.16,0,.32.05.47.11.31.12.5.36.56.7.04.22.03.44-.04.65-.1.28-.3.46-.58.55-.04,0-.07.02-.13.04M55.64,36.22c0,.11,0,.23,0,.34,0,.06.02.08.08.08.23,0,.47,0,.7-.02.24-.02.37-.17.37-.38,0-.22-.11-.38-.34-.41-.24-.03-.49-.02-.74-.03-.02,0-.06.05-.06.08,0,.11,0,.23,0,.34M40.16,37.26c0-.21,0-.4,0-.6,0-.09-.02-.12-.12-.12-.44,0-.89,0-1.33,0-.08,0-.11-.03-.11-.11,0-.16,0-.31,0-.47,0-.09.03-.11.11-.11.47,0,.93,0,1.4,0h.13c0-.23,0-.44,0-.66,0-.02-.06-.05-.09-.05-.74,0-1.49,0-2.23,0-.07,0-.09.02-.09.09,0,1.12,0,2.25,0,3.38,0,.07.03.1.1.1.77,0,1.54,0,2.31,0,.08,0,.1-.03.1-.11,0-.16,0-.33,0-.49,0-.09-.03-.12-.12-.11-.5,0-1.01,0-1.51,0-.09,0-.12-.03-.11-.11,0-.18,0-.35,0-.53,0-.07.02-.1.1-.1.3,0,.59,0,.89,0h.57M50.76,38.69c.04-.09.07-.18.11-.27.46-1.05.91-2.11,1.37-3.16.03-.08.07-.11.16-.11.14,0,.28,0,.43,0,.07,0,.11.02.14.09.46,1.06.92,2.12,1.38,3.18.04.09.08.18.13.29h-.42c-.11,0-.23,0-.34,0-.08,0-.12-.02-.15-.1-.07-.19-.15-.37-.23-.56-.03-.07-.06-.1-.14-.1-.4,0-.8,0-1.2,0-.08,0-.12.03-.14.1-.07.19-.15.38-.23.57-.01.03-.06.08-.09.08-.24,0-.49,0-.73,0-.01,0-.02,0-.05-.02M52.6,36.2s-.02,0-.03,0c-.14.36-.28.73-.43,1.1h.9c-.15-.38-.29-.74-.43-1.1M41,38.71v-3.42q0-.14.14-.14c.4,0,.8-.01,1.2,0,.22,0,.45.03.66.1.42.12.66.45.66.89,0,.18-.01.38-.07.55-.13.38-.44.55-.81.59-.28.03-.57.03-.86.03-.14,0-.14,0-.14.14,0,.38,0,.76,0,1.14,0,.1-.03.12-.13.12-.21,0-.42,0-.64,0M41.77,36.23c0,.12,0,.24,0,.37,0,.03.03.07.05.07.25,0,.5,0,.75-.03.17-.02.28-.14.3-.32.03-.26-.08-.44-.34-.48-.22-.03-.46-.03-.69-.03-.02,0-.06.05-.06.08,0,.12,0,.24,0,.35M30.57,35.8c.06,0,.11,0,.16,0,.38,0,.76,0,1.15,0,.09,0,.13-.02.12-.12,0-.14,0-.27,0-.41,0-.09-.02-.12-.12-.12-.63,0-1.27,0-1.9,0-.1,0-.13.03-.13.13,0,.47-.02.94-.03,1.42,0,.13,0,.26,0,.39.21-.03.4-.08.6-.1.25-.02.51,0,.73.14.19.13.27.35.22.58-.05.22-.18.36-.41.41-.27.06-.5-.07-.6-.34-.01-.03-.05-.07-.07-.07-.24.05-.47.11-.72.16.1.38.3.66.67.8.22.09.45.09.68.08.64-.03,1.11-.45,1.19-1.08.09-.72-.33-1.25-1-1.33-.17-.02-.35,0-.53,0v-.55M58.42,37.75c-.19.21-.37.41-.55.6.01.02.02.03.03.04.02.02.04.04.06.05.5.38,1.05.44,1.64.28.48-.13.77-.45.82-.95.04-.43-.08-.75-.5-.96-.16-.08-.33-.12-.5-.18-.17-.06-.34-.12-.5-.2-.21-.12-.21-.4,0-.53.08-.05.19-.09.29-.11.26-.04.49.03.69.21.17-.19.34-.38.51-.56-.02-.02-.02-.03-.03-.04-.03-.02-.06-.05-.09-.07-.4-.26-.85-.31-1.31-.23-.35.06-.64.22-.84.53-.34.53-.16,1.15.4,1.42.09.04.19.07.29.11.2.08.41.15.61.23.14.06.23.18.21.34-.01.17-.12.26-.27.31-.34.11-.64.04-.9-.19-.02-.02-.04-.05-.07-.09M33.91,35.15s.02.06.02.08c.45,1.13.91,2.27,1.36,3.4.02.06.06.08.12.07.14,0,.28,0,.42,0,.09,0,.13-.03.17-.12.46-1.11.92-2.22,1.37-3.33.01-.03.02-.07.04-.12-.25,0-.47,0-.7,0-.09,0-.13.03-.16.11-.27.71-.54,1.42-.82,2.13-.01.03-.03.07-.05.12-.02-.05-.04-.08-.05-.12-.11-.28-.21-.56-.32-.84-.17-.44-.33-.88-.5-1.31-.01-.04-.06-.09-.09-.09-.26,0-.53,0-.81,0M50.52,38h-1.17q-.16,0-.16-.16c0-.86,0-1.72,0-2.57,0-.09-.02-.12-.12-.12-.18,0-.37,0-.55,0-.07,0-.1.02-.1.09,0,1.13,0,2.26,0,3.39,0,.07.02.09.09.09.64,0,1.29,0,1.93,0,.05,0,.1,0,.15,0,.02,0,.06-.03.06-.05,0-.21,0-.43,0-.66h-.13ZM46.62,38q-.14,0-.14-.14c0-.86,0-1.72,0-2.59,0-.1-.03-.13-.13-.13-.18,0-.35,0-.53,0-.08,0-.11.02-.11.11,0,1.12,0,2.24,0,3.36,0,.09.03.1.11.1.65,0,1.31,0,1.96,0,.03,0,.07,0,.1,0,.02,0,.05-.04.05-.06,0-.21,0-.42,0-.65h-1.32ZM44.18,36.92c0,.56,0,1.12,0,1.68,0,.09.03.12.11.11.19,0,.38,0,.57,0,.07,0,.08-.03.08-.09,0-.11,0-.22,0-.33,0-1.01,0-2.01,0-3.02,0-.08,0-.13-.11-.13-.18,0-.36,0-.54,0-.09,0-.12.03-.12.12,0,.55,0,1.1,0,1.66M33.51,38.1c0-.94,0-1.89,0-2.83,0-.1-.03-.13-.12-.12-.17,0-.34,0-.51,0-.1,0-.14.02-.14.13,0,1.08,0,2.17,0,3.25,0,.03,0,.07,0,.1.01.03.04.07.07.08.22,0,.45,0,.69,0v-.61ZM47.97,41.51c0,.27.19.48.46.49.27,0,.47-.19.48-.46,0-.27-.19-.48-.46-.49-.27,0-.47.19-.48.46M41.6,41.06c-.26,0-.47.2-.47.47,0,.27.21.47.48.47.26,0,.47-.21.47-.47,0-.27-.21-.47-.48-.47"/>
</svg>