<?xml version="1.0" encoding="UTF-8"?>
<svg id="Layer_1" xmlns="http://www.w3.org/2000/svg" version="1.1" xmlns:xlink="http://www.w3.org/1999/xlink" viewBox="0 0 1080 474.2">
  <!-- Generator: Adobe Illustrator 29.3.1, SVG Export Plug-In . SVG Version: 2.1.0 Build 151)  -->
  <defs>
    <style>
      .st0 {
        fill: #212121;
      }

      .st1 {
        fill: url(#linear-gradient);
      }
    </style>
    <linearGradient id="linear-gradient" x1="160.6" y1="237.1" x2="919.4" y2="237.1" gradientUnits="userSpaceOnUse">
      <stop offset="0" stop-color="#d79617"/>
      <stop offset="0" stop-color="#b46a11"/>
      <stop offset=".3" stop-color="#d68d15"/>
      <stop offset=".7" stop-color="#e7ac18"/>
      <stop offset="1" stop-color="#f8c73d"/>
    </linearGradient>
  </defs>
  <path class="st1" d="M694,107.9s-9.8-24.8-221.3-26.3S229.6,22.4,229.6,22.4c85.5,50.3,285.1,33.8,386.4,30.8s128.3,39.8,128.3,39.8c-117,123.8-27.1,210.4-27.1,210.4,0,0-118-67.4-23.2-195.4h0ZM474.2,112.7c0,10.6,52.8,19.1,93.6,19.1h40.9c0-10.6-7.1-19.1-42.6-19.1h-91.9,0ZM426.6,135.3c0,8.7,49.3,15.8,87.4,15.8h38.2c0-8.7-6.7-15.8-39.8-15.8h-85.8,0ZM543.1,317.5s-31.9,26.2-170.7,48.3c-192.9,30.8-211.8,86-211.8,86,21.3-34.5,133.7-56.7,170-63,6.7-1.2,13.4-2,20.1-2.6,115.1-9.6,166.6-22.4,186.7-29,8.4-2.8,17.1-4.3,26-4.7,70.6-3.5,96.5-32,105.7-39.4,9.8-7.9,4.5-13.7,4.5-13.7-153-67-110.3-136.5-110.3-136.5,0,0-73.1,47.5,59.7,136,0,0-20.2,17.2-31.4,16,0,0-150.1-67.8-107.9-142.1,0,0-75.1,54.9,59.5,144.7h0ZM803.1,209.7c7-6.2-1.4-16.6-1.4-16.6,17.2,4.2,51.8,7.3,51.8,7.3-27.6-23.4-76.5-14.4-76.5-14.4l12.9,13.2c-2,11.5-61.6,31.5-61.6,31.5,22.2,5.9,67.8-14.9,74.8-21.1h0ZM892.5,229.8c-1.4-.3-26.2,4.8-26.2,4.8v13.5c-8.7,6.8-3.4,12.4-3.4,12.4l11.2-9.8c8.7-7.5,21.3-8.4,30.8-2l10.5,7s5.9-3.4,3.1-14.4c-2.8-11-49-35.2-49-35.2l22.8,23.6h0Z"/>
  <path class="st0" d="M694,107.9s-9.8-24.8-221.3-26.3S229.6,22.4,229.6,22.4c85.5,50.3,285.1,33.8,386.4,30.8s128.3,39.8,128.3,39.8c-117,123.8-27.1,210.4-27.1,210.4,0,0-118-67.4-23.2-195.4h0ZM474.2,112.7c0,10.6,52.8,19.1,93.6,19.1h40.9c0-10.6-7.1-19.1-42.6-19.1h-91.9,0ZM426.6,135.3c0,8.7,49.3,15.8,87.4,15.8h38.2c0-8.7-6.7-15.8-39.8-15.8h-85.8,0ZM543.1,317.5s-31.9,26.2-170.7,48.3c-192.9,30.8-211.8,86-211.8,86,21.3-34.5,133.7-56.7,170-63,6.7-1.2,13.4-2,20.1-2.6,115.1-9.6,166.6-22.4,186.7-29,8.4-2.8,17.1-4.3,26-4.7,70.6-3.5,96.5-32,105.7-39.4,9.8-7.9,4.5-13.7,4.5-13.7-153-67-110.3-136.5-110.3-136.5,0,0-73.1,47.5,59.7,136,0,0-20.2,17.2-31.4,16,0,0-150.1-67.8-107.9-142.1,0,0-75.1,54.9,59.5,144.7h0ZM803.1,209.7c7-6.2-1.4-16.6-1.4-16.6,17.2,4.2,51.8,7.3,51.8,7.3-27.6-23.4-76.5-14.4-76.5-14.4l12.9,13.2c-2,11.5-61.6,31.5-61.6,31.5,22.2,5.9,67.8-14.9,74.8-21.1h0ZM892.5,229.8c-1.4-.3-26.2,4.8-26.2,4.8v13.5c-8.7,6.8-3.4,12.4-3.4,12.4l11.2-9.8c8.7-7.5,21.3-8.4,30.8-2l10.5,7s5.9-3.4,3.1-14.4c-2.8-11-49-35.2-49-35.2l22.8,23.6h0Z"/>
</svg>