<?xml version="1.0" encoding="UTF-8"?>
<svg id="Layer_2" data-name="Layer 2" xmlns="http://www.w3.org/2000/svg" viewBox="0 0 90 45">
  <defs>
    <style>
      .cls-1 {
        fill: #787878;
      }
    </style>
  </defs>
  <path class="cls-1" d="M46.9,41.27s0,.06.02.09c.02.06.05.11.11.15-.11-.02-.22-.03-.34-.03-.11,0-.21,0-.32.03,0,0,.02-.02.04-.03.06-.05.09-.13.09-.21v-1.73c0-.05-.02-.1-.05-.15-.02-.03-.04-.05-.06-.07.12,0,.23.04.31.12.05-.05.13-.09.21-.11.04,0,.07,0,.11,0,0,0-.02,0-.03.02-.03.03-.05.05-.05.09-.02.06-.04.14-.04.21,0,0,0,1.63,0,1.63ZM43.76,14.81l-.63-.64-.75.75.63.64.75-.75ZM48.33,18.49l.41-.68.03.03c.06.08.12.18.15.28.1.29.17.58.21.89.15,1.27.21,2.55.16,3.84v.29c.45-1.95.47-3.96.04-5.92-.09-.37-.22-.75-.39-1.09-.16.93-.68,1.76-1.45,2.32v.05c.02.05.04.11.06.17.23.52.41,1.05.55,1.6.11.38.15.78.14,1.17,0,.21-.07.41-.16.6-.14.24-.36.4-.63.44-.09.02-.17.03-.26.03h-.04v-.04c.09-.27.14-.56.13-.85,0-.15-.04-.29-.1-.42-.07-.15-.22-.26-.39-.3-.16-.03-.33-.03-.48,0-.05,0-.1.02-.15.04-.24.05-.47.15-.66.31-.25.19-.37.5-.34.81.03.23.1.45.21.65.15-.1.31-.17.47-.24.08-.03.16-.04.25-.04.13,0,.25.09.29.22v.02h0c-.42.24-.82.5-1.18.8-.12.1-.22.21-.31.33-.17.25-.26.56-.26.87v.43c-.05.28-.16.55-.35.76-.33.38-.73.68-1.17.9-.23.11-.45.22-.69.3.39.15.83.21,1.25.15.47-.08.89-.36,1.13-.77.03-.05.05-.09.08-.13.22-.37.35-.8.36-1.23,0-.14.03-.27.05-.4.05-.18.15-.35.27-.48.2-.22.43-.4.67-.56.14-.09.26-.17.4-.25.4.07.83.02,1.21-.15.37-.18.65-.5.79-.89.04-.1.07-.21.09-.32.11-1.17,0-2.36-.35-3.49,0-.02-.02-.04-.04-.06M46.39,24.3c.07-.12.19-.21.33-.23l.04-.06s-.04-.05-.05-.07c-.03-.02-.06-.03-.1-.02s-.07.03-.1.05c-.05.04-.08.06-.12.11-.1.1-.17.23-.21.36-.04.16,0,.33.1.46v.04c-.12.15-.22.33-.28.52-.03.09-.05.18-.04.28,0,.06.03.13.06.17.03.04.07.06.12.08.07.02.15.02.22,0,.18-.03.35-.09.51-.19.47-.29.83-.75.99-1.27-.25.27-.52.52-.81.74-.11.08-.23.15-.35.2-.06.02-.12.04-.18.04-.05,0-.08-.02-.11-.04-.04-.03-.05-.06-.05-.11,0-.04,0-.07.02-.1.03-.07.06-.14.11-.19.08-.11.17-.21.27-.3.05-.05.09-.09.13-.15.04-.05.05-.11.05-.17,0-.04,0-.08-.03-.12l-.31.34-.02.02-.02-.02c-.06-.05-.12-.13-.15-.21-.02-.05-.02-.1,0-.15M41.12,21.6l-.15,1.25c-.05.34-.04.67.02,1.01.05.28.15.55.31.78.14.19.35.33.58.36.21.03.43,0,.62-.09.29-.11.56-.25.82-.43.99-.62,1.53-1.75,1.38-2.92-.05-.59-.32-1.14-.74-1.55-.06-.05-.12-.11-.19-.15l-.52,1.41c.19.15.35.32.49.51.11.15.18.34.2.53,0,.21-.05.42-.19.58-.19.23-.43.42-.69.55-.29.16-.6.27-.93.33-.11.02-.22.02-.33,0-.06-.02-.12-.05-.17-.08-.08-.07-.15-.15-.2-.25-.09-.18-.15-.38-.19-.58-.06-.41-.1-.83-.11-1.25M48.68,14.42c-.04.94-.32,1.85-.83,2.63-.07.11-.16.22-.25.31-.55.7-1.23,1.26-2.02,1.65-.66.35-1.41.54-2.16.52-.52,0-1.02-.21-1.4-.55-.04-.04-.06-.06-.1-.1-.25-.29-.4-.64-.46-1.01-.1-.59-.1-1.19,0-1.79.23-1.43.64-2.83,1.21-4.15v-.02c-.35-.52-.49-1.15-.41-1.77.1-.59.39-1.15.82-1.56.19-.21.41-.41.65-.57.25-.23.6-.3.92-.19.25.12.44.33.53.59.12.38.05.81-.18,1.14-.61,1.16-1.3,2.29-2.06,3.36l-.2.29c-.17.26-.32.54-.45.82-.25.63-.39,1.29-.43,1.96-.03.43.03.85.17,1.25.15.41.47.73.88.87.35.11.7.14,1.05.07,1.93-.28,3.53-1.64,4.12-3.5.13-.37.19-.77.17-1.17v-.05c-.05-.31-.1-.62-.18-.92-.63-2.16-1.35-4.31-2.15-6.41v-1.47l.44.92c1.01,2.13,1.75,4.37,2.24,6.67.13.72.17,1.45.13,2.18M42.78,10.18v.05c.03.15.13.28.27.35.05.03.09.05.14.06.05,0,.09.02.13.02.05,0,.11-.04.14-.08.38-.64.74-1.3,1.06-1.96v-.03h0s-.04-.03-.05-.03c-.09-.02-.19,0-.28.02-.17.05-.33.15-.46.26-.29.25-.55.55-.75.87-.1.15-.16.31-.18.48M40.86,26.16s-.03-.09-.05-.14c-.12-.45-.21-.9-.26-1.36-.06-.88-.09-1.76-.08-2.64v-1.45c-.05-5.61,1.09-11.16,3.36-16.29-.05.09-.11.19-.15.28-2.82,5.55-4.15,11.75-3.87,17.98,0,.67,0,1.35.05,2.02.03.56.1,1.13.23,1.68.12.54.34,1.05.64,1.52.39.6,1.04.99,1.75,1.05.95.08,1.9-.07,2.77-.45,1.92-.87,3.34-2.58,3.84-4.64-1.09,2.32-3.36,3.84-5.92,3.97-.24,0-.47,0-.7-.06-.35-.06-.69-.22-.97-.45-.08-.08-.16-.16-.24-.25-.17-.24-.3-.49-.38-.77M46.89,19.01c-.35.42-.79.75-1.28.96-.2.08-.42.14-.63.15.3.06.62.08.93.05.23-.02.44-.1.62-.24.17-.15.3-.35.34-.57.03-.12.04-.24.04-.36M47.39,13.16l-.63-.64-.75.75.63.64.75-.75h0ZM43.36,25.81l-.64-.64-.75.75.63.64.75-.75h0ZM42.72,17.12c.45,0,.89-.03,1.33-.11.3-.06.58-.18.84-.35.15-.11.29-.25.38-.43.16-.33.24-.7.22-1.06-.02-.39-.06-.78-.13-1.16-.04-.24-.06-.47-.05-.72,0-.15.04-.28.09-.42.03-.05.05-.09.08-.14.4-.5.74-1.05,1.01-1.63.09-.19.15-.4.17-.61v-.11c-.02-.41-.08-.82-.21-1.21-.07-.25-.15-.48-.25-.72-.26-.65-.48-1.3-.66-1.97l-.06-.31c-.1-.62-.16-1.25-.21-1.88l-.15-1.8v4.35s.09.75.34,1.45c.05.14.12.27.18.41.13.22.21.45.25.71.04.31-.04.63-.22.89-.13.18-.25.35-.38.53-.29.36-.51.79-.64,1.24-.09.35-.1.71-.05,1.06.16.9.06,1.83-.3,2.66-.22.51-.62.93-1.11,1.18-.15.06-.29.12-.45.15M42.21,22.24c0-.45,0-.88.03-1.33,0-.1.02-.19.05-.29,0-.03.02-.06.04-.09,0,0,.02-.03.03-.04h.02c.07.02.15,0,.23-.03s.12-.11.13-.19c0-.08,0-.15-.06-.22s-.13-.09-.2-.09c-.11,0-.21.06-.25.17-.05.08-.07.16-.09.26-.04.25-.05.49-.04.74,0,.18.03.35.05.54v.05h-.04s-.02-.05-.02-.05c-.09-.27-.2-.55-.34-.81-.03-.05-.05-.09-.08-.13-.05-.11-.16-.17-.28-.15s-.21.11-.23.23.05.24.15.28.24.02.32-.07l.03-.03.02.04c.21.39.39.79.55,1.2M46.85,38.4s-.08.07-.11.12v.03c-.04-.08-.08-.15-.14-.21l-.25-.25c-.05-.05-.11-.11-.15-.17-.04-.05-.05-.1-.06-.16,0-.06,0-.12.04-.17.02-.03.04-.06.06-.09-.08.07-.15.16-.2.25-.04.06-.05.14-.05.21s.03.14.06.2c.05.08.12.15.19.22.1.09.2.19.3.29.08.09.15.2.18.33v.02c0-.1.05-.2.12-.28.03-.04.06-.07.09-.1,0-.06,0-.13-.05-.18,0-.02-.03-.04-.04-.05M46.08,40.86l.03-.05c-.02.26-.16.49-.39.62-.14.08-.3.13-.46.13-.25,0-.49-.09-.68-.26-.19-.16-.31-.39-.35-.65,0-.06-.02-.13-.02-.19,0-.39.19-.75.52-.97.16-.1.35-.15.54-.15s.39.06.55.2c.15.13.25.31.29.51.02.08.02.16.02.25h-1.48v.13c0,.21.05.42.17.59.13.18.35.29.56.28.16,0,.32-.05.45-.15.11-.07.19-.16.26-.27M44.66,40.12h1.05c0-.13-.02-.25-.07-.36-.08-.15-.25-.25-.42-.25s-.33.09-.42.23c-.07.12-.12.25-.13.38M50.47,41.51c-.11-.02-.22-.03-.34-.03-.11,0-.21,0-.32.03,0,0,.02-.02.04-.03.06-.05.09-.13.09-.21v-.04c-.18.19-.43.3-.69.31-.11,0-.22-.03-.32-.09-.15-.11-.24-.28-.24-.46,0-.06,0-.12.03-.18.05-.15.15-.26.28-.35.05-.04.11-.05.16-.08.15-.05.3-.1.45-.15.08-.02.15-.05.23-.09.03-.02.06-.04.08-.06v-.28c-.02-.1-.07-.19-.15-.25-.07-.05-.15-.06-.24-.06-.05,0-.1,0-.15.02-.14.04-.25.12-.34.24-.07.12-.14.24-.17.37v-.57l.05-.04c.2-.14.43-.2.67-.2.11,0,.22.02.32.05.13.04.24.12.31.23.06.1.09.23.09.35v1.32s0,.05,0,.08c.02.06.06.12.12.15M49.96,40.31s-.05.02-.07.04c-.14.05-.27.1-.42.15-.08.03-.15.07-.23.12-.1.07-.15.19-.15.31,0,.04,0,.08,0,.12.02.08.05.15.12.2.06.05.14.06.22.06h.06c.17-.02.35-.1.46-.24v-.75h0ZM47.39,37.77c-.02-.08-.06-.15-.11-.22-.08-.11-.18-.21-.28-.3-.06-.05-.13-.12-.18-.19-.02-.03-.05-.05-.05-.09,0-.02,0-.05,0-.06,0-.03.02-.05.04-.07-.05.03-.09.06-.13.11-.05.06-.06.15-.05.22.02.06.05.12.09.16.08.1.16.19.26.27.08.07.15.15.23.23.03.04.05.07.05.11,0,.05,0,.08-.03.12-.02.04-.05.06-.07.09-.05-.09-.12-.17-.19-.25l-.29-.28s-.09-.1-.13-.15c-.03-.04-.04-.08-.04-.13s.02-.09.05-.13c0,0,.02-.02.02-.03-.06.05-.13.12-.16.2-.04.07-.05.15-.04.23.02.07.05.14.09.18.06.08.14.16.22.23.06.05.13.11.18.17.04.04.07.07.1.11.05.05.07.12.09.19v.03c0,.05,0,.1,0,.15,0,.04-.03.07-.05.1.08-.07.15-.15.18-.25.02-.05.03-.09.04-.15.07-.07.14-.16.18-.26.04-.12.05-.24.02-.35M40.12,41.27v-1.6c0-.06,0-.13,0-.18,0-.03,0-.06.03-.08.02-.03.05-.05.08-.06h-.12c-.06,0-.14,0-.2.03-.1-.02-.2-.03-.31-.04.05,0,.07.04.09.08,0,.03.02.06.03.1v1.53c-.06.06-.14.13-.21.17-.08.05-.18.07-.27.06-.17,0-.34-.1-.41-.26-.05-.1-.07-.22-.06-.33v-1.02c0-.06,0-.13,0-.18,0-.03,0-.06.03-.08.02-.04.05-.05.08-.06h-.13c-.06,0-.13.02-.19.03-.11-.02-.21-.03-.32-.04.05,0,.07.04.09.08,0,.03.02.06.02.09v1.18c0,.18.04.36.12.53.12.21.34.34.57.34s.45-.1.61-.26c.02-.02.03-.03.05-.05v.03c0,.09-.05.17-.11.23h-.02c.11,0,.21-.02.32-.02s.22,0,.34.03c-.05-.04-.1-.09-.12-.15,0-.03,0-.05-.02-.08M43.83,41.27v-1.31c0-.25-.15-.48-.38-.57-.09-.04-.19-.05-.29-.05-.15,0-.3.05-.43.14-.11.07-.21.16-.3.26-.07-.2-.25-.35-.45-.38-.05,0-.11-.02-.17-.02-.15,0-.31.05-.45.15-.08.05-.15.11-.23.17v-.17s0-.05.03-.08c.02-.03.05-.05.08-.06h-.12c-.06,0-.14,0-.2.03-.1-.02-.21-.03-.31-.04.04,0,.06.03.08.06,0,.03.02.05.03.08,0,.06,0,.13,0,.19v1.6c0,.09-.04.17-.11.22h-.02c.11,0,.21-.02.32-.02s.22,0,.33.03c-.05-.04-.09-.08-.11-.15,0-.03-.02-.05-.02-.09v-1.44c.1-.13.25-.22.43-.24h.04c.09,0,.18.02.26.05.09.05.16.14.19.24.02.06.03.13.03.19v1.19c0,.08-.03.15-.09.21,0,0-.03.02-.04.03.11-.02.21-.03.32-.03s.23,0,.34.03c-.05-.04-.1-.09-.12-.15,0-.03,0-.05,0-.08v-1.38c.09-.14.22-.23.38-.27.04,0,.07-.02.11-.02.09,0,.19.02.27.06.09.05.15.15.18.25.02.06.03.12.03.18v1.17c0,.09-.05.18-.13.24.1-.02.21-.03.32-.03s.22,0,.34.03c-.05-.04-.1-.08-.12-.15,0-.03,0-.05,0-.09M48.36,39.34s-.06,0-.1.03c-.06.04-.13.07-.18.13-.08.07-.15.16-.22.25v-.25s0-.06.03-.08c.02-.04.05-.05.08-.06h-.12c-.06,0-.14,0-.2.03-.1-.02-.2-.03-.31-.04.04,0,.06.03.08.06.02.03.03.05.03.08,0,.06,0,.13,0,.19v1.6c0,.08-.04.15-.09.21,0,0-.02.02-.04.03.11-.02.21-.03.32-.03s.22,0,.34.03c-.05-.04-.1-.09-.12-.15,0-.03,0-.05,0-.08v-1.36c.05-.08.13-.15.21-.19.05-.04.13-.05.19-.05.09,0,.17.04.24.1,0,.02.03.03.04.05v-.43l-.05-.02s-.05-.02-.07-.02h-.05M52.67,41.27v-1.3c0-.18-.06-.35-.2-.47-.14-.11-.31-.17-.48-.16-.13,0-.26.04-.37.11-.11.06-.22.14-.32.22v-.95c0-.06,0-.13,0-.18,0-.03,0-.06.03-.08.02-.03.05-.05.08-.06-.05,0-.09,0-.14,0-.06,0-.13,0-.18.03-.1-.02-.21-.03-.32-.04.04,0,.07.05.09.08,0,.03.02.06.02.1v2.71c0,.08-.04.15-.09.21,0,0-.02.02-.04.03.11-.02.21-.03.32-.03s.22,0,.34.03c-.05-.04-.1-.09-.12-.15,0-.03,0-.05,0-.08v-1.43c.05-.06.11-.11.18-.15.1-.05.21-.08.32-.09.1,0,.19.02.27.06.09.05.15.15.18.25.02.07.03.14.03.21v1.15c0,.09-.05.18-.13.24.1-.02.21-.03.32-.03s.22,0,.34.03c-.05-.04-.09-.08-.11-.15,0-.03-.02-.06-.02-.09M37.66,38.42c-.11-.02-.23-.03-.34-.04.05,0,.07.05.09.08,0,.03.02.06.02.1v2.44c0,.32-.05.63-.18.92-.12.25-.32.45-.56.55-.02,0-.04.02-.05.03.49-.06.91-.4,1.09-.86.09-.21.14-.45.15-.67v-2.24c0-.06,0-.13,0-.18,0-.03,0-.06.03-.08.02-.03.05-.05.08-.06-.05,0-.11,0-.16,0-.05,0-.11,0-.17.03M34.04,31.23s0-.05,0-.08c.02-.07.07-.13.14-.15h-.56s.07.05.1.09c.03.05.04.1.04.15l.02,2.29c0,.11,0,.21-.04.31-.05.22-.18.41-.37.51-.16.08-.35.13-.54.12-.09,0-.18,0-.26-.03-.22-.04-.4-.18-.51-.37-.08-.17-.13-.35-.12-.55v-2.29s.02-.09.05-.14c.04-.05.08-.08.14-.11h-.86s.05.03.08.05c.05.05.09.12.09.19v2.41c.02.33.18.63.45.81.26.17.58.26.9.26.15,0,.29-.02.43-.05.27-.06.5-.23.65-.46.12-.22.18-.46.17-.71l.02-2.26h0ZM37.88,34.67h-.55c-.13,0-.25-.04-.34-.13-.04-.04-.07-.07-.1-.12-.23-.35-.45-.69-.65-1.04-.05-.08-.11-.16-.16-.25-.05-.06-.11-.12-.18-.16-.05-.03-.13-.05-.19-.05h-.31v1.49c0,.08.04.15.1.21.02,0,.04.03.05.04h-.8c.05-.04.1-.08.13-.15,0-.04.02-.06.02-.1v-3.19c0-.07-.03-.15-.08-.2-.02-.02-.05-.04-.06-.05h1.01c.25,0,.52.04.75.13.2.08.36.23.46.42.05.11.08.24.08.35,0,.23-.1.45-.25.62-.15.16-.37.27-.6.29.17.04.32.14.43.27.04.05.06.09.1.14.22.38.46.75.71,1.12.03.05.06.08.1.12.05.05.12.1.19.15.05.03.1.05.15.07M36.32,32.47c.12-.14.19-.31.19-.49v-.06c0-.21-.09-.41-.25-.55-.12-.09-.27-.15-.43-.15h-.05c-.14,0-.27,0-.41.02v1.49h.08c.07,0,.15,0,.23,0,.24,0,.45-.08.62-.25M38.76,31.23v-.03c0-.09.05-.17.14-.22h-.8s.08.05.11.09c.03.05.04.1.04.15v2.83c0,.29-.04.58-.13.85-.11.37-.36.67-.71.85l-.11.05c.39-.05.75-.25,1.01-.55.28-.36.44-.8.45-1.26v-2.78.02ZM42.85,34.6s.05-.06.05-.1,0-.07-.02-.1c-.09-.2-.17-.4-.25-.6l-.09-.23h-1.39c-.12.27-.24.55-.34.83,0,.04-.02.07-.02.11,0,.05.02.09.05.12.03.02.05.03.08.05h-.65c.06-.04.12-.08.17-.14.03-.04.06-.08.08-.13l1.47-3.5,1.47,3.5s.04.08.05.12c.04.04.07.07.12.1.03.02.06.04.1.05h-.97s.07-.04.1-.06M42.44,33.34l-.61-1.51-.6,1.51h1.21ZM46.17,34.67l.11-.57s-.04.05-.05.08c-.05.07-.11.13-.17.16-.08.04-.16.06-.25.07-.18.02-.36.03-.54.02-.19,0-.38,0-.57-.04v-3.16s0-.05,0-.08c.02-.07.07-.13.14-.15h-.81s.08.05.11.08c.03.05.05.1.05.15v3.19s0,.09-.03.13c-.03.05-.07.09-.13.12h2.14-.02ZM50.06,34.6s.05-.06.05-.1c0-.04,0-.07-.02-.1-.11-.24-.21-.47-.31-.72l-.05-.11h-1.39c-.12.27-.24.55-.34.83,0,.04-.02.07-.02.11,0,.05.02.09.06.12.02.02.05.03.07.04h-.65c.06-.04.12-.09.17-.15.04-.04.05-.08.07-.13l1.47-3.5,1.47,3.5s.04.08.05.12c.04.04.07.07.12.1.03.02.06.04.1.05h-.97s.07-.04.1-.06M49.65,33.34l-.61-1.51-.6,1.51h1.21ZM54.33,34.67h-.55c-.13,0-.25-.04-.34-.13-.04-.04-.07-.07-.1-.12-.23-.35-.45-.69-.65-1.04-.05-.08-.11-.16-.16-.25-.05-.06-.11-.12-.18-.16-.05-.03-.13-.05-.19-.05h-.31v1.49c0,.08.04.15.1.21.02,0,.04.03.05.04h-.8c.05-.04.1-.08.13-.15,0-.04.02-.06.02-.1v-3.19c0-.1-.05-.2-.15-.25h1.01c.25,0,.52.04.75.13.2.08.36.23.46.42.05.11.08.24.08.35,0,.23-.1.45-.25.62-.15.16-.37.27-.6.29.17.04.32.14.43.27.04.05.06.09.1.14.22.38.46.75.71,1.12.03.05.06.08.1.12.05.05.12.1.18.15.05.03.1.05.15.07M52.77,32.47c.12-.14.19-.31.19-.49v-.06c0-.21-.09-.41-.25-.55-.12-.09-.27-.15-.43-.15h-.05c-.14,0-.27,0-.4.02v1.49h.08c.07,0,.15,0,.23,0,.24,0,.45-.08.62-.25M56.63,34.6s.05-.06.05-.11c0-.04,0-.06-.02-.09-.07-.16-.15-.34-.22-.51l-.13-.32h-1.39c-.12.27-.24.55-.34.83,0,.04-.02.07-.02.11,0,.05.02.09.05.12.03.02.05.03.08.05h-.65c.06-.04.12-.09.17-.15.03-.04.05-.08.07-.13l1.47-3.5,1.47,3.5.05.11s.07.07.11.1c.04.02.06.04.1.05h-.97s.07-.04.1-.06M56.22,33.34l-.61-1.51-.6,1.51h1.21ZM60.26,33.65c0,.35-.19.65-.49.81-.25.13-.51.19-.79.2h-1.33s.09-.05.12-.1c.03-.05.04-.09.04-.14v-3.19c0-.05,0-.1-.04-.15-.03-.05-.06-.08-.12-.1h1.02c.26,0,.52.05.75.15.15.06.29.17.38.31.07.12.11.25.1.38,0,.24-.11.45-.29.6-.13.11-.28.2-.44.25.24.03.47.1.67.24.25.15.4.44.39.74M58.31,32.58c.07,0,.15,0,.23,0,.16,0,.33-.03.47-.08.2-.08.35-.26.38-.48,0-.05.02-.11,0-.17,0-.15-.05-.29-.14-.41-.11-.12-.25-.2-.41-.22-.06,0-.13-.02-.19-.02-.12,0-.24,0-.35,0,0,0,0,1.36,0,1.36ZM59.68,33.59c0-.15-.03-.28-.1-.41-.08-.14-.21-.24-.35-.28-.15-.05-.33-.08-.49-.07h-.43v1.61c.08,0,.16.02.25.02.2,0,.41-.03.6-.09.17-.05.32-.17.41-.32.08-.14.12-.29.11-.45M61.72,31.7c-.11.25-.35.43-.64.43-.18,0-.35-.07-.49-.2-.13-.13-.2-.31-.2-.49,0-.28.16-.54.43-.64.25-.11.55-.05.75.15.2.2.25.49.15.75M61.54,31.88l-.14-.25s-.02-.04-.04-.05c0,0-.02-.02-.03-.03l-.02-.02s-.05-.02-.06-.03c.04,0,.06-.02.09-.04.04-.02.06-.05.08-.08s.04-.08.03-.13c0-.05,0-.1-.04-.14-.03-.04-.06-.06-.11-.08h-.02c-.05-.02-.11-.02-.17-.02h-.45v.87h.27v-.35h.03s.05,0,.06.02h0s.03.05.04.06l.15.26h.31ZM30.84,33.65c0,.35-.2.66-.51.82-.25.13-.53.19-.8.19h-1.3s.09-.05.12-.1c.02-.05.04-.09.04-.14v-3.19c0-.05,0-.1-.04-.15-.03-.05-.06-.08-.12-.1h1.02c.26,0,.52.05.76.15.15.06.29.17.38.31.07.12.11.25.1.38,0,.24-.11.45-.29.6-.13.11-.27.2-.44.25.24.03.47.1.67.24.25.15.4.44.39.74M28.89,32.58c.07,0,.15,0,.23,0,.16,0,.33-.03.48-.08.2-.08.35-.26.38-.48,0-.05.02-.11.02-.17,0-.15-.05-.29-.14-.41-.11-.12-.25-.2-.41-.22-.06,0-.13-.02-.19-.02-.12,0-.24,0-.35,0v1.36h-.02ZM30.27,33.59c0-.15-.03-.28-.1-.41-.08-.14-.21-.24-.35-.28-.15-.05-.33-.08-.49-.07h-.43v1.61c.08,0,.16.02.25.02.2,0,.41-.03.6-.09.17-.05.32-.17.41-.32.07-.14.12-.29.11-.45"/>
</svg>