<?xml version="1.0" encoding="UTF-8"?>
<svg id="Layer_2" data-name="Layer 2" xmlns="http://www.w3.org/2000/svg" viewBox="0 0 90 45">
  <defs>
    <style>
      .cls-1 {
        fill: #787878;
      }
    </style>
  </defs>
  <path class="cls-1" d="M36.78,9.56l-.72-.79s.04-.07.06-.1c.77.13,1.54.25,2.29.41.11.02.16.29.26.47.48.05.85-.11,1.08-.61.15-.34.36-.64.94-.6-.61.83-1.18,1.59-1.8,2.42-.27-.13-.71-.17-.67-.76,0-.13-.13-.31-.25-.4-.13-.09-.32-.1-.48-.15.03.15.03.31.09.44.23.49.1.75-.48.74.12.39.22.76.35,1.18h-.57c.08.09.13.18.21.23.21.12.33.29.11.46-.09.06-.33-.04-.48-.12-.12-.06-.2-.2-.3-.32-.47.77-1.11.96-1.93.63-.02,0-.03-.02-.05-.02-1.14-.03-1.34-.85-1.51-1.74-.12-.65-.93-.98-1.48-.62-1.72,1.13-2.88,2.7-3.65,4.58-.34.83-.69,1.66-1,2.5-.1.27-.14.58-.16.88-.03.72.29.99.99.77,1.76-.57,3.51-1.19,5.26-1.78.65-.22,1.3-.43,1.85-.61.17.12.32.29.38.26.18-.09.45-.24.46-.39.11-1.19.6-2.21,1.3-3.16.15-.2.31-.39.49-.56.29-.3.59-.56.49-1.06-.03-.13.13-.4.26-.45.16-.07.39.02.58.06.11.02.2.11.34.19-.44.51-.88,1.01-1.32,1.5.03.03.06.06.09.09.59-.65,1.17-1.3,1.77-1.94.45-.49.73-1.16,1.48-1.34.12-.03.2-.21.3-.32.22-.24.34-.65.8-.41.02.01.07-.01.09-.03.99-.57,2.13,0,3.12-.52-.02.08-.04.15-.06.23.2.16.38.37.61.48.59.28,1.29.32,1.76.87.13.15.42.17.58.22.16.42.3.81.4,1.06.04.3.06.48.09.66l.18.02c.86-1.48,1.3-3.21,2.61-4.62.04.18.06.31.1.47.37-.45.36-.72-.01-.94.5-.27.62-.13.65.57.52-.12,1.06-.27,1.61-.37.13-.02.4.11.4.19.01.15-.1.33-.2.45-.12.14-.29.24-.52.43.83.23.62.77.45,1.21-.25.65-.58,1.27-.89,1.9-.16.32-.34.64-.51.96l.09.12c.71-.3,1.45-.56,2.13-.91,1.76-.92,3.5-1.88,5.25-2.82.78-.42,1.55-.86,2.36-1.21.32-.14.73-.1,1.1-.08.27.01.54.15.82.17.15.01.31-.09.46-.16.24-.12.47-.31.72-.35.15-.02.34.18.51.29-.13.13-.25.31-.41.37-.52.19-.95.5-1.39,1.14.18-.08.26-.14.35-.16.13-.03.26-.04.39-.06-.02.15-.02.32-.07.45-.03.08-.15.12-.24.17-.89.53-1.8,1.02-2.65,1.6-1.64,1.13-3.37,2.1-5.19,2.91-.23.1-.45.21-.76.36,1.56,1.86,3.52,3.2,5.36,4.69.1-.18.19-.34.28-.51.04,0,.08.01.13.02.01.21.02.42.03.63.1-.4.24-.8-.15-1.15-.25-.22-.28-.45-.18-.8.17-.59.21-1.21.34-1.82.07-.31.22-.6.33-.9.04.01.09.03.13.04-.16.82-.32,1.64-.48,2.46.04,0,.09.02.13.02.2-.96.39-1.91.6-2.9-.5-.16-.99-.32-1.51-.49.21-.33.36-.58.55-.87-.22,0-.39.04-.52-.01-.12-.04-.21-.18-.31-.27.12-.08.24-.21.37-.23.15-.02.31.06.5.1-.03-.18-.06-.31-.09-.46.73.22,1.71-.22,2.16-.96.2-.34.42-.49.78-.22.05.04.16-.02.25-.04-.03-.13-.06-.27-.1-.4.46-.15.58-.06.77.65,1.9.24,3.73-.69,5.78-.36-.34.14-.55.24-.77.33v.09h1.22s.02.07.03.1c-.15.06-.31.1-.45.18-.3.16-.58.36-.88.51-.24.11-.5.16-.75.24-.19.05-.38.1-.56.25l.83-.06s.01.06.02.09c-.82.19-1.64.38-2.46.57-.58.14-1.18.23-1.75.41-.21.07-.48.27-.54.47-.21.64-.35,1.31-.53,2.03.89-.08,1.71-.15,2.54-.22,0,.07.01.14.02.21h-1.27c0,.06,0,.12-.01.18.43.04.86.09,1.28.12.28.02.57,0,.85.02.1,0,.19.13.28.2-.1.07-.19.18-.3.19-.2.03-.4,0-.61,0,0,.05,0,.1-.01.14.14.05.28.11.42.16.02.17.05.33.08.56-.26.03-.55.06-.82.09,0,.05-.02.09-.02.14.19.06.38.12.56.18-.92.14-1.85.28-2.77.45-.15.03-.31.2-.39.35-.09.16.04.45-.31.45-.01,0-.04.09-.04.13-.14.9.89,1.92,1.7,1.6.55-.22,1.11-.34,1.66-.5,1.53-.46,3.06-.93,4.59-1.38.15-.05.32-.05.5,0-.75.32-1.51.64-2.26.95.02.06.04.12.05.17.18-.05.36-.1.54-.16.02.03.03.06.04.1-.29.13-.59.25-.87.4-.32.17-.82.11-.89.65,0,.08-.22.13-.34.19-1.63.74-3.33,1.1-5.11,1.29-.84.09-1.48-.11-2.19-.44.25.2.49.4.74.6-.03.05-.06.11-.09.16-.4-.18-.82-.33-1.18-.56-.38-.24-.66-.22-.93.15-.18.24-.38.46-.58.69.04.04.08.09.13.13.21-.14.42-.27.66-.43.09.11.19.23.23.27-.88.92-1.74,1.8-2.59,2.69.04.04.08.08.12.12.42-.43.85-.85,1.26-1.28.2-.21.36-.44.71-.28.08.03.28-.08.34-.17.12-.19.19-.42.28-.64.14-.34.35-.47.7-.24.08.05.21.03.31.04.15.01.3.02.6.04-.34.59-.61,1.06-.89,1.54-.05-.02-.09-.03-.14-.05,0-.09-.02-.17-.03-.26-.44.49-.87.98-1.31,1.46,0,.01.01.02.02.04.16-.12.32-.25.49-.37.02.02.03.04.05.06-1.4,1.62-2.8,3.23-4.19,4.84v-1.1s-.09,0-.14,0c-.81,2.27-.64,4.62-.46,6.97-.05.02-.1.04-.15.05-.18-.32-.36-.64-.54-.96-.02,0-.04.02-.06.03.1.78.2,1.55.3,2.33-.03.01-.05.03-.08.04-.16-.23-.32-.45-.49-.68-.04.01-.07.02-.11.03.05.2.09.41.16.7-.24-.17-.41-.29-.6-.42-.51.71-.7-.21-1.15-.21.09.14.16.26.25.4-.82-.26-.99-.64-1.61-3.56-.21.36-.22.75.03,1.59.15.52.35,1.03.54,1.55-.04.03-.07.05-.1.08-.11-.17-.27-.33-.32-.51-.24-.9-.47-1.82-.67-2.73-.05-.21,0-.43,0-.65.05-1.16.13-2.32.14-3.48,0-.48-.18-.96-.27-1.45-.05,0-.11,0-.17,0-.07.58-.12,1.16-.23,1.73-.15.73-.34,1.46-.56,2.17-.2.62-.7,1.01-1.16,1.47-.96.95-1.8,2.02-2.72,3.01-.36.39-.74.92-1.19,1.01-1.29.27-2.52.97-3.89.73-1.01-.18-2.01-.47-3.01-.72-.1-.03-.18-.11-.24-.28l.79.1s.03-.05.04-.08c-.27-.12-.54-.24-.82-.37.02-.06.05-.11.07-.17l.93.42s.06-.08.1-.12c-.28-.22-.53-.49-.84-.66-.56-.31-1.03-.68-1.24-1.3-.07-.2-.13-.4-.18-.61-.04-.17-.07-.33-.11-.48-.19.1-.33.18-.54.3.12.38.25.8.4,1.29-.64-.12-.53-.68-.81-1-3.5,1.91-7.07,3.6-11.12,3.97.77-.18,1.53-.36,2.3-.54,0-.06,0-.12,0-.18-.13-.02-.28-.08-.4-.05-.69.17-1.39.35-2.07.57-.28.09-.51.3-.78.43-.13.06-.28.09-.43.1-.91.05-1.82.09-2.72.15-.77.05-1.54.15-2.25-.25-.14-.08-.18-.32-.25-.5-.04-.11-.01-.31-.09-.35-.41-.25-.19-.59-.1-.85.04-.12.37-.19.58-.21.4-.04.86.1,1.19-.06.54-.27,1.05-.06,1.57-.1.09,0,.26-.17.25-.19-.08-.16-.19-.29-.3-.45.54-.2.68-.7.78-1.25.13-.75.32-1.49.43-2.25.1-.68.13-1.36.12-2.06-.2.73-.4,1.46-.61,2.18-.06,0-.12-.02-.19-.02,0-.23-.04-.47,0-.7.36-1.9.74-3.79,1.11-5.69.02-.08,0-.16,0-.29h-.84s-.01-.06-.02-.09c.14-.08.29-.16.43-.25-.01-.05-.03-.09-.04-.14-.18.05-.38.07-.54.15-.22.12-.39.33-.62.42-.12.05-.31-.06-.47-.1.09-.13.15-.31.27-.38.26-.13.55-.19.89-.3-.15-.16-.23-.26-.34-.38,1.33-.94,2.75-1.7,4.34-2.34-.46-.22-.91-.52-1.4-.65-.62-.16-1.03-.51-1.32-1.05-.63-1.16-.65-2.42-.51-3.67.14-1.25.5-2.45,1.14-3.55.03-.05.08-.09.17-.19.03.24.05.41.09.72.23-.38.41-.66.56-.96.99-1.96,2.33-3.65,4.02-5.06.87-.72,1.49-.96,2.95-1.35h-.98c0-.06,0-.12,0-.18.81,0,1.62-.04,2.43-.02.86.03,1.56.46,2.17,1.03.6.56,1.18,1.15,1.77,1.73.03-.03.05-.07.08-.1M54.44,26.14c.2-.15.34-.24.46-.35,1.15-1.07,2.29-2.14,3.45-3.2.19-.18.41-.35.65-.46.36-.17.74-.28,1.23-.45-.52-.37-.9-.64-1.28-.91-.37-.26-.52-.69-.85-.99-1.09-1.01-2.1-2.1-3.14-3.16-.23-.24-.49-.45-.73-.68-.05.05-.1.1-.14.15,1.39,1.4,2.78,2.8,4.17,4.2-.25-.02-.44-.1-.58-.23-.79-.69-1.55-1.42-2.36-2.09-.96-.79-1.83-1.64-2.53-2.69-.24-.36-.66-.62-1.08-1.01-1.47,3.26-2.87,6.38-4.27,9.48.23.15.45.34.7.45.26.12.56.14.84.23.09.03.19.16.19.24.06.82.45,1.47,1.08,2.1-.13-1.03-.64-1.85-.62-2.84.01-.49-.03-.95.14-1.42h.88c.07-.14.14-.27.22-.41,1.23.65,1.56.66,1.98.07.87.1.84.11.98.98.16.98.4,1.95.63,2.99M46.02,19.16s-.07-.06-.1-.09c-.5.45-1.03.89-1.5,1.37-.68.68-1.47,1.09-2.44,1.09-.15,0-.3.04-.45.05-1.35.13-2.67,0-3.92-.52-.24-.1-.46-.28-.69-.42l.05-.1h1.03c-.4-.55-.84-.95-1.25-1.39-.42-.44-.79-.43-1.18.08.22-.05.44-.09.67-.14.01.05.03.09.04.14-2.16.82-4.44,1.39-6.4,2.92.65.1,1.19.15,1.72.26.51.11.99.29,1.49.44-.01.04-.02.08-.04.12-3.37-.73-6.19-.65-7.29.28.35-.09.61-.14.86-.22,2.05-.64,4.08-.5,6.09.19.99.34,1.91.8,2.56,1.67.48.64.53,1.25.06,1.89-.29.4-.68.73-1.06,1.05-.34.29-.73.54-1.07.79.92.45,1.8.87,2.69,1.31.56-1.19,1.11-2.35,2.3-3-.68,1.1-1.48,2.12-1.89,3.19.56-.68,1.2-1.46,1.83-2.25.26-.33.61-.66.68-1.03.11-.62.46-1.05.84-1.5.43-.51,1.1-.8,1.34-1.49.03-.09.29-.1.44-.15.03.06.06.12.09.18.47-.86,1.29-.48,1.96-.63.28-.06.58-.09.85-.17.19-.06.34-.24.52-.28.18-.03.38.05.6.08-.1.21-.15.32-.21.45.42.17.7.15.8-.33.04-.21.13-.41.2-.62.41-1.19.83-2.38,1.24-3.58-.06-.02-.12-.05-.18-.07-.49,1.22-.97,2.45-1.45,3.67-.06-.02-.12-.04-.18-.07.18-.55.37-1.11.55-1.66-.04-.01-.08-.03-.11-.04-.23.56-.46,1.12-.7,1.68-.03-.01-.06-.03-.09-.04.23-1.03.46-2.06.7-3.09M38.64,31.84c-.25,1.06-.3,2.1.31,3.05.47.73,1.53,1.21,2.16.9.68-.34,1.38-.7,1.95-1.19.64-.55,1.19-1.22,1.7-1.9.75-1.02,1.53-2.05,1.78-3.33.09-.45.14-.94.09-1.39-.04-.39.12-1-.6-1.02.05-.1.09-.2.21-.44-.4.09-.67.15-.94.21-.79-.44-1.52-.03-2.23.25-.81.32-1.31,1.1-1.27,1.81.15-.06.29-.11.44-.17-.06,1.64-.3,2.49-.8,2.75.05-.62.1-1.22.15-1.82-.05,0-.1-.01-.15-.02-.4.87-.37,1.82-.38,2.77-.08-.14-.16-.28-.29-.52-.1.34-.18.57-.25.83-.11-.06-.2-.1-.3-.16v.65s-.1,0-.15.01c-.18-.44-.35-.89-.53-1.33-.04.01-.07.02-.11.04.02.37.04.73.06,1.1-.05.02-.11.03-.16.05l-.7-1.12ZM39.47,16.71c-.31.16-.58.33-.87.44-.31.11-.35.31-.33.58.09,1.11,1,1.78,2.09,1.42.62-.2,1.3-.46,1.77-.89,1.1-1.03,2.13-2.15,3.12-3.3.53-.62.72-1.42.63-2.26-.01-.12-.05-.26-.12-.36-.08-.14-.2-.25-.28-.35-.38-.05-.77-.11-1.16-.16-1.15-.15-2.23.47-2.59,1.53h.46c-.43.77-.45,1.64-1.15,2.23.12-.51.25-1.02.37-1.53-.06-.02-.12-.03-.18-.05-.22.72-.45,1.44-.67,2.16-.05-.04-.11-.08-.16-.12-.23.34-.44.68-.69,1.06-.08-.15-.14-.25-.22-.4M28.12,35.2c-.02-.07-.04-.14-.06-.21.25-.09.49-.19.75-.28,1.48-.52,2.95-1.07,4.44-1.56.71-.23.8-.92,1.26-1.31-.42-.3-.75-.62-1.14-.8-.4-.18-.86-.22-1.4-.35.13.19.19.29.19.29-1.78.25-3.58.51-5.37.74-.26.03-.53-.04-.87-.07-.4.63-.8,3.35-.57,4.25.34,0,.67.02,1,0,.17-.01.34-.1.5-.16.27-.11.53-.28.8-.33,1.04-.17,2.32-.61,2.79-1-.74.25-1.53.52-2.32.79M26.72,25.29c-.08.84-.11,1.53-.21,2.21-.18,1.17-.19,1.17.98.86.24-.06.49-.07.74-.1l.02.16c-.57.15-1.14.3-1.71.45.13.12.22.12.32.12,1.42-.13,2.72-.65,4.01-1.19.55-.23,1.09-.52,1.56-.88,1.05-.81.96-1.41-.27-1.84-1.88-.65-3.73-.36-5.42.22M46.3,23.54c.38.05.58.08.82.11.42-.91.86-1.84,1.29-2.78-.04-.02-.07-.04-.11-.06-.12.16-.23.31-.35.47-.02,0-.03-.02-.05-.02.27-.69.54-1.39.81-2.08-.05-.02-.1-.04-.15-.06-.06.11-.12.23-.17.34-.43,1.08-.86,2.17-1.29,3.25-.05.12-.08.27-.17.35-.17.16-.38.29-.63.46M35.33,34.06c-1.55,1.45-3.6,1.82-5.25,2.9,1.03-.36,2.04-.74,3.04-1.16.64-.27,1.27-.59,1.88-.91.27-.14.45-.38.33-.84M56.2,25.46c-1.01.33-1.66.98-1.43,1.36.48-.45.95-.91,1.43-1.36M23.2,26.47c-.05-.03-.11-.06-.16-.09-.09.14-.22.26-.25.41-.06.32-.05.65-.09.98-.04.31-.1.61-.15.92.04,0,.08.01.11.02.18-.74.36-1.49.54-2.23M55.24,35.12c-.07-.52-.13-.97-.2-1.48-.13.5-.24.9-.35,1.32.17.05.33.1.54.16M35.03,26.37c-.41.46-.81.93-1.22,1.39.58-.33,1.15-.65,1.22-1.39M46.76,22.37c.06.02.12.04.18.06.16-.47.31-.94.47-1.4-.06-.02-.13-.04-.19-.06-.16.47-.31.94-.47,1.4M33.21,27.7c-.03-.05-.07-.11-.1-.16-.42.25-.85.5-1.27.75.03.05.07.11.1.16l1.27-.75ZM34.33,17.21s-.03-.09-.04-.13c-.5.15-1,.3-1.5.45.01.04.02.08.03.12.5-.15,1-.29,1.51-.44M25.56,22.3c.23.54.51.62.83.26-.27-.09-.53-.17-.83-.26M66.96,29.61c.8.15,1.6.28,2.38.47.27.07.52.28.76.46.36.26.71.55,1.06.83.04-.05.09-.1.13-.16-.21-.18-.42-.36-.63-.54l.03-.08c.19.06.39.09.56.2.91.57,1.12,1.74.42,2.54-.57.65-1.19,1.26-1.85,1.82-.19.16-.55.12-.83.19-.52.11-.99.15-1.41.66-.34.42-1.08.54-1.67.72-1.84.57-3.72.75-5.64.61-.32-.02-.66.04-.85-.41-.09-.2-.48-.27-.73-.4-.38-.21-.77-.4-1.13-.64-.15-.1-.36-.34-.32-.45.14-.43-.12-.51-.41-.64-.17-.08-.31-.22-.46-.33.02-.04.05-.08.07-.11.25-.02.51-.04.87-.07-.14-.18-.21-.28-.29-.37-.33-.36-.21-.73.26-.9.16-.06.28-.24.46-.4.17,0,.4.01.63,0,.21-.01.42-.06.63-.09-.02.84.03.88.67.55.45.31.86.61,1.29.89.78.52,1.64.51,2.51.31.75-.17,1.47-.42,2.22-.61.53-.14,1.07-.24,1.61-.35.8-.16,1.29-.69,1.77-1.45-.63-.12-1.17-.25-1.72-.31-1.24-.12-2.5-.07-3.7-.5-.16-.06-.38.07-.58.11,0,.07,0,.14,0,.21.94.22,1.89.44,2.83.66-1.46.03-2.84-.23-4.06-1.04-.44-.29-.82-.7-1.18-1.1-.38-.43-.41-.98-.3-1.52.23-1.11.7-2.12,1.59-2.82.93-.72,1.88-1.51,2.96-1.91,1.15-.43,2.27-.93,3.4-1.39.59-.24,1.2-.23,1.78.19-.51.62-1.26.68-1.91.93.08.21.14.38.23.6.38-.13.81-.29,1.25-.44.03.06.06.12.1.18-.27.19-.52.44-.82.58-1.89.89-3.43,2.24-4.89,3.69-.17.17-.26.44-.43.75.98.25,1.92.49,2.87.73,0,.04,0,.08-.01.12l-2.36-.44c-.02.08-.03.17-.05.25,1.49.58,3.1.64,4.65.96.01-.04.02-.09.04-.13-.6-.16-1.2-.32-1.8-.48.01-.06.03-.11.04-.17M60.15,36.66c1.25.63,6.2.03,7.23-.9-2.4.68-4.76,1.11-7.23.9M55.36,6.45c-.4.09-.66.16-.69.56-.04.43.31.58.58.7.3.13.82-.42.72-.78-.05-.2-.39-.32-.61-.47M44.14,7.39c-.58,0-.87.18-.87.46,0,.4.32.43.6.44.39,0,.56-.29.56-.62,0-.12-.25-.24-.29-.28M19.18,39.7c.48.52,1.61.33,2.45-.32-.9.12-1.68.22-2.45.32M19.82,27.78c.29-.21.51-.37.73-.54-.19-.13-.4-.38-.56-.35-.27.05-.51.28-.76.44.17.13.34.26.58.45M22.4,39.76s.07.1.11.15c.78.15,1.46-.09,2.08-.59-.54.16-1.08.31-1.66.48v-.44s-.07-.05-.11-.08c-.14.16-.28.31-.42.47M65.12,5.73c.35.08.62.15.91.19.03,0,.17-.27.13-.32-.17-.22-.39-.4-.6-.61-.16.28-.25.42-.44.73M61.57,14.34c-.05-.05-.1-.11-.14-.17-.22.07-.44.12-.64.22-.09.05-.13.21-.19.32.12.05.3.18.36.14.23-.14.41-.34.61-.51M21.26,27.16c.3-.07.61-.13,1.02-.22-.51-.42-.75-.37-1.02.22M63.94,7.1c.01.06.03.11.04.17.29-.07.59-.14.88-.21-.4-.37-.7-.32-.92.04M63.51,6.29c-.24-.16-.38-.31-.45-.29-.16.07-.29.22-.43.34.09.08.19.23.27.22.17-.03.32-.13.61-.27M71.4,23.13c-.01-.07-.02-.15-.04-.22-.28.03-.57.06-.85.09,0,.06.01.12.02.18.3.2.6.25.87-.05M35.6,23.96s-.03-.08-.05-.12c-.16.1-.43.19-.45.31-.02.16.13.37.26.52.07.08.27.11.38.07.4-.16.76-.16,1.15.08.06.04.33-.21.46-.37.03-.04-.11-.32-.2-.33-.51-.08-1.03-.11-1.54-.16M43.86,21.54c-.49-.06-.93-.07-1.21.35-.07.11.02.49.09.51.31.07.65.12.94.03.49-.15.17-.54.17-.89M38.38,24.5c.72-.23.9-.91,1.34-1.52-1.08.1-.96,1.01-1.34,1.52"/>
</svg>