<?xml version="1.0" encoding="UTF-8"?>
<svg id="Layer_2" data-name="Layer 2" xmlns="http://www.w3.org/2000/svg" viewBox="0 0 90 45">
  <defs>
    <style>
      .cls-1 {
        fill: #787878;
      }
    </style>
  </defs>
  <path class="cls-1" d="M35.15,9.31h2.59l.76-2.29.75,2.29h2.59l-2.09,1.51.8,2.43-2.05-1.47-2.05,1.47.79-2.43-2.09-1.51ZM50.28,10.82l-.8,2.43,2.05-1.47,2.05,1.47-.8-2.43,2.09-1.51h-2.59l-.76-2.29-.76,2.29h-2.59l2.09,1.51ZM42.85,9.04l-1.37,4.19,3.53-2.53,3.53,2.53-1.38-4.19,3.61-2.61h-4.46l-1.3-3.94-1.3,3.95h-4.46l3.6,2.6ZM49.06,22.52l-.33,1.01.85-.61.86.61-.34-1.01.87-.63h-1.08l-.31-.95-.32.95h-1.08l.87.63ZM54.49,13.94s1.81,13.49-9.5,19.73v.06l-.05-.03-.05.03v-.06c-11.31-6.24-9.5-19.73-9.5-19.73h19.11M50.47,26.16c2.92-5.1,2.19-10.72,2.19-10.72h-15.6s-.84,6.37,2.79,11.69c.37-.17.74-.32,1.1-.45-.42-.2-.73-.56-.73-1.13,0-1.14,1.19-1.71,2.2-2.02l.16-.72c-.39.42-.92.74-1.62.74-.92,0-1.8-.57-1.8-2.18,0-1.83,1.12-4.74,3.48-4.74.77,0,1.1.3,1.1.69v.08l.15-.7h1.95l-1.34,6.28c.83-.3,1.33-.76,1.7-1.94h0l.92-4.34h1.95l-.18.84c.48-.41.99-.84,1.64-.84.61,0,.93.5.93,1.01,0,.48-.31.99-.97.99-.76,0-.38-.89-.78-.89s-.65.2-.99.51l-1.08,5.14h-1.95l.16-.74c-.47.49-1,.71-1.47.84l-.2.97c-.14.68-.38,1.16-.66,1.5.97-.14,1.9-.19,2.75-.2-.35.07-.72.15-1.1.25-1.43.3-2.69.81-3.8,1.44-.04.02-.08.04-.12.07-.2.11-.4.23-.59.35-.04.02-.08.05-.12.08.18.22.39.44.59.67,3.27-2.53,6.44-2.8,9-2.85-2.16.45-5.12,1.26-7.9,3.92.38.34.79.67,1.23.98,1.66-1.84,4.03-3.77,7.03-4.61M40.96,25.37c0,.19.16.45.46.45s.61-.41.78-1.21l.08-.39c-.69.25-1.33.61-1.33,1.15M43.61,17.99c-.01-.15-.12-.5-.55-.5-1.15,0-1.89,2.43-1.89,3.7,0,1.04.43,1.05.68,1.05.37,0,.89-.36,1.08-1.05l.69-3.2ZM22.53,41.14c-.13.55-.37.55-.49.55-.08,0-.37,0-.37-.3,0-.06,0-.09.08-.42h-1.31c-.04.15-.07.28-.07.44,0,1.07,1.28,1.09,1.61,1.09.52,0,1.06-.11,1.42-.48.33-.34.43-.77.59-1.46l1.03-4.46h-1.32l-.13.53c0-.17-.26-.63-.9-.63-.81,0-1.13.6-1.36,1.36-.16.53-.47,1.73-.47,2.24,0,.32.07.57.27.76.18.16.42.21.63.21.58,0,.89-.38,1.07-.61l-.27,1.16ZM22.99,39.17c-.06.26-.21.54-.52.54-.09,0-.33-.02-.33-.35,0-.12.03-.29.06-.4l.36-1.55c.11-.45.32-.53.51-.53.13,0,.35.05.35.34,0,.04,0,.09-.02.13l-.42,1.83ZM28.81,37.2c0-1.1-1.04-1.21-1.69-1.21-1.27,0-1.55.8-1.69,1.27-.07.23-.44,1.68-.44,2.16,0,.86.63,1.19,1.62,1.19,1.31,0,1.57-.65,1.73-1.11.12-.38.48-1.84.48-2.3M27.11,39.13c-.07.3-.14.59-.49.59-.25,0-.35-.16-.35-.34,0-.09.02-.18.03-.25l.41-1.76c.04-.2.12-.5.47-.5.2,0,.36.12.35.33,0,.06,0,.11-.02.17l-.4,1.76ZM28.81,40.51h1.31l1.34-5.8h-1.31l-1.34,5.8ZM33.85,36.56c-.17-.46-.7-.57-.98-.57-.89,0-1.12.67-1.28,1.25-.05.14-.52,2.01-.52,2.44,0,.81.71.9.94.9.57,0,.87-.38,1.06-.61l-.13.53h1.32l1.34-5.8h-1.32l-.43,1.86ZM33.25,39.15c-.06.25-.14.62-.49.62-.16,0-.34-.07-.34-.32,0-.09.03-.25.06-.35l.38-1.64c.05-.23.13-.57.48-.57.24,0,.35.16.35.35,0,.07-.02.14-.03.21l-.4,1.7ZM34.99,40.51h1.41l.57-2.44h.4c.18,0,.41.02.41.31,0,.07-.02.15-.06.35l-.21,1.04c-.06.26-.06.32-.06.36,0,.26.17.35.42.36l1.22.04v-.05c-.08-.03-.25-.09-.25-.35,0-.1.08-.51.11-.63l.18-.88c.03-.19.06-.3.06-.42,0-.53-.55-.63-.77-.67.43-.06.81-.2,1.04-.67.15-.3.27-.91.27-1.21,0-.95-.87-.95-1.69-.95h-1.69l-1.34,5.8ZM37.51,35.71c.44,0,.49,0,.58,0,.09,0,.27.02.27.25,0,.08-.09.6-.17.77-.13.3-.3.3-.6.3h-.39l.31-1.33ZM40.43,36.1l-.73,3.2c-.06.24-.07.41-.07.49,0,.68.54.8.86.8.59,0,.91-.33,1.12-.54l-.1.46h1.32l1.02-4.41h-1.32l-.67,2.91c-.07.29-.17.71-.53.71-.16,0-.31-.1-.31-.32,0-.1.02-.21.07-.42l.67-2.88h-1.33ZM43.71,39.01c-.05.17-.1.34-.1.54,0,.43.19.69.61.88.12.06.4.17,1.02.17.77,0,1.23-.25,1.44-.52.22-.27.34-.76.34-1.04,0-.48-.28-.67-.84-1.06-.05-.04-.45-.32-.46-.33-.16-.12-.25-.2-.25-.36,0-.02,0-.43.4-.43.32,0,.33.21.33.25,0,.09-.05.27-.07.35h1.24c.03-.15.07-.3.07-.45,0-.67-.67-1.01-1.53-1.01-.71,0-1.27.22-1.51.65-.1.18-.22.56-.22.81,0,.34.18.58.49.81.02.02.72.52.84.63.1.08.17.15.17.31,0,.12-.03.34-.19.44-.09.06-.2.06-.24.06-.14,0-.33-.05-.33-.28,0-.15.05-.3.09-.44h-1.27ZM48.65,34.71l-1.34,5.8h1.31l.74-3.24c.03-.14.1-.4.43-.4.17,0,.35.1.35.35,0,.06,0,.13-.02.2l-.72,3.1h1.3l.76-3.27c.02-.12.05-.25.05-.38,0-.61-.45-.83-.91-.83-.57,0-.88.34-1.08.58l.44-1.9h-1.31ZM52.75,40.51h1.41l.57-2.44h.4c.18,0,.41.02.41.31,0,.07-.02.15-.06.35l-.21,1.04c-.06.26-.06.32-.06.36,0,.26.17.35.42.36l1.22.04v-.05c-.08-.03-.26-.09-.26-.35,0-.1.08-.51.11-.63l.18-.88c.03-.19.06-.3.06-.42,0-.53-.55-.63-.77-.67.44-.06.81-.2,1.04-.67.15-.3.27-.91.27-1.21,0-.95-.87-.95-1.69-.95h-1.69l-1.34,5.8ZM55.27,35.71c.44,0,.49,0,.58,0,.09,0,.27.02.27.25,0,.08-.09.6-.17.77-.13.3-.3.3-.6.3h-.38l.31-1.33ZM61.23,37.48c.04-.16.07-.33.07-.49,0-.77-.78-.96-1.54-.96-.46,0-.88.07-1.18.23-.4.21-.5.46-.69,1.23h1.25c.12-.44.19-.64.56-.64.14,0,.35.02.35.25,0,.06-.06.34-.1.52-1.54.44-1.93.56-2.2.87-.27.31-.44,1.08-.44,1.36,0,.8.78.8.87.8.52,0,.89-.32,1.18-.57l-.11.46h1.5c-.07-.07-.12-.11-.12-.3,0-.07.02-.13.02-.2l.58-2.53ZM59.5,39.51c-.14.12-.31.26-.54.26s-.29-.12-.29-.27c0-.08.06-.55.27-.72.16-.12.53-.24.83-.33l-.27,1.06ZM61.26,40.51h1.31l1.34-5.8h-1.31l-1.34,5.8ZM63.31,40.51h1.31l1.34-5.8h-1.31l-1.34,5.8ZM65.99,36.11l-.13,4.45c-.02.59-.11.6-.95.58l-.18.97c.2,0,.39,0,.58,0,1.52,0,1.79-.29,2.52-1.94l1.78-4.07h-1.42l-1.03,3.02c-.13.38-.15.43-.24.85l.36-3.87h-1.31Z"/>
</svg>