<?xml version="1.0" encoding="UTF-8"?>
<svg id="Layer_2" data-name="Layer 2" xmlns="http://www.w3.org/2000/svg" viewBox="0 0 90 45">
  <defs>
    <style>
      .cls-1 {
        fill: #787878;
      }
    </style>
  </defs>
  <path class="cls-1" d="M59.71,21.54c-.1-.31-.03-.51.25-.69.24-.15.44-.37.63-.58.25-.27.28-.52.11-.77-.34.39-.64.84-1.24,1.04-.07-.66-.14-1.28-.2-1.9-.02-.24-.03-.48-.03-.73-.01-.8-.03-1.6-.03-2.41,0-.39.03-.79.02-1.18,0-.11-.08-.22-.12-.31-.33.43-.64.81-.93,1.21-.23.31-.46.61-.64.95-.65,1.24-.64,2.56-.35,3.88.1.44.3.86.47,1.32-.28.06-.55.13-.83.18-.07.01-.2-.05-.23-.11-.09-.17-.16-.36-.19-.55-.19-1.03-.39-2.06-.53-3.1-.08-.6-.15-1.22-.07-1.81.17-1.24.47-2.47.97-3.63.13-.3.2-.62.26-.95.02-.13-.07-.27-.12-.46-.16.11-.27.16-.35.25-.64.77-1.38,1.48-1.88,2.33-.93,1.56-1.28,3.22-.38,4.96.5.96.87,1.96.98,3.07-.11,0-.22.01-.33,0-.71-.1-1.41-.21-2.12-.3-.71-.09-1.42-.22-2.13-.2-1.06.02-1.87.51-2.28,1.55-.32.83-.46,1.7-.48,2.59-.02.94.01,1.89.46,2.75.77,1.5,2.07,2.2,3.72,2.25,1.32.04,2.46-.43,3.42-1.32.85-.78,1.4-1.74,1.66-2.86.1-.43.18-.9.12-1.33-.1-.75-.31-1.49-.47-2.23.42-.15.78-.28,1.16-.4.06-.02.17.03.21.08.52.69,1.13,1.32,1.36,2.2.16.63.22,1.25-.24,1.78-.42.49-.84.98-1.31,1.43-.79.75-1.63,1.42-2.62,1.91-.48.24-.98.44-1.47.66-.74.34-1.48.67-2.21,1.01-.21.1-.42.2-.63.29,0,.05,0,.09.01.14.17.02.35.1.51.06.82-.17,1.65-.32,2.44-.58.97-.32,1.89-.76,2.84-1.13.58-.23,1.11-.53,1.57-.96.62-.59,1.19-1.2,1.39-2.07.05-.21.17-.4.26-.6.03,0,.06.01.09.02-.05.39-.05.8-.17,1.17-.56,1.73-1.66,3.04-3.19,4-.53.33-1.05.67-1.61.95-.77.39-1.56.78-2.37,1.07-1.57.55-3.17,1-4.68,1.71-.3.14-.62.26-1.01.43.2.01.31.03.42.03,1.99-.07,3.96-.32,5.85-.92,2.52-.8,4.69-2.12,6.07-4.5.61-1.06,1.02-2.14,1.14-3.36.1-1.11-.11-2.17-.34-3.22-.16-.71-.41-1.41-.63-2.11M55.1,17.71c-.97-1.54-.96-2.72.49-4.4-.45,1.41-.69,2.84-.49,4.4M49.95,28.04c-1.03-.7-1.52-1.68-1.58-2.93.13-.63.23-1.28.4-1.9.2-.7.97-1.25,1.74-1.25.64,0,1.27.07,1.91.14.89.09,1.77.22,2.66.31.23.02.28.09.3.32.14,1.36-.46,2.39-1.52,3.13-1.14.8-2.35,1.52-3.53,2.25-.08.05-.27,0-.37-.07M55.47,27.4c-.98.92-2.12,1.41-3.47,1.34-.36-.02-.72-.13-1.08-.2,0-.03,0-.06,0-.09.52-.23,1.05-.44,1.55-.71.52-.28,1-.63,1.51-.95.89-.55,1.35-1.42,1.72-2.35.15-.38.23-.8.36-1.24.03.1.06.18.07.25.09.56.19,1.13.26,1.7.12.92-.27,1.64-.92,2.25M57.6,19.12c-.27-1.02-.11-1.98.69-2.72.05.75.08,1.53.15,2.3.08.76.21,1.5.27,2.28-.58-.5-.93-1.15-1.11-1.86M48.31,33.43c.3-.32.57-.74.65-1.16.14-.75-.01-1.5-.36-2.21-.22-.45-.48-.9-.39-1.44,0-.06-.1-.17-.18-.19-.06-.01-.18.05-.22.12-.35.52-.7,1.04-1.03,1.57-.23.36-.26.75-.07,1.26.34-.42.62-.77.9-1.12.2.48.4.94.59,1.41.16.39.08.63-.29.87-.4.26-.8.5-1.21.74-1.45.83-3.02,1.18-4.68,1.18-.91,0-2.13-.95-2.21-1.9-.04-.45-.12-.9-.13-1.35-.08-2.3-.09-4.61-.23-6.9-.09-1.4-.17-2.82-.68-4.16,0-.02.01-.06.01-.07,2.58.15,5.02-.14,7.13-1.86.07.65.13,1.23.19,1.81.04.01.06.02.08.02,1.56-.37,3.09-.83,4.37-1.86.22-.18.45-.36.7-.49.93-.51,1.61-1.24,2.07-2.2.65-1.35.85-2.71.15-4.1-.4-.79-.84-1.54-1.79-1.77-.14-.03-.34-.02-.46.06-.38.26-.75.54-1.08.86-.69.67-1.32,1.39-2.03,2.03-.41.37-.59.81-.68,1.31-.01.07.02.18.07.22.04.03.16,0,.22-.05.26-.2.52-.41.76-.63.8-.74,1.59-1.49,2.38-2.24.43-.41.68-.42,1.15-.07.04.03.08.07.12.11.46.42.72.96,1,1.5.54,1.05.05,2-.85,2.89.02-.09.03-.14.05-.19.22-.75-.15-1.46-.89-1.69-.79-.24-1.48,0-2.02.57-.8.85-1.06,1.9-1.01,3.05.01.23.14.54.03.67-.14.17-.45.21-.69.29-.37.12-.74.23-1.12.34-.13-.55-.13-1.14-.06-1.61.02-.12-.06-.26-.09-.38-.13.04-.27.07-.39.14-.13.08-.23.21-.35.3-1.9,1.43-4.08,1.79-6.38,1.65-1.03-.06-2.4-1.41-2.44-2.36-.03-.76-.08-1.51-.07-2.27,0-1.3.07-2.6.07-3.9,0-.43-.09-.87-.18-1.3-.05-.25-.26-.3-.41-.12-.31.37-.63.73-.91,1.13-.13.19-.18.44-.26.67.05.02.09.05.14.07.26-.24.52-.47.85-.76.05.34.12.59.13.84.02.48,0,.97,0,1.45-.02,1.48-.06,2.95-.06,4.43,0,1.04.34,1.95,1.17,2.62.25.21.5.42.76.63-.33.5-.66,1-.97,1.5-.17.28-.26.59-.04,1.03.35-.47.65-.87.99-1.31.09.26.21.48.25.71.17,1.24.39,2.48.47,3.73.14,2.3.17,4.6.29,6.9.03.68.19,1.35.32,2.02.09.42.38.77.77.89.6.18,1.17.47,1.83.48,1.18.02,2.3-.23,3.39-.61.57-.2,1.09-.53,1.6-.84.45-.28.9-.58,1.26-.95M48.91,16.49c.14-.81.93-1.49,1.84-1.49.08.02.26.05.42.12.56.25.59.48.22.97-.48.63-1.15.89-1.89,1.02-.39.07-.65-.22-.58-.61M37.94,28.4c-.54-.73-1.12-.85-1.9-.38-.25.15-.51.31-.78.43-.11.05-.3.04-.4-.03-.06-.04-.05-.27,0-.37.25-.49.52-.97.8-1.44.99-1.65.99-3.29-.02-4.93-.04-.07-.15-.11-.22-.16-.05.08-.12.15-.13.24-.1.64-.2,1.28-.26,1.93-.05.54-.08,1.1-.03,1.64.02.25.02.43-.1.64-.32.55-.65,1.09-.71,1.75-.05.65,0,1.26.37,1.8.25.36.58.47.98.27.36-.17.68-.41,1.04-.58.14-.07.35-.1.49-.05.69.27,1.16.91.49,1.69-.87,1.01-2.01,1.43-3.32,1.41-.16,0-.33-.05-.47-.13-.78-.43-1.4-1.03-1.71-1.89-.04-.11-.05-.27,0-.38.76-1.82.87-3.69.5-5.61-.04-.19-.05-.4-.01-.59.25-1.22.29-2.45.18-3.68-.09-1.1-.27-2.17-.89-3.11-.18-.28-.27-.69-.77-.72-.03.11-.07.24-.09.37-.06.47-.11.95-.16,1.42-.03.27-.08.55-.09.82-.07,1.63.27,3.2.87,4.71.06.15.09.32.08.48-.04.38-.11.76-.19,1.14-.27,1.32-.48,2.65-.3,4,.08.59.11,1.14-.19,1.69-.08.14-.01.37-.01.56.05.01.09.03.14.04.13-.16.26-.32.44-.54.27.76.61,1.38,1.14,1.89.47.44.95.91,1.62.95,1.35.08,2.56-.35,3.5-1.34.85-.89.89-2.92.15-3.93M35.64,23.32c.35.36.28.97-.22,1.76.08-.64.15-1.18.22-1.76M31.43,17.62c.77.56.87,3.16.51,4.74-.63-1.59-.97-3.11-.51-4.74M31.68,28.66c.14-.89.27-1.78.41-2.67.03,0,.07,0,.1.01.08.92-.09,1.8-.37,2.67-.04,0-.09-.01-.13-.02M41.46,12.68c1.97-.88,3.93-1.77,5.89-2.66.41-.19.81-.42,1.21-.62.5-.25,1-.48,1.6-.76-.08.39-.12.73-.23,1.04-.04.11-.22.19-.36.25-2.44,1.09-4.89,2.18-7.32,3.28-.42.19-.83.41-1.23.64-.57.32-1.17.63-1.43,1.31-.03,0-.07-.01-.1-.01,0-.12-.04-.25,0-.35.39-.95,1-1.68,1.96-2.11M38.57,12.4s-.07,0-.11,0c0-.13-.03-.27,0-.39.3-.97.89-1.72,1.84-2.11,1.43-.58,2.87-1.12,4.3-1.68.46-.18.91-.35,1.38-.51.4-.14.81-.27,1.22-.39.2-.06.32-.13.35-.36.03-.2.13-.38.21-.57.03,0,.06,0,.09.01.02.09.07.18.05.26-.11.48-.21.96-.35,1.44-.03.1-.18.18-.29.22-1.81.62-3.63,1.21-5.43,1.86-.76.27-1.49.66-2.22,1.01-.43.21-.75.52-.92.99-.03.08-.08.15-.12.22M46.04,27.03c-.29-.32-.43-.32-.77-.07-.32.23-.64.47-.91.75-.12.12-.13.36-.2.53-.04.1-.11.18-.16.27-.03,0-.07-.02-.1-.02-.08-.41-.15-.83-.24-1.25-.07-.33.17-.52.35-.69.37-.36.76-.69,1.18-1,.35-.27.69-.28.99.03.41.41.79.86,1.08,1.35.27.45.12.95-.12,1.48-.12-.13-.2-.22-.27-.32-.28-.36-.53-.73-.83-1.07M42.31,32.3c-.02-.61.06-1.23.13-1.83.05-.42.03-.56-.3-.73-.36-.18-.59-.14-.85.16-.04.04-.08.09-.18.19-.03-.5,0-.93.25-1.29.19-.26.47-.35.79-.28.34.07.62.27.65.61.04.42,0,.85-.04,1.27-.02.22-.11.43-.13.65-.08.62.39,1.02.99.83.54-.17.99-.44,1.09-1.07.02-.1.1-.19.15-.28.04.02.07.03.11.05-.07.7-.19,1.4-.58,1.98-.19.29-.58.51-.93.61-.6.18-1.14-.22-1.16-.87M40.08,26.46c.28-.5.62-.97,1.17-1.22.86-.4,1.73-.76,2.58-1.17.89-.43,1.76-.91,2.64-1.37.09-.05.22-.04.33-.06-.01.1.01.22-.04.3-.29.49-.63.9-1.24,1.03-.31.07-.58.32-.87.46-1.07.51-2.15,1.01-3.22,1.52-.44.21-.89.39-1.15.84-.05.08-.15.12-.22.18-.04-.01-.07-.02-.1-.04.04-.16.06-.34.14-.48M33.6,13.39c.22-.34.15-.69-.09-.94-.14-.14-.45-.13-.74-.2.11-.27.21-.64.41-.95.22-.33.83-.17.96.22.17.54.14,1.09-.08,1.62-.19.46-.42.9-.63,1.34-.05.1-.13.2-.13.3-.01.23-.07.5.03.68.14.23.43.22.69.14.31-.09.56-.24.71-.54.07-.15.17-.29.27-.47.21.75-.53,2.05-1.21,2.22-.6.15-.98-.12-1.02-.73-.05-.81.24-1.53.58-2.24.07-.15.15-.3.24-.44M44.26,22.2c-.32.54-.55.58-1,.17-.5-.46-.54-.69-.26-1.33.09-.2.19-.26.37-.13.23.17.46.34.69.51.1.08.2.16.31.24.11-.27.2-.51.31-.75.08-.18.2-.19.34-.07.24.21.5.41.7.65.22.27-.02.52-.12.76-.04.1-.12.18-.2.26-.17.18-.35.28-.54.03-.14-.18-.29-.35-.48-.58-.07.16-.09.21-.12.25M34.66,18s.26-.07.31-.02c.33.33.66.65.92,1.03.12.18.12.48.08.71-.04.25-.19.48-.33.78-.71-.36-1.14-.86-1.24-1.57-.04-.3.14-.63.25-.94M43.53,13.56c-.09.31-.16.62-.26.92-.12.41-.14.81.07,1.18.2.35.45.41.8.2.11-.07.22-.14.35-.23.28.7-.12,1.39-.73,1.51-.08.02-.21-.01-.26-.07-.32-.35-.59-.74-.6-1.25-.02-.81.08-1.59.54-2.29.03,0,.05.01.08.02M52.58,17.58c-.03.15-.07.3-.09.45-.04.31-.12.63-.07.93.08.5.3.58.76.31.03.12.1.24.08.33-.06.28-.13.56-.25.82-.16.35-.49.38-.77.1-.27-.27-.39-.62-.35-.96.07-.58.23-1.16.37-1.73.03-.11.15-.2.23-.29.03.01.07.03.1.04M37.61,34c.31.23.61.46.9.71.05.04.09.17.07.24-.1.32-.2.63-.33.94-.08.18-.23.18-.38.06-.23-.19-.47-.37-.68-.58-.08-.09-.09-.26-.12-.37.06-.3.11-.57.16-.84.05-.24.18-.3.37-.16M30.02,24.23c.06-.11.1-.23.16-.37.22.37.1,1.32-.18,1.57-.4.35-.98.09-1.16-.54-.2-.71-.16-1.42.04-2.12.08-.27.2-.52.3-.78.03,0,.07.02.1.02-.01.08-.02.17-.03.25-.1.43-.19.86-.29,1.29-.07.31.05.57.24.79.25.29.64.23.82-.12M35.8,34.09c.33.25.66.51.97.79.07.06.06.2.09.3-.02.13-.03.26-.07.36-.29.7-.46.74-1.01.23-.22-.21-.4-.38-.36-.77.03-.25-.02-.52.05-.79.06-.22.19-.23.34-.12M38.59,16.81c-.17.31-.42.28-.62-.01-.31-.45-.41-.96-.37-1.51.06-.75.4-1.62.87-2.15.03.01.06.02.09.03-.1.25-.19.5-.3.74-.19.43-.42.86-.26,1.36.01.04.02.09.03.13.18.54.44.6.85.14.04.09.11.17.09.23-.11.35-.2.72-.37,1.04M51.03,25.1c.37.06.44-.29.61-.57.05.1.11.15.11.21,0,.55-.11,1.08-.49,1.5-.18.2-.55.17-.72-.1-.18-.29-.33-.63-.39-.96-.16-.86.04-1.68.43-2.46.05-.09.12-.16.19-.24.02.01.05.03.07.04-.05.16-.08.32-.15.48-.18.45-.27.91-.19,1.39.05.31.12.67.51.73M45,4.5c-9.93,0-18,8.08-18,18s8.07,18,18,18,18-8.07,18-18S54.93,4.5,45,4.5M45,39.23c-9.22,0-16.73-7.5-16.73-16.73s7.5-16.73,16.73-16.73c5.66,0,10.67,2.83,13.7,7.14-.02.04-.04.08-.07.11-.17.2-.38.29-.67.15-.65-.31-1.1-.08-1.32.62-.12.38-.24.76-.07,1.16.06.13.12.25.19.37.04,0,.08,0,.12,0,.07-.27.14-.54.21-.82.11-.44.34-.55.77-.4.49.17.81-.02,1.17-.6.01-.02.02-.04.03-.06,1.69,2.61,2.67,5.72,2.67,9.06,0,9.22-7.5,16.73-16.73,16.73"/>
</svg>