<?xml version="1.0" encoding="UTF-8"?>
<svg id="Layer_2" data-name="Layer 2" xmlns="http://www.w3.org/2000/svg" viewBox="0 0 90 45">
  <defs>
    <style>
      .cls-1 {
        fill: #7a7a7a;
      }
    </style>
  </defs>
  <path class="cls-1" d="M28.42,24.96c0,.17.14.43.28.48.15.06.46-.02.56-.15.35-.42.64-.89.96-1.35.07-.1.14-.21.28-.44.04.57.03.99.11,1.39.04.2.23.5.4.53.22.04.49-.12.72-.23.11-.05.16-.21.26-.28.14-.1.31-.23.46-.22,1.23.14,1.94-.51,2.51-1.43.19-.31.47-.57.73-.83.51-.51,1.08-.96,1.54-1.51.5-.59.91-1.25,1.43-1.98,0,.24,0,.38,0,.52-.01.48-.08.96,0,1.43.04.28.24.62.49.76.35.21.68-.05.91-.33.25-.32.49-.65.69-1,1-1.72,1.98-3.45,2.97-5.18.12-.21.27-.41.41-.61.04.02.09.03.13.05,0,.12,0,.23-.02.35-.19,1.09-.4,2.17-.55,3.27-.05.35,0,.74.11,1.08.15.45.53.56.9.25.35-.29.68-.63.9-1.01.67-1.13,1.27-2.29,1.91-3.44.05-.1.13-.19.2-.28.06.77-.03,1.49-.03,2.22,0,.54.03,1.09.19,1.6.18.57.67.7,1.2.39.34-.2.65-.45.95-.71,1.29-1.13,2.1-2.57,2.77-4.08.09-.21.21-.41.32-.62.08.07.12.08.13.11.03.07.05.15.07.23.21.81.46,1.61,1.07,2.25,1.15,1.23,2.8,1.08,3.99-.09.09-.09.07-.28.1-.42-.17,0-.36-.05-.5,0-.2.08-.35.24-.54.35-1.05.63-1.96.46-2.75-.46-.55-.65-.63-1.42-.84-2.18-.09-.32-.32-.78-.59-.85-.42-.11-.58.37-.76.69-.65,1.19-1.24,2.41-1.97,3.55-.38.59-.97,1.06-1.52,1.53-.36.31-.56.23-.63-.23-.05-.33-.06-.67-.05-1,.03-.86.11-1.73.1-2.59,0-.25-.16-.61-.36-.71-.32-.16-.6.1-.75.39-.5.92-.98,1.86-1.5,2.77-.38.66-.83,1.28-1.25,1.92-.08-.03-.15-.05-.23-.08,0-.26-.04-.52,0-.77.12-.71.31-1.41.4-2.12.08-.64.12-1.3.08-1.94-.03-.38-.41-.5-.76-.29-.18.11-.34.27-.45.44-.36.58-.68,1.18-1.02,1.77-.89,1.54-1.78,3.08-2.68,4.62-.1.18-.29.31-.43.46-.06-.02-.13-.05-.19-.07.05-1.08-.03-2.18.2-3.22.29-1.32.82-2.59,1.29-3.87.05-.15.39-.19.59-.31.18-.1.34-.23.51-.35-.15-.14-.3-.28-.46-.41-.06-.04-.15-.04-.23-.07,0-.12-.02-.22,0-.3.36-1.17.72-2.33,1.09-3.5.33-1.07.69-2.14.99-3.22.05-.18-.16-.43-.24-.65-.17.15-.43.26-.51.44-.46,1.08-.93,2.16-1.3,3.27-.46,1.35-.86,2.73-1.26,4.1-.09.29-.23.47-.53.57-.71.25-1.42.5-2.11.8-.23.1-.75.13-.57.52.17.37.58.17.89.05.62-.24,1.24-.47,1.86-.71.3,1.37-2.08,6.27-3.5,7.14.13-.58.31-1.08.35-1.59.05-.71.03-1.43-.05-2.13-.05-.38-.37-.44-.66-.15-.18.18-.32.41-.43.64-.56,1.2-1.1,2.41-1.65,3.61-.05.11-.14.19-.15.21-.65-.5-1.24-.98-1.88-1.42-.39-.27-.64-.15-.79.29-.1.31-.13.63-.24.93-.27.75-.58,1.48-.87,2.22-.1-.03-.21-.06-.31-.09.2-.64.39-1.29.62-1.93.18-.51.47-1,.62-1.52.72-2.53.59-5.07-.05-7.59-.27-1.07-.82-2.05-1.69-2.79-1.37-1.15-2.55-.84-2.86.86-.31,1.72-.37,3.49-.45,5.24-.06,1.29.01,2.58.02,3.88,0,1.04-.06,2.08,0,3.12.06,1.24.09,2.45-.64,3.57-.33.51-.51,1.12-.66,1.7-.59,2.23-1.18,4.47-1.68,6.72-.26,1.18-.57,2.39-.17,3.61.07.21.28.51.46.54.22.03.6-.14.69-.32.47-.92,1.02-1.83,1.25-2.81.47-2.04.81-4.12,1.1-6.19.16-1.15.11-2.33.19-3.49.03-.47.07-.98.3-1.39.13-.24.63-.28.95-.43.41-.2.81-.43,1.28-.68-.05.42-.14.78-.13,1.13ZM35.62,18.66s.07,0,.1,0c.02.12.05.24.05.36-.02,1.08-.44,2.06-.89,3.02-.23.47-.52.57-1.03.4.59-1.26,1.18-2.51,1.77-3.77ZM34.07,23.27c-.21.49-.62.74-1.23.73.22-.9.6-1.12,1.23-.73ZM31.58,21.24c.05-.04.1-.07.15-.11.38.43.77.85,1.15,1.28.05.06.05.2,0,.26-.23.38-.49.75-.74,1.13-.51-.47-.75-1.63-.57-2.57ZM25.3,28.25c-.25,1.84-.51,3.67-.78,5.51-.2,1.4-.53,2.76-1.17,4.05-.07.15-.17.28-.26.42-.06-.02-.12-.04-.18-.07-.02-3.68,1.25-7.12,2.21-10.62.06,0,.12,0,.18,0,0,.24.03.48,0,.71ZM26.3,23.62s-.09-.02-.14-.03c0-.97,0-1.94,0-2.92,0-2.3-.05-4.6.01-6.9.02-.97.26-1.93.41-2.9.01-.08.03-.16.06-.23.28-.86.79-1.03,1.54-.48.72.52,1.11,1.27,1.44,2.05.47,1.15.69,2.35.66,3.57-.03,1.35-.16,2.71-.26,4.06-.01.15-.09.29-.13.44-1.03-.33-1.64-.03-2.21,1-.38.69-.77,1.38-1.16,2.07-.05.09-.13.17-.2.26ZM26.91,23.93c.7-1.12,1-2.4,2.21-3.21.52,1.02-.79,2.94-2.21,3.21ZM67.22,21.17c-.13-.04-.31,0-.44.06-.44.2-.91.37-1.29.64-1.03.74-2.03,1.53-3.03,2.3-.08.06-.14.14-.22.2-1.05.85-2.08,1.71-3.16,2.52-.3.23-.74.29-1.11.42-.02-.06-.05-.12-.07-.18,0-.03,0-.07.03-.09.14-.09.28-.17.42-.26.95-.58,1.59-1.38,1.82-2.44.23-1.03-.61-1.74-1.66-1.4-1.01.33-1.64,1-1.76,2.02-.05.42.03.86,0,1.29,0,.15-.11.37-.22.41-.19.07-.43.04-.63,0-.04,0-.02-.27-.03-.41-.02-.28.02-.59-.09-.84-.08-.17-.37-.37-.55-.35-.18.01-.4.26-.47.45-.08.19-.06.47.03.65.24.49.1.91-.17,1.31-.36.52-.74,1.03-1.16,1.51-.42.47-.94.82-1.67.69-.44-.08-.49-.18-.22-.52.47-.61.95-1.2,1.4-1.82,1.2-1.69,2.02-3.54,2.62-5.49.26-.86.49-1.74.36-2.64-.14-.99-.87-1.47-1.81-1.22-.26.07-.51.18-.74.31-.94.55-1.65,1.32-2.25,2.18-.99,1.43-1.55,3.02-1.81,4.7-.18,1.13-.12,2.27.31,3.35.15.38.58.8.49,1.1-.1.37-.61.65-.94.96-.04.03-.07.07-.11.1-.65.36-1.27.77-1.96,1.03-.24.09-.65-.2-.98-.32.11-.23.16-.5.33-.68.53-.6.8-1.29.9-2.05.05-.4.09-.8-.38-.99-.45-.18-.77.09-1.05.39-.6.65-.76,1.46-.67,2.25.09.76-.27,1.09-.89,1.36-.39.17-.8.33-1.19.05-.4-.29-.34-.71-.23-1.1.1-.37.27-.72.37-1.09.03-.12-.03-.26-.05-.4-.15.04-.31.06-.45.12-.08.04-.15.14-.17.23-.13.62-.33,1.24-.35,1.87-.02.67.5,1.08,1.21,1.1.64.02,1.23-.12,1.75-.5.1-.07.32-.12.41-.07,1.22.72,2.14.67,3.23-.22.56-.46,1.08-.96,1.65-1.41.12-.1.37-.16.51-.11,1.07.38,2.03.21,2.8-.61.43-.45.88-.91,1.14-1.45.31-.65.7-.83,1.42-.73.37.05.68.06,1,.31.4.32.9.32,1.38.11,1.48-.65,2.65-1.68,3.77-2.78.13-.13.27-.24.41-.35.03.02.07.05.1.07-.29.7-.59,1.4-.88,2.11-.21.54-.43,1.08-.59,1.63-.04.14.09.34.14.51.15-.09.34-.16.45-.29.11-.13.16-.31.23-.48.33-.91.71-1.8.98-2.72.41-1.41,1.28-2.41,2.71-2.95.44-.17.89-.32,1.3-.53.19-.1.3-.33.45-.5-.21-.1-.42-.23-.64-.29ZM46.66,28.37c.09.68-.21,1.19-.6,1.72-.26-.51.05-1.41.6-1.72ZM50.69,29.05c-.69-1.13-.96-2.22-.81-3.4.31-2.44,1.24-4.61,3.13-6.33.35-.32.81-.57,1.27-.74.48-.17.93.1.95.58.02.74.04,1.52-.17,2.22-.76,2.44-1.9,4.71-3.53,6.75-.24.3-.52.57-.84.93ZM58.64,23.54c.58-.25.99.06.93.67-.09.91-1.09,1.98-2.05,2.2-.53-1.3-.03-2.37,1.11-2.87ZM39.68,30.33c-.6-.18-1.25-.24-1.89-.29-.59-.05-1.19-.01-1.79-.01-.02-.07-.03-.14-.05-.22.68-.46,1.38-.89,2.04-1.37.79-.57,1.58-1.14,2.31-1.78.51-.44.42-.84-.24-1.03-.6-.17-1.25-.21-1.89-.24-.66-.04-.65,0-.56-.63.02-.17-.03-.45-.13-.5-.16-.07-.45-.06-.6.04-.28.19-.56.42-.75.7-.54.78-1.15,1.42-2.22,1.46-.08,0-.16.05-.24.07-1.7.56-3.41,1.11-5.1,1.69-.22.08-.56.32-.55.46.03.35.22.78.67.79.85.02,1.73.08,2.55-.09,1.54-.34,2.73-1.28,3.82-2.32.35-.34.73-.57,1.31-.62-.31.79-.61,1.5-.86,2.22-.18.53-.37.99-1.03,1.18-.41.12-.41.46-.08.69.36.25.38.44-.02.61-1.35.59-2.37,1.57-3.41,2.52-.87.81-1.62,1.72-2.04,2.82-.46,1.19-.05,2.31,1.06,2.95,1.01.58,2.1.7,3.21.43,2.69-.66,4.9-2.08,6.78-3.98.78-.79,1.33-1.72,1.36-2.82.04-1.56-.38-2.33-1.67-2.73ZM28.99,28.8c1.64-.56,3.18-1.08,4.83-1.64-1.04,1.27-3.32,2.12-4.83,1.64ZM36.54,27.83c.15-.42.35-.83.49-1.26.12-.37.35-.6.74-.59.65.02,1.29.08,1.93.13l.05.21c-1.1.81-2.21,1.62-3.31,2.43-.05-.03-.11-.06-.16-.1.08-.28.15-.56.25-.82ZM39.9,34.9c-1.59,1.91-3.62,3.28-6.01,4.15-.84.31-1.73.4-2.63.23-2.05-.4-2.15-1.86-1.47-3.12.63-1.17,1.65-2.05,2.65-2.93.43-.38.91-.7,1.38-1.05.08-.06.19-.09.29-.14.04.02.09.05.13.07-.2.49-.4.99-.61,1.48-.59,1.35-1.35,2.66-1.5,4.16-.01.11-.04.22-.04.33-.02.29-.06.65.35.67.41.02.27-.35.33-.58.28-1.01.53-2.05.88-3.04.4-1.1.9-2.17,1.36-3.25.07-.15.17-.35.31-.4,1.26-.48,2.56-.81,3.93-.63.75.09,1.23.55,1.41,1.25.27,1.06-.1,1.99-.76,2.78ZM45.22,23.68c.14.17.28.34.47.57-.2.23-.34.39-.48.54-.13-.19-.36-.37-.36-.56,0-.19.24-.37.37-.56ZM45.31,9.4c-.19-.09-.35-.23-.51-.35.08-.09.18-.25.22-.24.2.07.38.18.68.33-.21.14-.34.28-.38.26Z"/>
</svg>