<?xml version="1.0" encoding="UTF-8"?>
<svg id="Layer_2" data-name="Layer 2" xmlns="http://www.w3.org/2000/svg" viewBox="0 0 90 45">
  <defs>
    <style>
      .cls-1 {
        fill: #7a7a7a;
      }
    </style>
  </defs>
  <path class="cls-1" d="M38.03,27.42c.52.41,1.1.71,1.73.86.62.15,1.26.23,1.9.33.11.02.2.01.19.16-.02.51-.01,1.03-.06,1.54-.05.61-.4.94-1.02,1.03-.24.03-.49.03-.75.04v.3h.27c1.83,0,3.66.02,5.49-.01.74-.01,1.49-.08,2.21-.23,1.97-.4,3.43-1.49,4.24-3.35.67-1.53.73-3.13.31-4.74-.31-1.21-.95-2.24-1.93-3.04-.71-.58-1.54-.89-2.43-1.06-.16-.03-.2-.09-.2-.25,0-1.45,0-2.9,0-4.35,0-.07,0-.14.02-.22h1.73c0-.25-.01-.49,0-.72.02-.21-.06-.26-.27-.26-1.93,0-3.86,0-5.79,0-.05,0-.11-.01-.15,0-.05.02-.11.07-.11.11,0,.28,0,.57,0,.87.24,0,.46,0,.67,0,.21,0,.43.02.64.04.53.07.69.25.69.79v3.75h-5.38v.28c.29.02.57.03.85.07.49.07.8.37.89.85.04.25.07.5.07.74,0,2.09,0,4.19,0,6.28,0,.06,0,.11-.01.16-.79.05-1.78-.63-2.16-1.47-.39-.88-.11-1.76.89-2.72-.25-.22-.48-.43-.72-.63-.05-.04-.15-.04-.21-.02-.78.29-1.46.72-1.98,1.37-.92,1.13-.77,2.56.38,3.47ZM45.45,28.04c1.44-.63,2.2-1.8,2.44-3.31.07-.42.09-.85.1-1.28.01-.97,0-1.94,0-2.92v-.21s.04-.03.05-.05c.3.22.61.43.89.67,1.02.91,1.52,2.09,1.67,3.43.14,1.27.07,2.51-.44,3.7-.82,1.91-2.62,3.05-4.7,2.95-.55-.03-1.1-.14-1.65-.22-.06-.01-.17-.09-.17-.14-.01-.7,0-1.4,0-2.05.64-.2,1.25-.34,1.81-.58ZM43.86,19.93c.43-.06.86-.13,1.29-.2.07-.01.15,0,.24,0,0,.06.01.1.01.14,0,1.36,0,2.73-.02,4.09-.01.72-.1,1.44-.42,2.11-.27.55-.7.94-1.31,1.17,0-.09-.01-.16-.01-.23,0-2.26,0-4.53,0-6.79,0-.18.06-.26.23-.28Z"/>
  <path class="cls-1" d="M24.54,31.19c.96.23,1.9.05,2.81-.26.56-.19,1.09-.45,1.63-.68.08-.03.16-.05.3-.1-.07.14-.12.22-.15.3-.08.26-.16.51-.22.77-.01.05.08.18.12.18.36,0,.73,0,1.02-.23.18-.14.31-.11.5-.03.11.05.29,0,.41-.06.06-.03.1-.19.08-.29-.04-.34.05-.62.27-.87.4-.46.91-.76,1.48-.98.19-.07.4-.11.59-.17-.23.19-.47.34-.7.49-.31.21-.59.46-.71.83-.13.4.05.75.5.65.16-.03.31-.09.47-.13.05-.01.11-.04.14-.02.33.21.62.06.91-.08-.12-.5,0-.95.3-1.33.37-.46.87-.61,1.45-.49.58.12,1.01.46,1.15,1.05.18.77-.46,1.56-1.31,1.39-.47-.09-.65-.46-.43-.94.03.14.03.25.08.33.07.12.16.26.28.32.36.21.88-.07.93-.65.03-.39-.29-.88-.88-.87-.78.02-1.36.61-1.16,1.42.19.75,1.12,1.2,1.83,1.01,1.27-.35,1.66-1.9.97-2.83-.45-.61-1.11-.85-1.82-.95-1.08-.15-2.14,0-3.16.32-.97.31-1.92.69-2.87,1.08-1.13.45-2.23.95-3.45,1.15-.91.15-1.8.11-2.64-.33-.06-.03-.15-.02-.22-.03.39.54.89.87,1.5,1.02Z"/>
  <path class="cls-1" d="M60.64,30.16c.11.04.2.06.28.1.94.48,1.91.85,2.96.99.9.12,1.75.01,2.49-.55.18-.14.33-.31.5-.46-.01-.02-.03-.05-.04-.07-.09.03-.18.04-.26.08-.44.23-.91.32-1.39.36-1.04.08-2.02-.2-2.98-.55-.9-.34-1.77-.72-2.66-1.08-1.19-.49-2.41-.89-3.71-1-.8-.07-1.58-.02-2.32.31-1.31.58-1.5,2.18-.66,3.02.46.46,1.27.73,1.95.32.38-.24.67-.55.71-1.01.06-.64-.32-1.12-.95-1.25-.64-.14-1.17.31-1.1.94.04.35.35.64.69.64.3,0,.49-.2.55-.58,0-.03.01-.07.03-.14.2.4.13.65-.2.84-.36.21-.73.16-1.05-.06-.38-.26-.56-.64-.5-1.11.14-1.09,1.52-1.54,2.33-.95.53.39.72.94.59,1.65.22.04.46.16.66.1.25-.07.44-.04.66.05.25.11.57.07.64-.1.07-.17.09-.39.03-.56-.12-.38-.44-.62-.76-.84-.21-.14-.43-.27-.64-.4.11-.02.21,0,.3.03.7.18,1.3.53,1.79,1.06.22.25.34.53.26.88-.05.23.08.38.31.38.1,0,.2-.06.3-.08.08-.02.2-.05.26-.01.31.24.66.31,1.04.31.2,0,.28-.06.25-.25-.01-.08-.03-.16-.05-.23-.09-.25-.19-.49-.3-.77Z"/>
  <path class="cls-1" d="M39.9,33.09s-.09.05-.13.07c.04.03.07.08.11.1.16.06.25.16.17.32-.21.44-.44.87-.68,1.36-.26-.49-.5-.92-.71-1.36-.09-.18-.03-.26.2-.33.04-.01.08-.06.11-.09-.04-.03-.09-.07-.13-.07-.76,0-1.51,0-2.27,0-.04,0-.08.05-.13.07.04.03.07.08.11.09.28.06.32.1.32.38,0,.65,0,1.3,0,1.95,0,.04,0,.07-.02.14-.06-.08-.11-.14-.15-.2-.5-.71-1.01-1.4-1.48-2.13-.17-.25-.34-.35-.64-.33-.44.03-.89,0-1.33.01-.05,0-.1.05-.15.08.03.03.06.07.1.08.32.08.34.09.34.43,0,.63,0,1.26,0,1.89,0,.04-.01.09-.02.16-.06-.08-.1-.13-.13-.18-.53-.76-1.06-1.52-1.6-2.28-.06-.08-.17-.18-.25-.18-.62-.02-1.24-.01-1.87,0-.05,0-.11.06-.16.08.05.03.09.07.15.08.19.03.29.13.29.33,0,.36,0,.73,0,1.09,0,.04-.02.08-.02.12h-1.33c0-.41,0-.8,0-1.2,0-.21.09-.33.31-.35.04,0,.08-.05.12-.08-.05-.03-.1-.08-.14-.08-.39,0-.77,0-1.16,0-.05,0-.09.04-.14.07.04.03.08.09.13.1.19.02.31.11.31.31,0,.94,0,1.89,0,2.83,0,.2-.09.32-.31.34-.05,0-.09.06-.13.09.05.02.09.07.14.07.39,0,.77,0,1.16,0,.05,0,.1-.05.15-.08-.05-.03-.09-.08-.14-.09-.2-.03-.29-.12-.29-.32,0-.24,0-.47,0-.71,0-.2,0-.39,0-.59h1.35c0,.46,0,.91,0,1.36,0,.16-.11.23-.27.26-.06,0-.11.06-.16.09.06.03.11.07.17.08.34,0,.69,0,1.03,0,.43,0,.86,0,1.28,0,.05,0,.1-.05.15-.08-.03-.03-.06-.08-.1-.09-.33-.09-.35-.12-.36-.47,0-.44,0-.89,0-1.33v-.72c.08.04.13.09.17.15.57.8,1.14,1.61,1.71,2.41.05.07.14.12.21.18.03-.09.08-.19.08-.28,0-.94,0-1.89,0-2.83,0-.11,0-.23.02-.34.03-.08.09-.2.17-.22.24-.08.67.23.67.5,0,.86,0,1.71,0,2.57,0,.21-.07.38-.33.38-.04,0-.07.06-.11.09.04.02.08.07.12.07.32,0,.64,0,.96,0,.04,0,.08-.06.11-.09-.04-.03-.07-.07-.11-.08-.29-.06-.33-.1-.33-.4,0-.66,0-1.33,0-1.99,0-.04.02-.07.03-.15.07.09.11.15.16.22.57.8,1.14,1.61,1.71,2.41.04.06.13.09.19.13.02-.07.06-.14.06-.21,0-.96,0-1.93,0-2.89,0-.12,0-.25.04-.36.04-.09.14-.2.23-.22.25-.06.42.1.53.31.31.55.62,1.11.92,1.67.03.05.06.1.06.16,0,.34,0,.69,0,1.03,0,.19-.11.28-.3.3-.05,0-.09.06-.14.09.05.03.1.08.15.08.38,0,.76,0,1.14,0,.05,0,.1-.05.15-.07-.04-.03-.09-.09-.13-.09-.23-.02-.3-.15-.3-.36,0-.33,0-.66,0-.99,0-.07.01-.14.04-.2.28-.52.55-1.05.86-1.56.09-.15.28-.25.42-.37.03-.03.06-.06.1-.09-.04-.03-.08-.08-.13-.08-.31,0-.61,0-.92,0ZM31.37,36.19v.06c.02.53-.28.53-.7.43-.07-.02-.15-.19-.15-.29-.02-.47,0-.94,0-1.41s0-.9,0-1.35c0-.3.09-.36.38-.3.29.06.47.28.47.57,0,.76,0,1.53,0,2.29Z"/>
  <path class="cls-1" d="M51.08,33.09c-.06,0-.12.05-.19.08.05.03.11.08.17.08.21.03.27.16.27.34,0,.58,0,1.16,0,1.74v.41c-.08-.1-.12-.15-.16-.21-.45-.64-.93-1.25-1.33-1.92-.27-.47-.62-.62-1.11-.53-.07.01-.12.06-.19.09.05.04.1.11.16.12.29.08.47.3.47.6,0,.76,0,1.53,0,2.29,0,.11,0,.23-.04.34-.03.07-.11.16-.18.18-.28.09-.52-.03-.64-.3-.04-.1-.08-.2-.11-.3-.35-.98-.69-1.96-1.04-2.94-.02-.06-.09-.11-.14-.17-.05.06-.12.1-.15.17-.08.19-.15.39-.22.58-.3.84-.6,1.68-.91,2.51-.07.19-.13.4-.38.46-.03,0-.05.07-.08.1.04.03.08.07.11.07.29,0,.59,0,.88,0,.04,0,.08-.07.16-.14-.09-.02-.12-.03-.16-.04-.27-.06-.3-.11-.23-.37.06-.2.13-.39.21-.58.02-.05.11-.11.17-.11.3-.01.6-.01.9,0,.05,0,.14.05.15.1.08.23.15.46.22.69.05.15-.02.23-.16.27-.05.02-.1.07-.14.11.06.03.12.07.18.07.3,0,.6,0,.9,0,.44,0,.87,0,1.31,0,.05,0,.1-.05.15-.08-.03-.03-.06-.08-.09-.09-.33-.09-.35-.11-.35-.45,0-.47,0-.94,0-1.41v-.63l.05-.02c.05.06.09.11.14.17.58.82,1.15,1.63,1.73,2.44.04.05.12.08.18.11.02-.06.06-.12.06-.19,0-.86,0-1.73,0-2.59,0-.2.01-.4.02-.6,0-.2.09-.3.29-.32.05,0,.09-.06.14-.09-.05-.03-.1-.07-.15-.08-.29,0-.57,0-.86,0ZM46.42,35.34c.15-.41.29-.81.46-1.26.16.44.29.83.44,1.26h-.9Z"/>
  <path class="cls-1" d="M50.55,9.38c-.57-.46-1.12-.89-1.67-1.32-.05-.04-.15-.06-.22-.06-1.38,0-2.76,0-4.13,0-.09,0-.2.04-.27.09-.33.23-.65.46-.98.69-.3.22-.61.44-.92.66,1.4,1.16,2.78,2.3,4.17,3.45,1.35-1.17,2.68-2.34,4.03-3.52ZM50.21,9.51c-.55.45-1.1.9-1.65,1.35l-.03-.03c.18-.16.35-.32.53-.48-.01-.01-.02-.02-.03-.04-.28.24-.55.47-.83.71-.01,0-.02-.02-.03-.02.2-.33.43-.65.58-1,.2-.48.52-.66,1.02-.58.14.02.29.02.43.03,0,.02,0,.04.01.06ZM48.82,8.23s.07.12.1.18c.02,0,.09-.03.11,0,.22.2.44.41.65.62,0,0-.01.04-.02.07.09.06.17.11.31.2h-1.04v-.59c.25.13.49.26.73.39-.46-.29-.92-.58-1.38-.87.16,0,.35-.01.53,0ZM48.32,8.39s.08.04.11.06q.43.22.38.77c-.27-.1-.53-.2-.79-.31,0,.01-.01.02-.02.03.21.1.41.21.62.31v.03h-1.82c.29-.24.57-.47.85-.7,0,0,0,0,0,0,.07-.05.16-.09.21-.15.15-.18.3-.18.47-.05ZM48.04,9.54s.08-.09.12-.1c.17-.01.34,0,.56,0-.49.53-.94,1.03-1.39,1.52-.01-.01-.02-.02-.03-.03.25-.46.5-.92.75-1.39ZM47.04,11.27c-.18-.64-.34-1.21-.51-1.81h1.44c-.31.6-.61,1.18-.93,1.81ZM43.72,8.69c.2-.16.4-.33.62-.46.1-.06.26-.02.39-.02,1.07,0,2.14,0,3.25,0-.13.15-.24.27-.34.39-.08-.01-.16,0-.23-.04-.09-.05-.17-.13-.26-.19-.01.01-.03.02-.04.04.11.08.22.16.35.25-.32.24-.56.49-.85.62-.21.09-.52.1-.72,0-.35-.16-.64-.44-.98-.67.09-.09.17-.16.25-.23,0-.01-.02-.02-.02-.03-.1.07-.21.14-.32.21-.05-.07-.1-.14-.16-.21,0,0-.02,0-.02.01.03.08.06.15.1.25-.33.22-.66.43-1.03.66-.01-.19-.02-.35-.02-.5,0-.03,0-.06.02-.08ZM43.76,9.32c.35-.22.67-.43,1-.62.04-.02.11,0,.15.02.29.19.57.38.9.61h-2.05ZM44.48,10.8c-.22-.43-.44-.86-.67-1.32h.49c.06.43.12.87.19,1.32ZM46.46,9.48c-.21.65-.41,1.29-.63,1.99-.4-.68-.77-1.32-1.16-1.99h1.8ZM43.47,8.86s.07-.05.13-.09c.01.2.02.37.03.56h-.8c.24-.18.44-.32.64-.47ZM42.68,9.54s.01-.04.02-.06c.28,0,.56,0,.84,0,.05,0,.1.07.13.12.22.34.44.68.66,1.02.04.07.1.12.16.19,0,0,0,0,0,0,.02.05.03.09.06.19-.65-.51-1.25-.98-1.86-1.46ZM44.64,11.02c-.06-.48-.11-.96-.12-1.45.26.4.53.81.79,1.21.26.4.52.8.8,1.2,0-.02,0-.04-.01-.06-.21-.24-.18-.49-.08-.77.15-.44.27-.89.42-1.39.04.12.07.18.09.24.12.4.26.8.37,1.21.03.11.03.24,0,.35-.07.25-.16.5-.24.75.14-.3.28-.6.43-.9.03-.06.05-.12.09-.17.59-.6,1.19-1.19,1.83-1.83-.04.09-.05.13-.07.17-.33.58-.67,1.16-1.01,1.74-.04.07-.09.13-.15.18-.32.27-.65.54-.98.8-.03.02-.09,0-.14,0-.04.07-.08.15-.12.24-.62-.49-1.21-.95-1.81-1.42-.03-.02-.06-.07-.06-.1Z"/>
  <path class="cls-1" d="M59.83,36.2c-.09.17-.2.28-.41.25-.26-.04-.4-.23-.55-.42-.02-.03,0-.09.02-.13.18-.33.36-.66.54-1,.08-.14.16-.27.34-.3.04,0,.08-.08.11-.12-.04-.04-.09-.1-.13-.1-.27-.01-.54,0-.81,0-.04,0-.1.04-.11.07,0,.04.01.12.04.14.16.1.18.24.13.39-.08.25-.19.48-.28.73-.03,0-.05,0-.08,0-.18-.33-.36-.65-.54-.98.13-.09.23-.16.32-.23.1-.08.2-.17.27-.27.21-.28.21-.68.03-.94-.17-.24-.46-.33-.79-.24-.36.1-.63.42-.61.81,0,.29.08.59.12.9-.09.07-.21.16-.33.25-.27.22-.47.5-.55.85-.17.7.35,1.27,1.05,1.11.29-.07.55-.26.87-.42.04.04.12.14.22.21.54.44,1.17.21,1.3-.48.01-.06-.03-.12-.05-.19-.05.04-.12.06-.14.11ZM57.89,33.54c.05-.15.16-.24.33-.22.17.02.24.15.26.3.05.28-.13.58-.49.77-.05-.18-.11-.34-.13-.51-.02-.11,0-.23.03-.33ZM57.88,36.47c-.25.12-.48.03-.63-.2-.25-.4-.09-.95.35-1.21.21.38.41.76.63,1.17-.11.07-.22.18-.35.24Z"/>
  <path class="cls-1" d="M45.06,33.96c-.2-.44-.53-.76-1.01-.8-.64-.06-1.3-.05-1.94-.06-.04,0-.07.05-.11.08.04.03.08.09.11.09.24,0,.33.15.33.36,0,.92,0,1.84,0,2.76,0,.21-.08.34-.31.35-.04,0-.08.05-.12.08.05.03.09.08.14.08.26,0,.51,0,.77,0h0c.26,0,.52,0,.77,0,.64-.04,1.13-.34,1.39-.94.29-.66.28-1.34-.02-1.99ZM44.49,35.82c-.23.6-.73.87-1.32.76-.12-.02-.17-.07-.16-.2,0-.46,0-.93,0-1.39s0-.89,0-1.33c0-.17.06-.22.21-.24.55-.09,1.03.17,1.25.71.23.56.23,1.13.02,1.69Z"/>
  <path class="cls-1" d="M67.05,33.59c-.58-.74-1.55-.79-2.2-.11-.4.42-.55.93-.54,1.51,0,.47.08.92.35,1.32.58.86,1.67.92,2.35.13.64-.75.66-2.06.04-2.84ZM66.71,36.02c-.04.13-.11.25-.2.35-.38.46-.99.4-1.28-.11-.23-.4-.28-.85-.28-1.3-.02,0-.04,0-.05-.01.08-.36.13-.73.25-1.07.11-.34.37-.56.76-.56.38,0,.63.22.76.56.26.7.27,1.42.05,2.14Z"/>
  <path class="cls-1" d="M24.8,33.56c-.64.76-.63,2.14.02,2.9.59.68,1.54.7,2.16.05.4-.43.54-.96.55-1.49,0-.44-.07-.81-.26-1.16-.55-1.01-1.75-1.16-2.47-.3ZM26.74,36.01c-.04.13-.11.25-.2.35-.38.47-1,.42-1.3-.11-.23-.4-.27-.84-.33-1.29.08-.36.13-.73.25-1.08.11-.34.36-.57.75-.57.39,0,.64.22.77.57.26.7.26,1.41.05,2.12Z"/>
  <path class="cls-1" d="M54.26,34.78c-.05,0-.1.05-.15.08.05.03.09.08.14.09.2.03.25.15.25.33,0,.36,0,.72,0,1.07,0,.14-.05.2-.17.25-.45.18-.91.06-1.2-.34-.34-.47-.42-1.01-.38-1.57.03-.4.14-.77.41-1.08.4-.45,1.1-.42,1.45.07.1.14.15.32.23.48.02.05.08.08.12.11.03-.04.07-.09.07-.13-.02-.34-.05-.68-.08-1.02,0-.04-.04-.1-.07-.1-.03,0-.1.04-.1.07-.03.13-.11.11-.2.09-.09-.03-.18-.06-.26-.09-.74-.22-1.42.03-1.84.68-.22.35-.36.73-.38,1.14-.03.75.18,1.42.84,1.83.64.39,1.31.33,1.96,0,.11-.06.16-.13.16-.27-.01-.36,0-.73,0-1.09,0-.22.03-.42.31-.45.02,0,.04-.04.08-.09-.08-.03-.13-.06-.18-.06-.34,0-.69,0-1.03,0Z"/>
  <path class="cls-1" d="M63.93,36.02c-.19.28-.4.55-.76.61-.5.09-.96-.17-1.17-.66-.16-.39-.2-.79-.14-1.2.05-.34.11-.7.27-1,.34-.65,1.17-.64,1.55-.01.09.16.14.34.22.51.02.05.08.07.12.11.02-.04.06-.09.06-.14-.02-.41-.04-.81-.06-1.25-.07.02-.15.02-.16.04-.1.21-.24.13-.39.08-.63-.23-1.2-.12-1.68.35-.74.74-.78,2.22-.1,3.02.38.44.87.57,1.43.46.55-.11.83-.5,1.05-.96-.12-.13-.17-.06-.24.03Z"/>
  <path class="cls-1" d="M23.03,33.09s-.1.05-.14.08c.05.03.09.08.14.08.18.03.29.1.29.3,0,.95,0,1.9,0,2.85,0,.09-.04.18-.06.28-.03,0-.05,0-.08,0-.06-.12-.09-.26-.18-.35-.06-.07-.2-.14-.28-.13-.09.02-.19.14-.21.23-.07.33.2.58.56.55.39-.04.6-.29.71-.63.07-.22.1-.46.1-.69.01-.67,0-1.34,0-2.01,0-.28.05-.33.32-.39.04,0,.08-.06.11-.09-.04-.03-.08-.07-.13-.07-.39,0-.77,0-1.16,0Z"/>
</svg>