<?xml version="1.0" encoding="UTF-8"?>
<svg id="Layer_2" data-name="Layer 2" xmlns="http://www.w3.org/2000/svg" viewBox="0 0 90 45">
  <defs>
    <style>
      .cls-1 {
        fill: #787878;
      }
    </style>
  </defs>
  <path class="cls-1" d="M24.94,32.15l.79,1.02h-.52l-.55-.78-.33.28v-.42l.81-.74h.54l-.75.65ZM23.76,29.39l8.5-2.1,1.27-1.88-5.86-1.77-3.91,5.75ZM42.71,11.83l-8.41,2.05-5.08,7.47,8.56-2.23,4.93-7.29ZM66.16,13.17l-37.15,9.54,19.26,5.72,5.74-1.53-9.43-2.82,17.31-4.39,4.27-6.54ZM65.79,31.49v1.12l-.98-1.12h-.47v1.67h.45v-1.09l.96,1.09h.48v-1.67h-.45ZM52.67,32.15h-.89v-.66h-.45v1.67h.45v-.73h.89v.73h.45v-1.67h-.45v.66ZM38.71,31.49l.95,1.67h-.52l-.21-.38h-.94l-.2.38h-.51l.92-1.67h.5ZM38.78,32.5l-.33-.62-.32.62h.65Z"/>
</svg>