<?xml version="1.0" encoding="UTF-8"?>
<svg id="Layer_2" data-name="Layer 2" xmlns="http://www.w3.org/2000/svg" viewBox="0 0 90 45">
  <defs>
    <style>
      .cls-1 {
        fill: #7a7a7a;
      }
    </style>
  </defs>
  <path class="cls-1" d="M63.04,30.48c-.05-.1-16.82-23.42-16.82-23.42-.39-.49-1.04-.55-1.21-.56h0s0,0-.02,0c-.01,0-.02,0-.02,0h0c-.17,0-.81.07-1.21.56,0,0-16.76,23.32-16.81,23.42-.55.91-.6,1.26-.53,1.76.13.36.32.78,1.2,1.1.3.11,16.42,4.91,17.14,5.12.07.02.14.04.21.04h0s.02,0,.02,0h.02c.07,0,.14-.02.21-.04.72-.21,16.84-5.01,17.14-5.12.88-.32,1.07-.75,1.2-1.1.08-.5.02-.85-.53-1.76M62.55,31.88c-.04.37-.32.58-.6.67-.38.11-16.65,5.08-16.69,5.09v-1.07c2.11-.65,15.13-4.72,16.02-5,.14-.05.24-.11.17-.21,0,0-16.39-22.78-16.43-22.81h0s0,0,0,0c0,0,0,0,0,0v-.02s-.02,0-.02,0c0,0-.01,0-.02,0v.02s0,0,0,0h0s0,0,0,0c-.04.03-16.43,22.81-16.43,22.81-.07.1.03.16.17.21.89.28,13.91,4.35,16.02,5v1.07s-16.32-4.98-16.69-5.09c-.28-.09-.55-.29-.6-.67-.05-.41.23-.7.23-.7,0,0,16.73-23.18,16.85-23.34.09-.11.24-.1.24-.1h.22s.02,0,.02,0h.02s0,0,0,0h.22s.15-.01.24.09c.12.16,16.85,23.34,16.85,23.34,0,0,.27.29.23.7M48.18,19.5v5.14s-2.88,1.78-2.88,1.78v-5.17s2.88-1.75,2.88-1.75ZM45.32,19.12v-6.36s3.23,4.45,3.23,4.45l-3.23,1.91ZM48.18,26.86v6.44c-.85.32-2.88,1.07-2.88,1.07v-5.77s2.88-1.75,2.88-1.75ZM50.26,25.62s1.96-1.18,2.36-1.42v7.85c-.45.15-2.48.86-2.49.86,0,0,.04-6.45.04-6.97,0-.11-.03-.24.08-.32M50.13,23.47v-4.06c.21.3,1.89,2.65,2.03,2.81l-2.03,1.25ZM54.59,25.63s3.41,4.8,3.44,4.85c-.02.02-3.42,1.05-3.44,1.04,0-.03,0-5.22,0-5.89M41.45,17.21l3.22-4.45v6.36s-3.22-1.91-3.22-1.91ZM44.7,21.25v5.17s-2.89-1.78-2.89-1.78v-5.14l2.89,1.75ZM41.82,26.86l2.9,1.75v5.77s-2.04-.75-2.9-1.07v-6.44ZM39.87,32.91s-2.04-.71-2.49-.86v-7.85c.4.24,2.34,1.41,2.36,1.42.11.09.08.21.08.32,0,.52.04,6.97.04,6.97M37.84,22.22c.14-.16,1.81-2.51,2.03-2.81v4.06l-2.03-1.25ZM35.41,31.52s-3.42-1.02-3.44-1.04c.03-.05,3.44-4.85,3.44-4.85,0,.67,0,5.86,0,5.89"/>
</svg>