<?xml version="1.0" encoding="UTF-8"?>
<svg id="Layer_2" data-name="Layer 2" xmlns="http://www.w3.org/2000/svg" viewBox="0 0 90 45">
  <defs>
    <style>
      .cls-1 {
        fill: #787878;
        fill-rule: evenodd;
      }
    </style>
  </defs>
  <path class="cls-1" d="M28.78,25.15l-2.1-4.58v3.63c0,.33.04.54.11.63.1.11.26.17.47.17h.2v.15h-1.9v-.15h.19c.23,0,.39-.07.49-.21.06-.09.09-.28.09-.59v-3.55c0-.24-.03-.41-.08-.52-.04-.08-.1-.15-.2-.2-.1-.05-.26-.08-.49-.08v-.15h1.54l1.97,4.26,1.94-4.26h1.54v.15h-.19c-.24,0-.4.07-.49.21-.06.09-.09.28-.09.59v3.55c0,.33.04.54.11.63.1.11.26.17.47.17h.19v.15h-2.31v-.15h.2c.23,0,.39-.07.49-.21.06-.09.09-.28.09-.59v-3.63l-2.1,4.58h-.13ZM36.61,23.54h-1.84l-.32.76c-.08.19-.12.33-.12.42,0,.07.04.14.11.19.07.05.22.09.45.11v.13h-1.5v-.13c.2-.03.33-.08.39-.14.12-.11.25-.34.39-.69l1.67-3.97h.12l1.66,4.01c.13.32.25.53.36.62.11.1.26.15.45.16v.13h-1.88v-.13c.19,0,.32-.04.39-.09.07-.05.1-.12.1-.2,0-.11-.05-.27-.14-.49l-.29-.69h0ZM36.51,23.27l-.81-1.95-.83,1.95h1.64ZM38.93,20.28h1.34l3.02,3.64v-2.8c0-.29-.03-.48-.1-.56-.09-.1-.23-.15-.43-.15h-.17v-.13h1.71v.13h-.17c-.21,0-.35.06-.44.18-.05.08-.08.25-.08.52v4.09h-.13l-3.25-3.9v2.99c0,.3.03.48.1.56.09.1.23.15.42.15h.17v.13h-1.72v-.13h.17c.21,0,.36-.06.45-.18.05-.08.08-.25.08-.52v-3.37c-.14-.16-.25-.27-.33-.32-.07-.05-.18-.1-.33-.15-.07-.02-.18-.03-.32-.03v-.13h0ZM48.24,20.27v1.66h-.14c-.04-.32-.12-.57-.23-.76-.11-.19-.27-.34-.48-.45-.21-.11-.42-.17-.64-.17-.25,0-.46.07-.62.23-.16.15-.24.32-.24.51,0,.15.05.28.15.4.15.18.5.41,1.07.71.46.24.77.42.93.55.17.13.29.28.38.45.09.17.14.36.14.55,0,.36-.14.67-.43.94-.29.26-.66.39-1.11.39-.14,0-.28-.01-.4-.03-.07-.01-.23-.06-.46-.13-.24-.07-.38-.11-.44-.11s-.11.02-.14.05c-.04.04-.06.11-.08.22h-.14v-1.64h.14c.06.34.15.6.25.77.1.17.27.31.48.43.22.11.46.17.72.17.3,0,.54-.08.71-.24.17-.16.26-.34.26-.55,0-.12-.03-.24-.1-.36-.07-.12-.17-.23-.31-.34-.09-.07-.35-.22-.77-.45-.42-.23-.72-.41-.89-.55-.18-.14-.31-.29-.4-.45-.09-.17-.14-.35-.14-.54,0-.34.14-.64.4-.89.27-.25.61-.37,1.03-.37.26,0,.54.06.83.19.13.06.23.09.28.09.06,0,.11-.02.15-.05.04-.04.07-.11.1-.22h.14ZM51.55,20.29c.63,0,1.17.23,1.63.71.46.47.69,1.06.69,1.76s-.23,1.33-.69,1.81c-.46.48-1.02.72-1.68.72s-1.22-.23-1.67-.7c-.45-.47-.68-1.07-.68-1.82s.26-1.38.78-1.86c.45-.42,1-.62,1.63-.62h0ZM51.48,20.55c-.43,0-.78.16-1.04.47-.32.39-.49.97-.49,1.73s.17,1.38.51,1.8c.26.32.6.48,1.02.48.45,0,.83-.18,1.12-.53.29-.35.44-.9.44-1.66,0-.82-.16-1.43-.49-1.83-.26-.32-.62-.48-1.08-.48h0ZM59.05,25.14h-1.32l-1.67-2.3c-.12,0-.22,0-.3,0-.04,0-.07,0-.11,0-.04,0-.07,0-.11,0v1.43c0,.31.04.5.1.58.09.11.23.16.41.16h.19v.14h-2.11v-.14h.19c.21,0,.36-.07.45-.2.05-.08.07-.25.07-.54v-3.18c0-.31-.03-.5-.1-.58-.09-.11-.23-.16-.42-.16h-.19v-.14h1.79c.53,0,.91.04,1.16.12.25.08.46.22.63.42.17.21.26.45.26.74,0,.3-.1.56-.3.79-.2.22-.5.38-.92.47l1.02,1.41c.23.33.43.54.6.65.17.11.39.17.66.2v.14h0ZM55.55,22.61h.2c.47,0,.82-.1,1.06-.31.24-.2.36-.46.36-.77s-.1-.56-.29-.75c-.19-.19-.45-.29-.77-.29-.14,0-.33.02-.57.07v2.05h0ZM62.63,19.71h1.9v.15h-.11c-.07,0-.17.03-.3.09-.13.06-.25.15-.36.26-.11.11-.25.3-.4.56l-1.31,2.07v1.36c0,.33.04.54.11.63.1.11.26.17.48.17h.18v.15h-2.31v-.15h.19c.23,0,.39-.07.49-.21.06-.09.09-.28.09-.59v-1.29l-1.49-2.28c-.18-.27-.3-.43-.36-.5-.06-.07-.19-.15-.39-.24-.05-.03-.13-.04-.23-.04v-.15h2.33v.15h-.12c-.12,0-.24.03-.34.09-.1.06-.16.15-.16.26,0,.1.08.27.24.52l1.13,1.75,1.07-1.67c.16-.25.24-.44.24-.56,0-.08-.02-.15-.06-.2-.04-.06-.09-.1-.17-.14-.07-.03-.18-.05-.33-.05v-.15h0ZM15,20.24h8.51v.23h-8.51v-.23h0ZM16.74,21.77h6.77v.23h-6.77v-.23h0ZM18.42,23.34h5.1v.23h-5.1v-.23h0ZM20.12,24.89h3.4v.23h-3.4v-.23h0ZM75,20.27h-8.51v.23h8.51v-.23h0ZM73.26,21.79h-6.77v.23h6.77v-.23h0ZM71.58,23.37h-5.1v.23h5.1v-.23h0ZM69.88,24.92h-3.4v.23h3.4v-.23h0Z"/>
</svg>