<?xml version="1.0" encoding="UTF-8"?>
<svg id="Layer_2" data-name="Layer 2" xmlns="http://www.w3.org/2000/svg" viewBox="0 0 90 45">
  <defs>
    <style>
      .cls-1 {
        fill: #787878;
      }
    </style>
  </defs>
  <path class="cls-1" d="M48.48,19.89l2.01-2.64s.08-.06.13-.06h.83s.06.02.08.05c.02.03.01.07,0,.09l-2,2.62s-.08.06-.13.06h-.86s-.06-.02-.07-.04c-.01-.03-.01-.06,0-.08ZM66.78,20.01h5.5c.09,0,.16-.08.16-.17v-1.39c0-.09-.07-.17-.16-.17h-2.7c-.09,0-.16.08-.16.17v.25c0,.09.07.17.16.17h1.77s.05.02.05.05v.27s-.02.05-.05.05h-3.53c-.09,0-.16-.08-.16-.17v-1.03c0-.09.07-.17.16-.17h4.46c.09,0,.16-.07.16-.17v-.38c0-.09-.07-.17-.16-.17h-5.5c-.09,0-.16.08-.16.17v2.5c0,.09.07.17.16.17ZM46.7,19.97s.04.04.07.04h1.11c.05,0,.1-.02.13-.06l2-2.62s.02-.06,0-.09c-.02-.03-.04-.05-.08-.05h-1.09c-.05,0-.1.02-.13.06l-2.01,2.64s-.02.05,0,.08ZM46.17,20.01c.05,0,.1-.02.13-.06l2-2.62s.02-.06,0-.09c-.02-.03-.04-.05-.08-.05h-2.32c-.05,0-.1.02-.13.06l-2.01,2.64s-.02.05,0,.08c.01.03.04.04.07.04h2.34ZM50.11,19.97s.04.04.07.04h.6c.05,0,.1-.02.13-.06l2-2.62s.02-.06,0-.09c-.02-.03-.04-.05-.08-.05h-.58c-.05,0-.1.02-.13.06l-2.01,2.64s-.02.05,0,.08ZM52.9,19.89l2.01-2.64s.08-.06.13-.06h4.24c.09,0,.16.08.16.17v2.5c0,.09-.07.17-.16.17h-.71c-.09,0-.16-.08-.16-.17v-.44s-.02-.05-.05-.05h-3.73c-.05,0-.1.02-.13.06l-.39.51c-.04.06-.1.09-.17.09h-.97s-.06-.02-.07-.04c-.01-.03-.01-.06,0-.08ZM55.15,18.6s.02.02.04.02h3.16s.05-.03.05-.06v-.62s-.02-.05-.05-.05h-2.64s-.06.02-.09.04l-.47.62s-.01.03,0,.05ZM51.58,19.97s.04.04.07.04h.44c.05,0,.1-.02.13-.06l2-2.62s.02-.06,0-.09c-.02-.03-.05-.05-.08-.05h-.42c-.05,0-.1.02-.13.06l-2.01,2.64s-.02.05,0,.08ZM60.11,20.01h.71c.09,0,.16-.08.16-.17v-1.5s.01-.05.04-.07c.02-.01.05-.01.08,0l1.5.95s.05.03.09.03h.68s.06,0,.09-.03l1.5-.95s.05-.02.08,0c.02.01.04.04.04.07v1.5c0,.09.08.17.17.17h.71c.09,0,.16-.08.16-.17v-2.5c0-.09-.07-.17-.16-.17h-.8s-.06,0-.09.03l-1.94,1.28c-.06.04-.12.04-.18,0l-1.94-1.28s-.06-.03-.09-.03h-.8c-.09,0-.16.08-.16.17v2.5c0,.09.07.17.16.17ZM41.91,21.57c.16.1.24.29.24.55v.36c0,.26-.08.45-.24.55-.16.1-.47.14-.95.14h-1.65v1.09h-.45v-2.85h2.09c.48,0,.79.05.95.15ZM41.68,22.23c0-.17-.04-.29-.11-.34-.08-.05-.25-.08-.51-.08h-1.75v.98h1.75c.26,0,.43-.03.51-.08.07-.05.11-.17.11-.34v-.13ZM46.06,23.89h-2.55v-.89h2.44v-.39h-2.44v-.79h2.55v-.39h-2.99v2.85h2.99v-.39ZM48.61,24.28v-2.46h1.46v-.39h-3.37v.39h1.46v2.46h.45ZM53.78,24.27v-.66c0-.17-.04-.28-.11-.34-.05-.04-.19-.09-.56-.09h-1.75v1.09h-.45v-2.85h2.15c.48,0,.79.05.95.15.16.1.25.29.25.55v.33c0,.18-.04.32-.12.4-.06.06-.14.11-.26.14.09.03.16.08.22.14.09.1.13.24.13.41v.73h-.45ZM53.79,22.36v-.13c0-.17-.04-.28-.11-.34-.08-.06-.25-.09-.5-.09h-1.82v.98h1.82c.25,0,.42-.03.5-.08.07-.05.11-.17.11-.34ZM58.69,24.11c-.1.07-.23.13-.38.16-.15.03-.39.04-.71.04h-.98c-.32,0-.56-.01-.71-.04-.16-.03-.28-.08-.39-.16-.11-.08-.19-.2-.24-.33-.05-.13-.07-.31-.07-.52v-.76c0-.23.02-.42.07-.56.05-.14.13-.26.24-.34.1-.07.23-.12.39-.16.16-.03.39-.05.7-.05h.99c.31,0,.55.02.7.05.16.03.29.08.39.16.11.08.19.19.24.33.05.14.07.32.07.54v.77c0,.22-.02.4-.07.54-.05.14-.13.25-.24.33ZM58.52,22.44c0-.14,0-.25-.02-.31-.02-.06-.04-.12-.08-.16-.05-.06-.13-.11-.22-.14-.1-.03-.24-.05-.43-.05h-1.34c-.19,0-.33.02-.43.05-.09.03-.17.08-.22.14-.04.05-.07.1-.08.17-.02.07-.02.19-.02.35v.73c0,.16,0,.28.02.35.02.06.04.12.08.17.05.07.13.11.22.14.1.03.24.05.43.05h1.34c.19,0,.33-.02.43-.04.09-.03.17-.08.22-.14.04-.05.06-.1.08-.16.02-.07.02-.17.02-.31v-.81ZM63.72,24.28v-2.85h-.44v2.4l-2.61-2.4h-.63v2.85h.45v-2.44l2.65,2.44h.59ZM66.7,21.43l1.77,2.85h-.48l-.39-.61h-2.3l-.38.61h-.51l1.76-2.85h.53ZM67.37,23.29l-.93-1.48-.92,1.48h1.85ZM72.22,24.12c.19-.13.28-.36.28-.68,0-.2-.02-.35-.07-.46-.05-.11-.12-.19-.23-.25-.07-.04-.17-.07-.29-.09-.12-.02-.3-.03-.53-.03h-1.06c-.32,0-.53-.03-.63-.09-.09-.06-.14-.17-.14-.33s.05-.27.14-.33c.1-.06.3-.09.6-.09h1.01c.29,0,.48.03.57.09.08.06.12.17.12.34v.08h.43v-.12c0-.14-.02-.26-.05-.35-.03-.09-.09-.17-.16-.23-.09-.07-.21-.12-.36-.14-.15-.03-.41-.04-.78-.04h-.67c-.5,0-.83.06-1.02.18-.19.12-.29.34-.29.63s.09.5.26.62c.17.12.45.18.85.18h1.25c.25,0,.42.03.5.09.07.06.11.17.11.33,0,.2-.05.32-.16.39-.12.07-.37.11-.76.11h-.77c-.33,0-.55-.03-.66-.1-.11-.06-.16-.17-.16-.33,0-.02,0-.05,0-.11v-.1s-.42,0-.42,0v.03s0,.02,0,.04c0,.08,0,.14,0,.18,0,.27.09.47.27.59.18.12.46.17.87.17h1c.47,0,.79-.06.98-.19ZM43.68,27.78h.17v-.99h.83v-.15h0s-.83,0-.83,0v-.77h.9v-.15h-1.07v2.07ZM46.84,26.75c0,.63-.33,1.07-.8,1.07s-.81-.44-.81-1.08.34-1.05.8-1.05.8.44.8,1.07ZM46.65,26.75c0-.53-.25-.91-.61-.91s-.61.38-.61.9.25.92.61.92.61-.38.61-.91ZM48.24,26.84l.56.94h-.21l-.55-.92h-.38v.92h-.17v-2.07h.31c.32,0,.41,0,.54.06.21.07.34.26.34.51,0,.27-.15.46-.44.56ZM48.24,26.66c.16-.06.25-.2.25-.39,0-.18-.08-.31-.21-.36-.1-.04-.18-.05-.47-.05h-.15v.84h.14c.27,0,.34,0,.44-.04ZM50.27,27.58l-.62-1.87h-.28v2.07h.17v-1.91l.64,1.91h.17l.64-1.91v1.91h.17v-2.07h-.28l-.62,1.87ZM53.09,26.94c0,.34,0,.39-.05.48-.07.14-.25.23-.47.23-.2,0-.36-.07-.44-.19-.07-.1-.07-.15-.08-.52v-1.23h-.18v1.38c0,.2.02.3.07.4.1.2.33.32.62.32.33,0,.57-.14.66-.39.04-.1.04-.15.04-.48v-1.23h-.17v1.23ZM54.15,25.71h0s-.18,0-.18,0v2.07h1.05v-.15h-.87v-1.92ZM56.32,25.7l.71,2.09h-.18l-.2-.59h-.78l-.2.59h-.18l.71-2.09h.13ZM56.6,27.04l-.34-1.09-.34,1.09h.68ZM60.05,26.75c0,.63-.33,1.07-.8,1.07s-.81-.44-.81-1.08.34-1.05.8-1.05.8.44.8,1.07ZM59.86,26.75c0-.53-.25-.91-.61-.91s-.61.38-.61.9.25.92.61.92.61-.38.61-.91ZM61.91,27.53l-1.03-1.81h-.19v2.07h.16v-1.81l1.02,1.81h.2v-2.07h-.16v1.81ZM62.99,26.79h.83v-.15h0s-.83,0-.83,0v-.77h.9v-.15h-1.07v2.07h1.08v-.15h-.91v-.84ZM65.28,25.87h.53v1.92h.17v-1.92h.53v-.15h-1.23v.15ZM67.23,26.79h.83v-.15h0s-.83,0-.83,0v-.77h.9v-.15h-1.07v2.07h1.08v-.15h-.91v-.84ZM69.41,25.7l.71,2.09h-.18l-.2-.59h-.78l-.2.59h-.18l.71-2.09h.13ZM69.68,27.04l-.34-1.09-.34,1.09h.68ZM71.56,27.58l-.62-1.87h-.28v2.07h.17v-1.91l.64,1.91h.17l.63-1.91v1.91h.17v-2.07h-.28l-.62,1.87ZM26.05,16.78c0-.11-.03-.12-.04,0l-.36,5.37.35.21.05-5.58ZM34.66,22.5c0,4.75-3.84,8.6-8.58,8.6-4.74,0-8.58-3.85-8.58-8.6s3.84-8.59,8.58-8.59c4.74,0,8.58,3.85,8.58,8.59ZM34.31,22.5c0-1.11-.32-1.78-.49-2.27-.13-.37-.41-.93-.53-1.16-.03-.05-.04-.06-.08-.09,0,.04,0,.06.03.11.1.19.31.68.46,1.16.21.65.33,1.37.33,2.26,0,1.41-.44,2.85-1.08,4,.04.09,0,.14-.11.17-1.41,2.29-3.91,3.79-6.77,3.79-2.68,0-4.82-1.45-5.5-2.21-.55-.61-.96-1.07-1.27-1.59l-.19.07c1.21,2.33,3.73,4.03,6.96,4.03,4.57,0,8.23-3.75,8.23-8.27ZM19.26,26.61l6.72-3.93v1.41l-6.48,2.51c1.36,2.24,3.76,3.67,6.57,3.67s5.25-1.43,6.61-3.67l-6.47-2.5v-1.41l6.46,3.77c.15.08.19.04.05-.06l-5.75-4.22.51-.3,5.35,4.51c.61-1.11,1.02-2.53,1.02-3.89,0-4.22-3.46-7.62-7.64-7.74l1.17,6.87-1.22.72-.04-7.59c0-.09-.06-.09-.07,0l-.69,7.2-.51-.3,1.1-6.9c-4.25.03-7.61,3.48-7.61,7.75,0,1.35.42,2.77,1.02,3.87l5.36-4.51.51.3-6.01,4.37c-.14.1-.1.15.06.06ZM19.2,26.5c-.44-.82-.61-1.37-.81-1.98-.02-.05-.03-.08-.05-.1-.01.03,0,.06,0,.1.12.67.42,1.5.71,2.1l.15-.12ZM34.3,20.94c-.71-3.91-4.05-6.83-8.2-6.83-4.65,0-8.4,3.81-8.4,8.51,0,1.11.28,2.17.66,3.14.17.45.73,1.47.87,1.67.03.04.04.06.08.09,0-.04,0-.06-.03-.11-.02-.04-.5-.96-.78-1.64-.23-.59-.53-1.76-.53-3.12,0-4.56,3.66-8.26,8.16-8.26,2.36,0,4.57,1.17,5.93,2.67,1.03,1.15,1.56,1.91,2.19,3.87.01.04.03.08.05.1.01-.03,0-.06,0-.1ZM25.89,22.57l-.34-.19-1.2.99c-.07.06-.04.08.04.04l1.49-.84ZM31.06,25.36l-4.42-3-.36.21,4.76,2.82c.09.05.1.02.02-.03Z"/>
</svg>