<?xml version="1.0" encoding="UTF-8"?>
<svg id="Layer_2" data-name="Layer 2" xmlns="http://www.w3.org/2000/svg" viewBox="0 0 90 45">
  <defs>
    <style>
      .cls-1 {
        fill: #787878;
      }
    </style>
  </defs>
  <path class="cls-1" d="M61.73,14.07s-.03,0-.05.02c0,0,.02,0,.05-.02Z"/>
  <path class="cls-1" d="M72.39,13.13c-.08-.1-.13-.21-.09-.23.03-.04,0-.06-.05-.06-.07,0-.1-.05-.06-.15.04-.09.04-.13,0-.1-.04.03-.13,0-.21-.09-.09-.08-.3-.27-.47-.4-.29-.23-.3-.25-.09-.21.21.05.21.04-.04-.16-.21-.18-.33-.21-.63-.17l-.36.05.21-.18.21-.18-.23.03c-.13.02-.29.05-.35.09-.06.03,0-.04.15-.17.3-.25.22-.3-.15-.11-.2.1-.23.11-.2,0,.05-.13-.18-.13-.3,0-.04.04-.02.04.05,0,.09-.05.11-.04.05.04-.04.08-.09.09-.16.02-.06-.06-.05-.14.03-.25.06-.09,0-.04-.13.09-.13.13-.23.21-.23.14,0-.07-.04-.06-.15.02-.1.09-.13.09-.08.02.04-.06.08-.2.1-.3.03-.15,0-.16-.14-.06-.09.05-.17.14-.17.18,0,.04-.05.06-.11.04-.2-.07-.52.1-.61.31-.07.19-.08.18-.08-.09,0-.15.03-.29.06-.29.1,0,.31-.46.24-.52-.03-.03-.04,0-.04.07s-.03.1-.05.06c-.03-.03.03-.17.13-.31.25-.36.24-.46-.04-.2-.13.12-.22.16-.22.11,0-.06.04-.11.08-.11.08,0,.37-.55.37-.71,0-.05-.05-.09-.11-.08-.06.02-.11-.03-.09-.1.02-.07-.03-.1-.12-.07-.07.04-.13,0-.13-.05,0-.07-.03-.06-.08.02-.06.1-.09.08-.12-.09-.03-.21-.04-.21-.22.1-.24.37-.25.33-.07-.18.16-.45.16-.47.04-.4-.04.03-.09-.02-.09-.11,0-.13-.02-.14-.09-.03-.08.12-.12.1-.27-.09-.1-.13-.18-.17-.18-.11,0,.09-.04.09-.14-.02-.14-.14-.45-.19-.7-.09-.13.04-.13.08-.04.2.1.12.1.13-.02.06-.12-.07-.12-.06,0,.08.12.13.11.16-.07.21-.14.04-.18.1-.14.21.04.1.02.17-.04.17-.07,0-.07.05,0,.19.2.36.04.25-.3-.19-.19-.25-.5-.57-.71-.72q-.37-.27-1.63-.27c-.9,0-1.31.04-1.41.13-.09.06-.13.14-.1.17.03.04.11.02.17-.04.2-.16.4-.03.34.22l-.05.22.39-.19c.21-.1.47-.25.55-.33.1-.08.14-.09.11-.04-.04.08,0,.12.1.12.13,0,.14.02.03.09-.1.06-.06.09.16.09.27,0,.42.16.18.19-.06,0,.04.04.24.08q.35.06-.13.08c-.36,0-.46.04-.36.1.07.04.1.1.04.11-.04,0,.15.04.45.07l.54.06h-.51c-.57.03-.81.2-.28.21.3,0,.31.02.12.07l-.22.07.27.05c.15.03.47.08.73.11.25.04.54.12.63.2q.15.13,0,.08c-.09-.03-.39-.07-.67-.1l-.51-.04.63.14c.34.07.68.18.76.23.12.07.11.08-.03.04-.08-.03-.47-.12-.87-.2-.76-.15-.87-.14-2.82.18-.78.13-1.05.21-.98.32.02.04-.07.12-.21.19-.13.07-.32.21-.43.32-.11.12-.25.21-.31.21-.07,0-.04.04.05.08.14.06.15.08.03.08-.08,0-.16.05-.18.12-.04.13.36.54.47.47.04-.03.1,0,.12.06.03.07.05.05.05-.04,0-.09.05-.13.1-.11.05.03.09,0,.09-.04s.04-.08.08-.04c.04.03.14,0,.21-.08.07-.07.15-.11.19-.08.03.04.05-.02.06-.12,0-.13.03-.12.08.05l.07.22v-.25c.02-.14.05-.23.11-.2.05.03.09-.02.09-.11,0-.13.02-.14.09-.03s.09.11.09-.03c0-.18.14-.21.21-.04.03.06.05.04.05-.05,0-.16.02-.16.18.03l.17.2.06-.27c.03-.15.04-.32,0-.38-.04-.06,0-.04.08.05.08.1.14.23.14.3,0,.06.04.1.08.07.04-.04.13.05.18.19.09.24.1.24.05-.06l-.04-.31.14.27c.13.26.13.26.08.03-.02-.13-.06-.3-.09-.4-.03-.09.04,0,.13.2.1.2.18.3.19.22,0-.07.06-.02.13.13l.13.27-.04-.31-.04-.31.16.34c.08.19.17.32.2.3.03-.03.09,0,.15.07.09.1-.06.13-.83.18-.51.04-.96.1-.97.14-.03.04-.13.05-.22.04-.11-.02-.16,0-.13.05.04.04-.02.08-.11.09-.09,0-.38.08-.65.17-.27.1-.4.16-.29.14.11-.02.2-.03.2,0s-.27.15-.59.3c-.97.46-1.91,1.06-1.91,1.22,0,.03.05.03.12,0,.07-.04.07-.02-.02.08-.06.08-.09.15-.04.15.04,0-.03.1-.14.22-.13.13-.16.22-.1.22s.1.05.07.12c-.02.05.02.16.09.23.11.1.13.09.18-.07.05-.22.2-.25.21-.04,0,.09.04.02.08-.15.04-.19.07-.24.08-.13,0,.11.07.22.14.25.1.04.15-.03.2-.23l.05-.29.1.35c.1.32.11.34.26.19.08-.09.15-.13.15-.09s.06,0,.13-.11c.12-.14.13-.14.08,0-.08.22.44-.28.66-.65.2-.32.45-.42.53-.21.03.07.08.11.12.08.09-.05.06.13-.04.31-.04.07.02.05.13-.04.07-.06.14-.11.19-.14,0,0,.02-.04.08-.11.13-.16.2-.2.18-.09-.04.2.03.21.21.06l.2-.17-.18.23c-.09.13-.21.21-.25.19s-.05,0-.03.04c.08.13.64.09.81-.05.19-.16.19-.03,0,.21-.16.18-.15.18.02.05.1-.07.22-.2.29-.27s.12-.09.12-.04-.18.28-.4.51l-.4.42h.34c.24,0,.3.03.2.09-.07.04-.24.09-.38.09-.31,0-.33.16-.02.2l.22.03-.28.31c-.15.17-.59.65-.97,1.07-.82.89-1.22,1.36-1.91,2.24-.29.37-.7.86-.91,1.11l-.38.44-1.84-1.78c-1.47-1.41-1.82-1.8-1.69-1.85.11-.04.08-.06-.12-.08-.21,0-.23-.03-.06-.05.22-.04.27-.21.06-.21-.07,0-.13-.04-.13-.09,0-.04-.07-.06-.15-.03-.13.04-.13.03.02-.1.1-.09.13-.13.07-.11-.05.04-.13,0-.17-.04-.04-.06-.03-.08.04-.04.05.03.13.02.15-.04.04-.07.13-.05.28.04.19.13.21.13.21,0,0-.08.08-.13.22-.13.16,0,.21-.04.16-.14-.04-.13-.03-.13.13-.05.1.05.21.08.23.05s.09.04.15.13c.05.11.24.25.43.32.3.13.34.13.43,0s.11-.13.16.02c.04.09.09.12.13.07.09-.13.29-.15.29-.04,0,.05.04.09.09.09.12,0,.12-.33,0-.4-.05-.04-.07-.09-.04-.13.1-.16-.3-.42-1.17-.78-1.25-.52-1.42-.56-2.11-.56-.56,0-.61,0-.48-.14.08-.07.14-.17.14-.21s.06-.06.13-.04c.09.04.13,0,.14-.11,0-.14.02-.13.11.04l.1.21.15-.3c.12-.21.16-.24.17-.13,0,.13.04.15.22.11.15-.04.28,0,.4.13.1.1.18.15.18.13,0-.04.05-.02.12.03.2.16.59.21.77.1.17-.11.16-.13-.16-.43-.66-.61-.55-.57-2.12-.58-.8,0-1.44,0-1.43-.03.02,0,.24-.09.51-.18.3-.09.48-.21.48-.29,0-.07.04-.16.09-.2.05-.04-.03-.07-.18-.08-.15,0-.2-.03-.11-.05.08-.02.15-.08.15-.13,0-.05-.04-.06-.11-.03-.06.04-.07.03-.04-.04.04-.05.1-.08.14-.05s.1,0,.13-.04c.03-.05.1-.07.16-.05.42.13.69.13.69,0,0-.09.05-.13.13-.09.19.07.17-.07-.04-.26-.14-.13-.27-.15-.66-.11-.26.03-.61.12-.77.2-.32.17-.87.72-.95.96-.03.09-.09.16-.13.16-.05,0-.06-.04-.04-.09.04-.05,0-.2-.09-.32-.08-.12-.12-.26-.09-.3.03-.05,0-.09-.08-.09-.07,0-.15-.05-.18-.12-.03-.08-.08-.06-.17.04-.07.09-.17.16-.23.16-.05,0-.1.04-.1.1s-.06.07-.14.04c-.13-.04-.14,0-.1.27.04.27.04.3-.07.21-.1-.08-.13-.08-.13,0,0,.05-.05.1-.13.1-.21,0-.25.28-.08.53.13.21.13.22,0,.11-.18-.14-.21-.04-.04.16.06.08.16.24.21.37.09.21.07.22-.12.22-.12,0-.29-.08-.38-.16-.21-.2-.27-.19-.25,0,0,.09-.04.15-.12.13-.06,0-.17.02-.24.08-.06.05-.15.08-.19.05-.09-.05-.3.17-.23.24.04.03-.03.05-.13.05-.25,0-.47.09-.47.2,0,.04.04.05.09.03.19-.12.08.06-.22.37-.21.21-.31.39-.31.57,0,.29.08.54.17.54.13,0,.53-.42.59-.63l.07-.22.07.21c.11.29.21.19.34-.3.06-.23.13-.39.16-.37.03.03-.04.34-.14.7-.11.35-.18.66-.15.68.03.03.08-.02.11-.1.04-.13.08-.13.13-.04.06.09.08.08.08-.03,0-.08.05-.2.13-.25.07-.06.11-.18.08-.26-.02-.09,0-.25.04-.38.06-.18.08-.13.07.22,0,.34-.08.55-.3.89-.45.68-.68,2.31-.41,2.83.06.13.12.29.12.36,0,.08.03.1.07.04.04-.05.13-.13.23-.15.17-.06.17-.21.02-.89-.04-.16-.03-.23.04-.2.04.03.06,0,.04-.07s0-.16.05-.2c.07-.04.07-.09,0-.18-.09-.1-.07-.12.08-.09.13.03.17,0,.13-.07-.11-.17-.1-.44.02-.47.05-.03.21,0,.36.05.13.05.27.08.29.05.02-.02-.13-.1-.35-.18-.21-.08-.28-.13-.13-.1.19.04.24.02.19-.05-.04-.07-.03-.08.04-.04.12.07.55-.03.55-.13,0-.04-.07-.1-.15-.12-.15-.04-.15-.04,0-.05.18,0,.21-.15.04-.21-.06-.02-.02-.02.11,0,.13.03.23.05.25.06,0,.02-.03.45-.08.96-.12,1.04-.07,2.18.09,2.34.07.07.1.04.1-.14,0-.13.04-.24.1-.24.06,0,.08-.09.04-.22-.04-.18-.03-.21.1-.16.09.04.13.02.09-.04-.04-.05-.02-.12.04-.13.07-.03.04-.13-.11-.34-.12-.16-.16-.27-.1-.23.09.06.1.03.05-.13-.06-.18-.05-.2.06-.11.11.09.13.08.12-.05,0-.1-.07-.24-.14-.33-.12-.14-.11-.14.07-.03.11.06.23.09.27.05.04-.04,0-.11-.06-.15-.07-.05-.09-.09-.04-.09.05,0,.09-.14.09-.31,0-.17.02-.31.05-.31.11,0,.26.32.26.55,0,.3.23.92.3.78.03-.08.05-.05.05.06,0,.11.06.3.13.44.11.21.13.21.17.07.04-.13.04-.13.05.04,0,.24.19.38.19.14,0-.13.02-.13.08-.04.05.09.09.07.14-.09.06-.17.08-.14.11.2.03.28.06.36.13.27.06-.12.08-.11.08.02,0,.08.08.18.18.21.1.03.18.13.18.22,0,.21.33.46.51.38.11-.04.11-.07,0-.2-.06-.08-.12-.22-.12-.32,0-.1-.05-.23-.13-.3-.12-.09-.12-.1.03-.05.26.09.78-.04.72-.19-.03-.07-.12-.14-.2-.16-.09-.03-.02-.04.14-.05.35,0,.38-.16.04-.21q-.23-.04.04-.05c.34,0,.39-.24.09-.37-.12-.04-.16-.08-.12-.09.05,0,.03-.04-.04-.09-.11-.07-.1-.09.05-.09.13,0,.4.21.73.55.79.82,2.08,2.32,2.08,2.41,0,.08-.34.58-1.07,1.61-.94,1.31-1.24,1.79-2.25,3.47-.38.62-.8,1.39-.95,1.71-.14.33-.3.62-.36.65-.05.03-2.12.05-4.6.05h-4.52l-.44.22c-.74.38-.8.5-.82,2.08-.03,1.25-.02,1.4.16,1.77.11.21.34.51.52.64.3.23.38.24,1.47.28l1.14.03v1.06h-.72v-.72h-2.5v2.78l2.44-.03c2.41-.03,2.43-.03,2.72-.24.53-.39.61-.69.61-2.24s-.08-1.87-.64-2.29c-.32-.25-.38-.26-1.48-.3l-1.14-.03v-.97h.72v.72h2.33v.54h2.06v-.63c0-.5.03-.63.13-.63.12,0,.13.29.13,2.01v2.01h-.45v2.06h3.58v-2.06h-.54v-1.11c0-.8.03-1.13.12-1.16.09-.04.09-.06,0-.11-.08-.04-.12-.27-.12-.72,0-.53.03-.66.13-.66s.13.12.13.49v.49h2.06v1.94c0,1.79.02,1.98.18,2.24.24.39.68.64,1.14.64.41,0,.44-.04.46-.69,0-.16.07-.41.14-.55.16-.3.19-1.85.04-1.94-.04-.03-.08-.34-.08-.71,0-.54-.03-.68-.15-.75-.14-.08-.14-.13.04-.72.21-.63.57-1.08.89-1.08.1,0,.13-.05.08-.21-.03-.12-.02-.32.03-.47.05-.22.12-.27.33-.27.25,0,.26,0,.26.46,0,.43,0,.47.31.63.27.14.35.27.56.88.19.55.22.73.14.83-.07.07-.09.31-.05.66.04.49.03.57-.15.74-.32.3-.4,1.38-.15,1.97.11.23.19.54.19.66,0,.31.2.55.43.55.25,0,.71-.4.91-.81.17-.32.18-.54.18-3.3,0-3.17,0-3.22-.47-3.64-.37-.34-.81-.4-2.53-.37-1.82.03-2.12.12-2.5.68l-.21.31-.03-.48c-.03-.47-.04-.48-.31-.51l-.29-.03.38-.79c.21-.43.51-1.02.67-1.31.16-.3.41-.75.55-1.01.64-1.17,2.05-3.25,2.15-3.19.21.13,1.42,1.89,2.08,3.02.54.91,1.57,3.01,1.57,3.18,0,.05-.14.1-.31.1h-.31v2.06h.54v4.02h-.54v2.06h3.04l.02-1.53.03-1.52.8,1.52.8,1.53h2.37l.02-3.02.03-3.01.25-.03.24-.03v-2.05h-3.04v3.09l-.61-1.12c-.33-.62-.7-1.31-.82-1.55-.17-.32-.28-.42-.45-.43-.49,0-.71-.26-1.46-1.69-.4-.77-.88-1.63-1.05-1.91-.44-.72-1.92-2.72-2.35-3.18l-.37-.38.17-.3c.09-.15.26-.41.38-.55.12-.15.38-.5.58-.78.21-.28.75-1.01,1.22-1.63l.84-1.13h.37s.37.02.37.02l-.27.12q-.27.13-.04.14c.2,0,.18.02-.09.11-.17.05-.32.1-.33.1,0,0-.04.13-.08.27l-.06.26.53-.05.53-.05-.42.14c-.24.08-.43.18-.43.21,0,.13.3.17.64.07.47-.13.55-.04.08.11-.28.08-.34.13-.27.22.06.08.04.13-.07.16-.09.03.02.04.24.02.22-.02.33-.02.25,0-.09.02-.16.08-.16.13q0,.1.32,0c.14-.04.38-.11.53-.13.26-.05.25-.04-.06.13-.19.1-.34.21-.34.23s.04.03.08,0c.04-.04.15-.03.23,0,.13.04.13.07-.05.22-.18.13-.19.15-.04.1.16-.05.15-.03-.06.26-.25.33-.25.46,0,.36.13-.04.14-.04.02.13-.13.15-.12.16,0,.06.08-.06.17-.1.2-.07.04.03.04.02.02,0-.02-.04.05-.13.17-.22.13-.1.23-.31.28-.55.06-.35.07-.36.13-.16q.06.21.11-.09t.13-.09c.1.21.11.21.12-.13.02-.31.03-.33.09-.13.05.16.07.06.08-.38,0-.7.13-.78.26-.18l.09.43.02-.45.02-.45.1.4c.1.38.1.38.13.13.04-.23.04-.25.11-.09.06.14.08.1.09-.18.02-.31.03-.33.09-.13l.07.22v-.23c.02-.13.08-.26.15-.3.1-.04.13-.2.14-.56q.02-.5.08-.16.06.36.08-.13c.02-.37.04-.45.1-.31.05.12.08-.06.08-.56,0-.57.04-.75.14-.79.07-.04.12-.08.1-.12-.02-.03.06-.05.19-.05q.21,0,.03.13c-.17.12-.17.13-.04.29.09.1.12.21.07.28-.17.26-.12.36.1.21.19-.13.21-.13.17,0-.04.07-.09.13-.13.13-.04,0-.12.07-.16.16-.07.13-.05.16.07.15.09,0,.28-.09.42-.18.21-.13.23-.13.14-.02-.07.08-.1.18-.07.22.03.05-.02.14-.11.21-.14.12-.14.11-.02-.05.1-.14.1-.15,0-.07-.13.13-.21.41-.08.33.13-.08.09.07-.07.27-.09.11,0,.04.18-.13.23-.21.32-.26.28-.14-.05.13-.04.15.06.1.1-.05.11-.04.02.05-.14.14-.15.3-.02.21.07-.04.07,0,0,.13-.05.11-.14.21-.21.25-.06.04-.07.03-.04-.04.04-.06.08-.21.1-.35.02-.21,0-.21-.09-.08-.06.08-.1.26-.08.39,0,.13-.02.3-.07.37-.07.08-.07.14,0,.18.04.04.08.15.07.26,0,.12.03.17.07.14.05-.04.07,0,.03.11-.04.13-.04.14.08.04.16-.13.18-.31.03-.21-.07.04-.08.02-.04-.09.04-.09.03-.13-.03-.1-.05.04-.06,0-.03-.1.04-.1.07-.12.1-.05.02.06.07.09.12.06.04-.04.05.02.03.11-.04.14-.04.14.09,0,.08-.1.14-.13.14-.08,0,.06-.04.13-.1.16-.04.04-.07.11-.05.16.02.06,0,.2-.04.31-.06.15-.05.19.03.14.07-.04.08,0,.04.11-.06.16-.05.16.08,0l.14-.18-.04.18c-.03.1-.07.28-.11.4l-.05.22.13-.21.13-.21.09.26c.08.23.09.2.15-.34.09-.87-.05-2.07-.45-3.83q-.17-.76.29-.88c.52-.14.62-.09.11.06-.27.09-.34.13-.24.2.11.06.11.08,0,.08-.07,0-.11.02-.08.04s.14,0,.26-.04c.19-.08.2-.09.04-.1-.1,0-.13-.04-.08-.05.05-.03.19,0,.3.04q.21.08-.08.18c-.16.05-.27.14-.23.2.03.04,0,.09-.05.09s-.09.02-.07.04c.03.02.24-.02.48-.09.5-.15.66-.12.18.04-.18.06-.3.13-.29.14.02.03.13,0,.25-.04.12-.04.34-.11.48-.14l.27-.05-.22.14c-.13.08-.15.12-.06.09.56-.18.55-.11,0,.16-.36.17-.65.33-.65.36,0,.04.46-.11,1-.34.5-.21.53-.16.05.09-.51.26-.56.37-.1.17.18-.07.34-.12.37-.09.03.03,0,.04-.04.04s-.18.09-.3.19c-.21.17-.21.17.17,0,.21-.11.36-.15.32-.1-.03.05,0,.1.05.1.05,0-.04.12-.23.27l-.33.26.29-.04c.15-.02.35-.08.43-.14.08-.06.04.02-.12.19l-.27.3.27-.17.27-.16-.22.25c-.21.23-.21.24-.03.14.28-.14.36-.13.15.04-.09.07-.13.13-.09.13s.02.07-.04.15c-.11.13-.09.13.13,0,.28-.19.31-.11.09.15-.14.16-.14.18-.02.13.13-.04.13-.03.03.19-.26.53-.16,1.09.2,1.09.06,0,.13.05.15.11.03.06.05.02.06-.11.02-.21.03-.21.09.04.07.32.14.2.22-.44.04-.31.08-.4.14-.31.13.2.1,0-.1-.86-.21-.88-.21-.95-.08-.76.08.11.09.1.04-.04-.03-.1-.13-.45-.22-.77-.17-.64-.47-1.16-.92-1.66-.3-.32-.4-.52-.41-.74,0-.12,0-.12.08,0,.13.21.11-.02-.08-.55-.29-.81-.3-.85-.11-.52.1.18.26.62.36.97.21.76.25.81.35.53q.08-.21.14.08c.04.16.1.27.14.24s.09,0,.11.06c.03.06.06.07.09.03.03-.05-.11-.47-.3-.94-.33-.82-.44-1.21-.27-1.02.04.04.19.38.33.73l.25.65.15-.3c.09-.16.16-.23.17-.16,0,.11.02.12.08,0,.05-.09.1-.04.14.18.06.28.07.29.19.13.12-.15.13-.14.13.14,0,.23.02.27.07.13q.07-.17.17,0c.05.1.11.14.11.1,0-.05.06,0,.13.09q.13.16.13-.04c0-.12.04-.19.08-.16.18.11.15-.18-.03-.38l-.19-.21.22.12c.21.12.22.11.06-.06ZM62.67,14.1c-.06.1-.13.16-.15.13s0-.11.06-.19c.16-.19.21-.17.09.05ZM51.49,16.95c-.11-.07-.1-.09.07-.09.11,0,.2.04.2.09,0,.12-.1.12-.27,0ZM54.06,17.82c-.06-.03-.02-.04.11-.04s.17.02.12.04c-.06.02-.17.02-.22,0ZM54.39,18.11c-.16-.07-.15-.08.06-.08.13,0,.27.03.3.08.06.11-.11.11-.36,0ZM63.51,15.89c.1,0,.15.02.12.04-.03.03-.11.04-.17,0-.07-.03-.04-.05.05-.05ZM63.33,16.15c.1,0,.15.02.12.04-.03.03-.11.04-.17,0-.07-.03-.04-.05.05-.05ZM63.02,14.54c.05,0,.09.02.09.04,0,.03-.04.07-.09.1-.04.03-.09,0-.09-.04,0-.05.04-.1.09-.1ZM63.11,16.84c-.54.13-.55.14-.31.21.26.05.25.06-.08.07-.34,0-.35,0-.2-.16.15-.17.44-.24.95-.25.13,0-.04.05-.36.13ZM63.52,16.41c-.14.04-.35.07-.45.07-.14,0-.13-.02.04-.07.13-.04.32-.07.45-.07.2,0,.2,0-.04.07ZM66.21,9.71s-.07-.04-.1-.09c-.03-.05,0-.09.04-.09.05,0,.1.04.1.09,0,.04-.02.09-.04.09ZM66.82,14.36s.07.04.1.09c.03.04,0,.09-.04.09-.05,0-.1-.04-.1-.09,0-.05.02-.09.04-.09ZM66.74,14.98c-.1,0-.04-.25.07-.3.14-.06.51-.07.51-.02,0,.04-.49.31-.58.31ZM68.3,14.54c-.07.04-.17.09-.22.09-.04,0-.03-.04.04-.09s.18-.09.22-.09c.05,0,.03.04-.04.09ZM68.73,12.79s-.08-.02-.11-.11c-.05-.13-.04-.13.04-.05.06.06.09.13.06.16ZM68.67,11.25c-.09.08-.1.07-.04-.05.03-.09.08-.13.11-.11.03.03,0,.1-.06.16ZM69.17,13.2c-.09-.06-.15-.18-.15-.26,0-.16.03-.14.18.16.11.21.11.21-.03.1ZM69.54,13.45c0,.13,0,.13-.05,0-.03-.07-.09-.21-.13-.31q-.08-.18.05,0c.08.1.14.24.13.31ZM71.14,12.85c-.03.07-.05.04-.05-.05,0-.1.02-.15.04-.12.03.03.04.11,0,.17ZM71.49,12.5c-.03.07-.05.04-.05-.05,0-.1.02-.15.04-.12.03.03.04.11,0,.17ZM71.76,12.76c-.03.06-.04.02-.04-.11s.02-.17.04-.12c.02.06.02.17,0,.22Z"/>
  <path class="cls-1" d="M61.84,14.03s0-.03-.07,0c-.02,0-.03.02-.04.02,0,0,.01,0,.01,0,.03.02.07,0,.1-.04Z"/>
  <path class="cls-1" d="M69.54,10.87c.13-.21.09-.23-.07-.04-.06.08-.1.15-.08.18.03.02.09-.04.15-.13Z"/>
  <path class="cls-1" d="M62.46,11.24c.03-.06.02-.14,0-.17-.03-.04-.05.02-.04.12,0,.1.03.13.05.05Z"/>
  <path class="cls-1" d="M59.89,12.28c0-.08.04-.21.06-.29.05-.14-.1-.21-.17-.08-.02.04,0,.17.04.3.04.13.06.16.07.07Z"/>
  <path class="cls-1" d="M59.62,12.3c.05,0,.1-.04.1-.09,0-.05-.02-.09-.04-.09-.03,0-.07.04-.1.09-.03.04,0,.09.04.09Z"/>
  <path class="cls-1" d="M61.16,14.03c.06-.06.09-.13.06-.16-.03-.03-.08.02-.11.11-.05.13-.04.13.04.05Z"/>
  <path class="cls-1" d="M70.29,14c0,.13.02.17.04.11.02-.05.02-.16,0-.22-.03-.05-.04,0-.04.12Z"/>
  <path class="cls-1" d="M70.05,16.06s-.21.08-.36.18c-.14.09-.22.17-.18.17.05,0,.21-.08.36-.18.15-.1.23-.18.18-.17Z"/>
  <path class="cls-1" d="M71.25,16.73s.04.15.09.22.09.09.09.04c0-.05-.04-.15-.09-.22s-.09-.1-.09-.04Z"/>
  <path class="cls-1" d="M68.22,19.87c0,.1.03.13.05.05.03-.06.02-.14,0-.17-.03-.04-.05.02-.04.12Z"/>
  <path class="cls-1" d="M43.97,27.59v-1.07h-.27c-.21,0-.28-.04-.31-.21-.02-.11-.29-1.44-.58-2.96s-.55-2.78-.57-2.8c-.04-.04-3.82-.04-3.85,0,0,.02-.25,1.31-.53,2.89-.28,1.57-.53,2.92-.55,3.01-.03.09-.14.14-.3.14-.26,0-.27-.02-.27-.44v-.43h-2.41v.88h-.33s-.34-.03-.34-.03l-.03-.55-.03-.55.83-.03.83-.03.03-.97.03-.96h-1.71v-.89h.8v.67l1.07-.03,1.07-.03v-2.67l-3-.03-3-.03v2.1h.54l-.02,1.99c-.03,1.7-.04,1.99-.16,2-.07,0-.19.02-.24.03-.09,0-.12.28-.12,1.04v1.03h9.1l.05-.24c.03-.14.07-.46.1-.7.12-.97.1-.94.59-.94.24,0,.44.03.45.06,0,.04.05.46.11.92l.11.85,1.46.03,1.45.02v-1.07ZM40.35,24.91c-.18,0-.22-.04-.19-.16.02-.08.07-.38.11-.64.07-.55.15-.46.26.33.06.47.06.47-.18.47Z"/>
  <path class="cls-1" d="M44.87,26.58h-.24s-.25-.02-.25-.02l-.03,1.05-.03,1.06h3.05l.02-1.57.03-1.57.18.34c.1.2.46.89.8,1.53l.63,1.19h.45c.25,0,.79.03,1.2.06l.73.05v-6.1l.25-.03.24-.03.03-.99c.03-1.12.04-1.08-.65-1.06-.2,0-.81.02-1.36.03l-1.01.02v3l-.3-.54c-.17-.3-.51-.94-.77-1.43-.27-.49-.52-.95-.56-1.01-.07-.08-.48-.11-1.51-.11h-1.42v2.15h.54v4Z"/>
  <path class="cls-1" d="M26.71,25.45h1.07v1.07h-.72v-.72h-2.41v2.86h2.22c1.96,0,2.25-.03,2.58-.17.79-.36.97-.88.91-2.66-.03-1.2-.04-1.28-.28-1.63-.37-.56-.6-.64-1.9-.66h-1.12v-.97h.36c.35,0,.36,0,.36.31v.31h2.33v-2.68h-2.25c-2.17,0-2.27,0-2.61.21-.65.38-.72.54-.75,1.97-.04,1.4.04,1.78.39,2.21.4.47.64.54,1.82.54Z"/>
  <path class="cls-1" d="M24.1,34.88v-1.34s-.03-1.34-.03-1.34l-.61-.04-.6-.04.34-.58c.33-.57.34-.58.76-.61l.42-.03v-2.05h-2.49l-.16.33c-.08.19-.34.72-.56,1.19l-.41.85-.03-1.19-.03-1.18h-3.21v2.06h.54v4.02h-.54v2.06h3.22l.02-1.46.03-1.45h.63l.03,1.45.02,1.46h3.13v-2.05l-.23-.03-.23-.03Z"/>
  <path class="cls-1" d="M27.61,34.93v-3.93l.25-.03.24-.03v-2.06l-1.66-.03c-.91,0-1.68,0-1.72.04-.04.04-.06.5-.06,1.03,0,.89.02.97.18,1.02.1.03.21.03.27,0,.06-.04.09.64.09,2.01,0,1.6-.03,2.07-.11,2.05-.32-.04-.34,0-.34.99v.98h3.4v-2.06h-.54Z"/>
  <path class="cls-1" d="M32.93,28.89l-.04,1.49-.04,1.5-.35-.68c-.19-.38-.55-1.06-.8-1.52l-.45-.84h-2.92v2.06h.54v4.02h-.54v2.06h3.04l.02-1.54.03-1.55.8,1.54.8,1.55h2.46v-6.08h.45v-2.06l-1.49.02-1.5.03Z"/>
  <path class="cls-1" d="M39.28,31.93l-.03,1-.03,1.01h.28q.27,0,.27.49v.49h-.72v-3.99l.36.04c.32.04.36.06.36.29v.26l1.16.03,1.16.03v-2.73h-2.21c-1.23,0-2.28.04-2.35.06-.35.13-.66.46-.86.87-.21.45-.21.5-.21,3.23s0,2.79.21,3.18c.38.76.38.76,3.11.79l2.41.03v-5.11l-1.45.02-1.46.03Z"/>
  <path class="cls-1" d="M59.16,36.92c-.19-.04-.35-.56-.42-1.36-.04-.52-.07-.58-.26-.59-.11,0-.21,0-.24.03-.03.03-.04.17-.04.32s-.08.44-.17.64-.14.4-.13.46c.02.05-.03.15-.11.21-.07.06-.13.17-.13.23,0,.1.18.13.83.12.45,0,.75-.03.67-.05Z"/>
</svg>