<?xml version="1.0" encoding="UTF-8"?>
<svg id="Layer_2" data-name="Layer 2" xmlns="http://www.w3.org/2000/svg" viewBox="0 0 90 45">
  <defs>
    <style>
      .cls-1 {
        fill: #787878;
      }
    </style>
  </defs>
  <path class="cls-1" d="M24.04,21.87c0,.21.1.36.3.44.2.09.49.17.86.26.2.04.4.1.61.18.2.07.39.17.56.3.17.12.3.28.41.46.1.18.16.41.16.67,0,.33-.06.61-.18.83-.12.23-.29.41-.49.55-.2.14-.44.24-.71.31-.27.06-.55.09-.84.09-.42,0-.82-.08-1.22-.23-.39-.15-.72-.37-.98-.65l.88-.83c.15.19.34.35.58.48.24.13.5.19.79.19.1,0,.2-.01.3-.03.1-.02.19-.06.28-.11.09-.05.15-.11.21-.2.05-.08.08-.18.08-.3,0-.22-.1-.38-.31-.48-.2-.1-.51-.19-.92-.29-.2-.04-.4-.1-.59-.17-.19-.07-.36-.16-.51-.28-.15-.12-.27-.26-.36-.43s-.13-.38-.13-.64c0-.3.06-.56.18-.77.12-.22.28-.39.48-.53.2-.14.43-.24.68-.31.25-.07.51-.1.78-.1.39,0,.76.07,1.13.2.37.13.66.34.88.62l-.87.77c-.12-.16-.28-.29-.49-.41-.21-.12-.44-.17-.68-.17-.22,0-.41.04-.59.13-.18.09-.27.24-.27.45ZM33.36,21.94c.15.35.23.73.23,1.16s-.08.81-.23,1.16c-.15.35-.36.65-.62.9-.26.25-.57.45-.93.59-.36.14-.74.21-1.14.21s-.78-.07-1.14-.21c-.36-.14-.67-.34-.93-.59-.26-.25-.47-.55-.62-.9-.15-.35-.23-.74-.23-1.16s.08-.81.23-1.16c.15-.35.36-.64.62-.89.26-.25.57-.44.93-.57.36-.13.74-.2,1.14-.2s.78.07,1.14.2c.36.13.67.32.93.57.26.25.47.54.62.89ZM32.23,23.1c0-.21-.03-.42-.09-.62-.06-.21-.16-.39-.28-.55-.13-.16-.29-.3-.48-.4-.19-.1-.42-.15-.69-.15s-.5.05-.69.15c-.19.1-.35.23-.48.4-.13.16-.22.35-.28.55-.06.2-.09.41-.09.62s.03.42.09.63c.06.21.16.39.28.56.13.16.29.3.48.4.19.1.42.16.69.16s.5-.05.69-.16c.19-.1.35-.24.48-.4.13-.16.22-.35.28-.56.06-.21.09-.42.09-.63ZM38.43,23.39c0,.18-.03.36-.08.53-.05.18-.13.33-.23.46-.1.13-.23.24-.39.33-.16.09-.34.13-.55.13s-.39-.04-.52-.13c-.13-.09-.23-.2-.31-.34-.07-.14-.12-.29-.15-.46-.02-.17-.03-.34-.03-.49v-2.98h-1.34v3.36c0,.28.04.55.11.81.07.26.19.49.35.69.16.2.36.36.61.49.25.12.55.18.9.18.4,0,.75-.1,1.04-.31.29-.21.5-.44.62-.71h.02v.86h1.27v-5.37h-1.34v2.95ZM44.24,20.28c-.36,0-.67.1-.94.29s-.47.45-.62.76h-.02v-.9h-1.28v5.37h1.34v-2.88c0-.1.02-.23.06-.39.04-.16.11-.32.21-.48.1-.16.25-.29.43-.4.19-.11.43-.17.74-.17.06,0,.12,0,.18.01.06,0,.14.02.23.05v-1.23s-.1-.02-.16-.03c-.06,0-.12,0-.17,0ZM46.67,21.95c.12-.16.28-.3.46-.4.18-.1.4-.15.65-.15.21,0,.43.05.63.15.21.1.36.23.47.38l.91-.81c-.21-.26-.51-.47-.88-.62-.37-.15-.75-.22-1.14-.22s-.76.07-1.11.2-.65.32-.91.57-.47.54-.62.89c-.15.35-.23.74-.23,1.18s.08.85.23,1.2.36.65.62.9c.26.25.57.43.92.56.35.13.73.19,1.12.19s.77-.07,1.12-.2c.35-.13.63-.31.85-.55l-.84-.85c-.13.16-.29.28-.5.36-.21.08-.42.12-.62.12-.25,0-.47-.05-.66-.15-.19-.1-.35-.23-.47-.4-.13-.16-.22-.35-.28-.55-.06-.21-.09-.41-.09-.62s.03-.41.09-.62c.06-.21.15-.39.27-.56ZM55.58,21.92c.13.36.19.79.19,1.27v.18c0,.06,0,.12-.01.18h-4.07c.01.19.06.37.15.53.09.16.2.3.34.41.14.12.3.21.48.27.18.07.36.1.56.1.33,0,.62-.06.85-.18.23-.12.42-.29.57-.51l.89.72c-.53.72-1.29,1.07-2.3,1.07-.42,0-.8-.06-1.15-.2-.35-.13-.65-.32-.91-.55-.26-.24-.46-.53-.6-.88-.15-.35-.22-.74-.22-1.18s.07-.83.22-1.18c.15-.35.34-.66.6-.91.25-.25.55-.44.9-.58.35-.14.72-.21,1.12-.21.37,0,.71.06,1.03.18.32.12.59.31.82.55.23.24.41.54.54.91ZM54.44,22.58c0-.17-.02-.34-.07-.49-.05-.16-.12-.29-.23-.41-.1-.12-.24-.21-.4-.29-.16-.07-.35-.11-.56-.11-.4,0-.74.12-1.02.36-.28.24-.43.55-.46.93h2.74ZM67.3,23.59c-.31.35-1.26.86-2.29,1.39,0,.05.03.11.09.19-.02.08-.04.12-.07.12h-.06v-.07h-.06v.2c0,.09-.08.21-.23.39,0,.09-.02.18-.06.3v.05s.1.01.14.04c-.04.09-.06.18-.06.27h-.06l-.06-.02-.03.05.18.14c-.14.05-.21.16-.21.35v.03c-.13,0-.19.06-.19.19v.02h.03l.14-.1h.02l.06.02-.19.2v.02l.02.15-.02.05.02.12c-.07.42-.16.66-.28.73,0,.02.01.03.03.03-.02.03-.03.05-.03.06h-.06s-.06-.03-.09-.1c.02-.03.03-.06.03-.1l-.06-.02s-.03.05-.08.07l-.18-.02s-.02.06-.02.07h-.05c-.21-.06-.31-.12-.31-.19,0-.09-.05-.13-.14-.13.14-.44.25-.94.34-1.49.15-.47.22-.76.22-.88v-.03c-.09,0-.47.17-1.14.52-.11,0-.42.54-.92,1.62,0,.2-.11.37-.34.49h-.08s-.23-.08-.54-.1c-.05-.06-.1-.13-.14-.22.02-.11.03-.2.03-.27v-.02s-.01-.03-.03-.03c.1-.27.22-.55.35-.86-.38.16-.64.26-.7.31-.79.34-1.22.53-1.3.59,0,.09-.13.17-.4.25-.33.25-.55.37-.65.37-.02,0-.05,0-.1-.03-.13.09-.22.13-.27.13-.11,0-.22-.06-.34-.15h-.12s-.03,0-.03.02c-.41-.15-.62-.38-.62-.68,0-.14.15-.45.47-.93.39-1.5.7-2.56.92-3.19.83-2.26,1.34-3.76,1.55-4.5.17-.54.31-1.08.43-1.62.09-.15.21-.22.34-.22.23,0,.52.14.86.41.04.24.1.39.18.46v.06c-.11,0-.22.25-.31.75-.08.1-.28.62-.59,1.54-.04.28-.14.53-.28.75-.06.13-.09.23-.09.28v.06c.06,0,.09.02.09.06l-.3.75s-.08.02-.13.02v.13s.03.06.06.06c-.02.16-.13.32-.34.49,0,.14-.05.27-.16.38l.03.06v.22h.03v.03l-.1.12s.06.03.06.06v.06s-.02.06-.06.06h-.15v.03l.06.22s-.06.13-.18.31v.03l.06.09-.09.16s.06.02.06.06c-.06.15-.17.54-.31,1.18-.02,0-.04.03-.06.09.02,0,.03,0,.03.03.28-.06,1.64-.53,3.2-1.06.19-.4.4-.81.63-1.26.73-1.64,1.36-3.22,1.9-4.75.13-.28.42-1.13.86-2.53.11-.09.18-.13.19-.13.64.17.95.39.95.64l.06.22c-.05.12-.1.65-.14,1.59-.02,0-.04.03-.06.1.02.03.02.06.02.1v.02s-.04,0-.07.02l.02.05s-.03.23-.08.59v.18c-.05.32-.09.49-.12.51l.03.1-.03.22.03.1-.19.85.02.05-.06.12h.03c-.05.18-.09.27-.12.27l.03.05v.17c-.09,0-.14.03-.14.08v.07l.1.02v.02s-.06.15-.07.35c-.12,0-.2.15-.23.46.02.04.02.06.02.08-.02,0-.05.02-.07.06v.13h.02l.08-.05h.03s0,.05.02.05l-.02.05v.12s0,0,0,.01c.77-.25,1.37-.44,1.6-.48-.2.12-.48.24-.7.34l1.18-.43-1.32.8,1.12-.54ZM65.78,20.97h.03s.05-.01.05-.04v-.08h-.02s-.06.02-.06.06v.06ZM65.63,21.76h.09v-.15h-.03s-.06.02-.06.05v.1ZM65.61,21.95h.08v-.06h-.08v.06ZM64.91,20.19s-.02-.05-.06-.05c-.05.09-.08.15-.08.19v.02h.05c.06-.02.09-.06.09-.15v-.02ZM64.69,19.63h.14c.05,0,.12-.12.21-.37-.02-.15-.03-.23-.03-.27.03-.11.05-.18.05-.23v-.13s-.02-.04-.05-.04l-.2.36.08.1v.02c-.11,0-.17.07-.19.2v.03c.06.06.09.11.09.15-.03,0-.06.02-.09.07v.1ZM64.52,20.19s.02.05.02.08h.03l.09-.06-.03-.13c0-.09.05-.15.14-.19.03.07.05.13.05.17h.12v-.06c0-.13-.06-.23-.19-.27l-.06-.05s-.06.02-.08.02v.08c-.06.24-.09.38-.09.41ZM64.16,21.27c.04.05.06.1.06.13h.02l.09-.06-.03-.24.03-.13-.06-.02s-.06.14-.11.31ZM64.01,21.61l.06.02.08-.1v-.02s-.02-.05-.06-.05h-.06c-.02.09-.03.14-.03.15ZM63.82,22.22h.09v-.03s-.02-.05-.06-.05h-.03v.07ZM63.71,22.57s.02.05.06.05c.04-.09.06-.14.06-.18l-.06-.02c-.04.05-.06.1-.06.15ZM63.34,24.6c.21-.07.42-.14.63-.21.21-.1.32-.19.32-.28.3-1.35.43-2.45.43-2.79-.04,0-.06-.02-.06-.05v-.06h.11v-.09s0-.02-.02-.02c.07-.27.1-.45.1-.51v-.12h-.03l-.14.09h-.02l-.06-.02c-.03.09-.09.13-.17.13v.1c.12,0,.2.04.25.12v.06c-.14.05-.22.19-.22.41-.1.11-.14.19-.14.25.04,0,.07.05.11.12l-.06.03s-.03-.05-.09-.07h-.02l.02.17s-.05.03-.07.08v.04c.09.09.13.14.13.18-.02.1-.04.15-.08.15,0-.03-.04-.06-.11-.1h-.06s-.07.11-.09.32l.03.15s-.08.05-.17.15l.03.1c-.02.16-.06.24-.11.24-.03-.02-.07-.02-.11-.02,0,.06-.06.19-.17.38v.02h.03l.09-.06h.06c-.04.15-.06.23-.06.25.04,0,.06.02.06.05-.13.33-.22.49-.27.49-.03-.02-.07-.02-.12-.02v.15s.03.05.09.05v.03l-.09.09v.02s.02.05.05.05ZM64.57,26.29v.08h.03s.06-.02.06-.06v-.02h-.09Z"/>
</svg>