<?xml version="1.0" encoding="UTF-8"?>
<svg id="Layer_2" data-name="Layer 2" xmlns="http://www.w3.org/2000/svg" viewBox="0 0 90 45">
  <defs>
    <style>
      .cls-1 {
        fill: #787878;
      }
    </style>
  </defs>
  <path class="cls-1" d="M24.11,21.47l.23-.15-6.73-4.65s3.29-1.49,5.21-3.29h0s5.2,3.58,5.2,3.58c0,0-1.09.92-2.52.92-.05,0-.1,0-.15,0-.56-.03-.77-.1-1.07-.27-.32-.19-2.73-1.84-2.73-1.84l-.23.18,6.72,4.65s-3.28,1.41-5.2,3.25l-5.24-3.58s1.1-.89,2.49-.89c.45,0,.62.03.95.14.33.11,3.07,1.96,3.07,1.96ZM31.79,21.69s.74.37,2.29.37,2.54-.03,3.3-.56c.88-.61,1.12-1.88.35-2.65-.52-.52-1.18-.59-1.51-.7-.28-.1-2.01-.32-2.26-.35-.25-.03-.69-.14-.69-.39,0-.36.41-.44.64-.44s1.03.03,1.26.65h2.8s.05-.69-.52-1.2c-.57-.51-1.7-.79-3.07-.79h0c-1.37,0-2.35.11-3.01.54-.66.43-.78.87-.78,1.54,0,.55.46,1.19,1.24,1.51.93.38,2.27.36,2.66.44.26.05.97.09.97.54,0,.3-.4.4-.82.4-.55,0-1.13-.3-1.13-.71h-2.94s-.21,1.28,1.23,1.8ZM49.83,20.31l3.41-3.21v-1.42h-7.12s0,1.64,0,1.64h3.53l-3.53,3.18v1.37s7.12,0,7.12,0v-1.56h-3.41ZM54.84,21.71c.54.33,1.4.35,2.75.35s2.04-.13,2.68-.58c.64-.46.73-1.17.75-1.57v-4.21h0s-2.36,0-2.36,0c0,0,0,2.63,0,3.81,0,.39-.19.97-1.34.97-.99,0-1.24-.58-1.24-.95v-3.83h-2.31s0,3.68,0,4.21c0,.95.57,1.51,1.06,1.81ZM63.97,17.73v-2.03h-2.46v6.17h2.44v-2.05s2.29,2.06,2.29,2.06h3.23l-3.37-3.18,3.6-3h-3.3s-2.43,2.03-2.43,2.03ZM72.5,21.87v-6.17h-2.51v6.17h2.51ZM39.59,21.71c.55.32,1.4.35,2.75.35s1.9-.05,2.55-.5c.54-.37.68-.96.68-1.66v-4.21h0s-2.16,0-2.16,0c0,0,0,2.63,0,3.81,0,.39-.19.97-1.34.97-.99,0-1.24-.58-1.24-.95v-3.83h-2.31s0,3.68,0,4.21c0,.69.26,1.34,1.06,1.81ZM38.51,29.06h1.04l-.53-1.8-.51,1.8ZM72.5,31.61H17.5v-6.7h55v6.7ZM36.14,25.74h-1.99l-.89,3.13-.89-3.13h-1.99v5.02h1.48s0-1.7,0-1.7l-.03-.78-.07-.74h.01l.91,3.22h1.14l.91-3.22h.01l-.08.91-.02.78v1.54h1.48v-5.02ZM41.67,30.77l-1.8-5.02h-1.67l-1.8,5.02h1.61l.19-.66h1.64l.19.66h1.64ZM46.7,30.61c-.2,0-.17-.22-.17-.88,0-1.01-.32-1.14-.85-1.33.59-.16.84-.65.84-1.23,0-.98-.55-1.43-2.23-1.43h-2.37v5.02h1.65v-1.75h.5c.77,0,.88.22.88.87,0,.45.04.77.08.88h1.67v-.15ZM48.86,25.74h-1.65v5.02h1.65v-5.02ZM54.48,25.74h-1.58v1.6l.06,1.14-1.79-2.74h-1.54v5.02h1.58v-1.59l-.06-1.14,1.79,2.74h1.54v-5.02ZM59.45,29.59h-2.55v-.79h2.07v-1.17h-2.07v-.72h2.45v-1.17h-4.1v5.02h4.19s0-1.17,0-1.17ZM44.34,26.91h-.77v1h.65c.51,0,.78-.13.78-.47s-.28-.52-.66-.52Z"/>
</svg>