<?xml version="1.0" encoding="UTF-8"?>
<svg id="Layer_2" xmlns="http://www.w3.org/2000/svg" version="1.1" viewBox="0 0 90 45">
  <!-- Generator: Adobe Illustrator 29.3.1, SVG Export Plug-In . SVG Version: 2.1.0 Build 151)  -->
  <defs>
    <style>
      .st0 {
        fill: #787878;
      }
    </style>
  </defs>
  <path class="st0" d="M29.1,22.6c0,2.5,0,5,0,7.5,0,.7-.2.8-.8.8-1.3,0-2.5,0-3.8,0-.4,0-.7,0-.7-.6,0-5.2,0-10.5,0-15.7,0-.4,0-.6.5-.6,1.4,0,2.8,0,4.2,0,.6,0,.5.4.5.7v7.8h0ZM66.4,22.5c0-2.6,0-5.2,0-7.7,0-.6-.2-.7-.7-.7-1.3,0-2.6,0-4,0-.4,0-.6.1-.6.6,0,5.2,0,10.5,0,15.7,0,.5.1.6.6.6,1.3,0,2.6,0,4,0,.6,0,.7-.2.7-.7,0-2.6,0-5.2,0-7.7M33.5,14.2c0,5.5,0,10.8,0,16.2,0,.5.1.6.6.6,1.3,0,2.6,0,4,0,.5,0,.7-.2.6-.7,0-2,0-3.9,0-5.9,0-.4-.1-.7-.3-1-1.4-2.8-2.8-5.6-4.3-8.3-.2-.3-.2-.6-.7-.9M56.6,14c-1.7,3.3-3.3,6.5-4.9,9.6-.1.2-.1.5-.1.7,0,2,0,4,0,6,0,.5.2.7.7.6,1,0,2.1,0,3.1,0,.9,0,1.4-.5,1.4-1.5v-14.3c0-.3,0-.7-.2-1.1M72.4,8.4c0-.7-.1-.9-.9-.9-6,0-12,0-18.1,0-.6,0-.9.2-1.2.7-2.3,4.5-4.7,9-7,13.5-.2,0-.2-.2-.3-.3-2.3-4.4-4.6-8.9-7-13.3-.2-.4-.4-.6-1-.6-6.1,0-12.3,0-18.4,0-.5,0-.7.1-.7.7,0,1.2,0,2.5,0,3.7,0,.8.2.9.9.9,4.9,0,9.8,0,14.6,0,.7,0,1.1.2,1.5.9,2.4,4.6,4.8,9.2,7.2,13.9.3.6.6.8,1.2.7,1.2,0,2.3,0,3.5,0,.7,0,1.1-.2,1.4-.8,2.4-4.6,4.8-9.2,7.1-13.8.3-.6.7-.9,1.4-.8,4.9,0,9.8,0,14.7,0,.8,0,.9-.2.9-.9,0-1.1,0-2.3,0-3.4M19.8,37.4v-3.6h1.3v-.7h-3.5v.7h1.3v3.6h.9ZM22.5,37.4v-1.9h1.7v1.9h.9v-4.3h-.9v1.7h-1.7v-1.7h-.9v4.3h.9ZM29.3,37.4v-.7h-2.4v-1.2h2.2v-.7h-2.2v-1h2.3v-.7h-3.2v4.3h3.3,0ZM32.6,37.4v-3.4l.9,3.4h.8l.9-3.4v3.4h.8v-4.3h-1.3l-.8,3-.8-3h-1.3v4.3h.8,0ZM36.7,35.3c0,.7.2,1.2.6,1.6s.9.6,1.5.6,1.1-.2,1.5-.6c.4-.4.6-.9.6-1.7s-.2-1.3-.6-1.7c-.4-.4-.9-.6-1.5-.6s-.7,0-.9.2c-.2,0-.4.2-.6.4-.2.2-.3.4-.4.6-.1.3-.2.7-.2,1.1M37.6,35.2c0-.5.1-.9.3-1.1.2-.2.5-.4.9-.4s.7.1.9.4.3.6.3,1.1-.1.9-.3,1.1-.5.4-.9.4-.6-.1-.9-.4c-.2-.3-.3-.6-.3-1.1M42.4,37.4v-2.8l1.8,2.8h.9v-4.3h-.8v2.9l-1.8-2.9h-.9v4.3h.8ZM49.3,37.4v-.7h-2.4v-1.2h2.2v-.7h-2.2v-1h2.3v-.7h-3.2v4.3h3.3,0ZM52,37.4v-1.8l1.6-2.5h-1l-1,1.7-1-1.7h-1l1.6,2.5v1.8s.9,0,.9,0ZM57.5,37.4v-3.6h1.3v-.7h-3.5v.7h1.3v3.6h.9ZM62.7,37.4v-.7h-2.4v-1.2h2.2v-.7h-2.2v-1h2.3v-.7h-3.2v4.3h3.3,0ZM65.6,33.1h-.9l-1.7,4.3h.9l.4-1h1.7l.4,1h1l-1.7-4.3ZM64.5,35.7l.6-1.6.6,1.6h-1.2ZM68.6,37.4v-3.4l.9,3.4h.8l.9-3.4v3.4h.8v-4.3h-1.3l-.8,3-.8-3h-1.3v4.3h.8,0Z"/>
</svg>