<?xml version="1.0" encoding="UTF-8"?>
<svg id="Layer_2" data-name="Layer 2" xmlns="http://www.w3.org/2000/svg" viewBox="0 0 90 45">
  <defs>
    <style>
      .cls-1 {
        fill: #787878;
      }
    </style>
  </defs>
  <path class="cls-1" d="M44.82,5c9.63-.07,17.22,7.47,17.64,16.49.46,9.8-6.88,18.03-16.42,18.49-9.99.49-18.12-6.88-18.52-16.95-.39-9.62,7.32-17.89,17.3-18.03M58.31,22.43c0-7.39-5.93-13.34-13.31-13.35-7.37-.01-13.37,5.94-13.38,13.29-.01,7.38,5.95,13.39,13.28,13.4,7.46,0,13.41-5.92,13.41-13.34M53.49,17.32h-6.36v-6.86h-4.27v6.92h-6.05v4.02h16.68v-4.08ZM43.18,27.16v6.92h4.23c0-2.03.04-6.11-.02-8.07-.02-.79-1.81,1.06-.99,1.1,1.65.07,5.3.02,6.97.02v-4.02h-16.67v4.04h6.47Z"/>
</svg>