<?xml version="1.0" encoding="UTF-8"?>
<svg id="Layer_2" xmlns="http://www.w3.org/2000/svg" version="1.1" viewBox="0 0 90 45">
  <!-- Generator: Adobe Illustrator 29.3.1, SVG Export Plug-In . SVG Version: 2.1.0 Build 151)  -->
  <defs>
    <style>
      .st0 {
        fill: #787878;
      }
    </style>
  </defs>
  <path class="st0" d="M52.3,39.1c-.1,0-.2.1-.4.1-.2-.8-.5-1.7-.7-2.5.2,0,.4.1.5.2,0,.2,0,.3,0,.5.2.5.3,1.1.5,1.7h0ZM50.7,19.9h0s0,0,0,0h0ZM55.9,22.6h0s0,0,0,0c0,0,0,0,0,0,0,0,0,0,0,0,0,0,.1,0,.2,0,0,0-.1,0-.2-.1ZM54,38.2s0,0,0,0c0,0,0,0,0,0h0ZM41.5,28.5s0,0,0,0h0,0ZM36.9,16.3h0s0,0,0,0h.2c0-.1,0-.2,0-.2h-.2ZM52.2,38.3c.2.2.3.5.3.8,0,.1,0,.3-.1.4-.1,0-.3,0-.5,0,.1,0,.2.1.4.2.3,0,.6-.2.6-.5,0-.5-.3-.9-.4-1.4-.1.2-.2.3-.3.5ZM52.6,37.8s0,0,0,0c0,0,0,0,0,0h0ZM47.9,23.8h0s0,0,0,0h0ZM54.7,37.8c0,.2.1.3.2.5-.2,0-.5.2-.8.3-.3.1-.6.2-.9.3-.2-.4-.3-.9-.5-1.3-.1-.4-.3-.8-.4-1.2,0,0,.1,0,.2,0,.1,0,.3.1.4.2,0,.1,0,.2,0,.3.2.5.4,1,.5,1.5,0,0,.2,0,.3,0,0,0,0-.2,0-.2.1-.2.2-.4.3-.6.2,0,.4.1.6.2ZM54.4,38.1s0,0,0-.1c0,0-.2,0-.2,0,0,0,0,.2-.1.3,0,0,0,0,0,0h0s0,0,0,0c.1,0,.2,0,.3,0ZM50.2,19.7s0,0,0,0h0ZM60.5,20.9h0c0,.1,0,0,0,0-.1,0-.2,0-.3-.1,0,.1,0,.2,0,.4,0,.8,0,1.7,0,2.5s.1.9.3,1.3c0,0-.2,0-.3-.1,0,.3,0,.7,0,1v1.5c0,.5,0,1.1,0,1.6,0,.2.1.5.2.7h0c0,0-.2,0-.2,0,0,0-.1,0-.2,0,0,1.2,0,2.4,0,3.6,0,.9,0,1.8,0,2.7,0,.4,0,.8.2,1.1,0,0-.2.1-.3,0-.7-.3-1.4-.7-1.7-1.4-.3-.7-.2-1.4-.2-2.1-.5-.2-.8-.5-1.1-.9-.2-.3-.2-.6-.3-.9-.8-.3-1.3-1-1.4-1.9-.3-.3-.7-.5-.9-.9-.2-.3-.3-.7-.3-1.1,0-.1,0-.2,0-.4-.4-.3-.7-.6-.9-1-.1-.6-.1-1.2-.1-1.8h0c-.1-.2-.3-.4-.5-.5-.1-.1-.2-.3-.3-.4h0c0,0,0,0,0,0,0,.3,0,.5,0,.8.2,2.1.6,4.1,1,5.6h0s0,0,0,0c0,0-.1,0-.2,0,0,0-.2,0-.2,0,.2.9.5,1.7.9,2.6,0,0,.2,0,.3.1l.2.2c.1-.2.3-.5.5-.4.2,0,.4,0,.5.2,0,0,0,.2.1.2h0s0,0,0,0c.9.6,1.9,1.2,2.8,1.8,0,1.2,0,2.6,0,3.8-.6.3-1.1.6-1.7.9,0,0-.2,0-.3.1-2.5,1.2-5.1,1.9-7.8,2.2-.8,0-1.5.1-2.3.2-.2.1-.3.3-.5.4h0c-.2-.2-.4-.5-.7-.4-4.2-.1-8.3-1.3-11.9-3.4v-3.8c.2-.2.4-.3.7-.5.7-.4,1.3-.8,2-1.2h0c0-.2.2-.4.3-.5.2,0,.3,0,.5,0,.1,0,.2.1.2.2h.3c0,0,.2,0,.2,0,.2-.3.3-.6.5-1,.2-.5.4-1.1.5-1.6,0,0-.1,0-.1,0h-.1c0,0-.2,0-.3,0h0,0c.1-.5.2-1,.3-1.5,0-.2.1-.5.2-.7.2-1.1.4-2.3.5-3.6,0-.3,0-.6,0-.8,0,0,0,0,0,0h0c0,.2-.2.3-.3.4-.1.1-.3.3-.5.4h0c0,.6,0,1.2-.1,1.8-.2.4-.5.8-.9,1.1,0,.1,0,.2,0,.3,0,.4-.1.8-.3,1.1-.2.4-.6.7-1,.9,0,.8-.7,1.6-1.4,1.9-.1.3-.2.6-.3.9-.3.4-.6.7-1.1.8,0,.7,0,1.4-.2,2.1-.3.7-1,1.2-1.7,1.4,0,0-.2,0-.3,0,.1-.4.2-.8.2-1.1,0-.9,0-1.8,0-2.7,0-1.2,0-2.4,0-3.6,0,0-.1,0-.2,0h-.2c0,0,0,0,0,0,.1-.2.2-.5.2-.7,0-.5,0-1.1,0-1.6v-1.5c0-.3,0-.6,0-1,0,0-.2,0-.3.1h0s0,0,0,0c0,0,0,0,0,0,.2-.4.3-.8.3-1.2,0-.8,0-1.7,0-2.5,0-.1,0-.2,0-.4,0,0-.2,0-.3.1h0s0-.1,0-.1c.3-.5.3-1.1.3-1.7h0v-1.1c0-.6,0-1.3,0-1.9,0-.8,0-1.6,0-2.4v-.2c0-.5.1-.9.3-1.3h0c.5-1.2,1.2-2.3,2-3.1.5-.4,1.2-1,2.1-1,.7,0,1.3.4,1.9.8.2,0,.4.2.6.3.2,0,.3.1.5.2.7.2,2.7.6,3.4.4.5-.1,1-.3,1.4-.7.2-.2.3-.5.5-.7h0c0-.1,0-.2,0-.2,0-.2,0-.4,0-.6-.1-.5-.5-1-1-1.4h0c-.3,0-.7,0-1.1,0,0,0,0,.2,0,.3v.2s0,0,0,0h0c-.1-.1-.2-.3-.3-.5-.1-.4,0-.9.2-1.2,0-.2.2-.3.4-.4,0,0,.2-.1.2-.2.1-.2.2-.3.4-.5,0,0,.1-.2.2-.3h0c.7-.5,1.7-1,2.8-1h0c.4,0,.8,0,1.1.2,1.3.5,2.3,1.6,3.2,3.4.1.2.2.5.3.7,0,.2.2.4.2.5,0,.2.2.4.3.6.1.2.3.5.5.8.3.4.6.8,1,1,.6.2,1.2.2,2-.1.1,0,.3-.1.5-.2.2,0,.4-.2.6-.3.6-.3,1.2-.7,1.9-.8h0c.9,0,1.6.6,2,1,.8.8,1.5,1.9,2,3h0c.2.5.3,1,.3,1.4,0,.9,0,1.7,0,2.6,0,.7,0,1.3,0,1.9v1h0c0,.6,0,1.2.3,1.7h0ZM41,5.4c.3,0,.5,0,.8.2-.4-.4-.6-1.1-.6-1.7,0,0,0,.1-.1.2,0,0,0,.1-.1.2-.3.3-.7.4-.8.8,0,.2,0,.4,0,.5.3,0,.5-.1.8-.2ZM41.9,5.9h0c-.3,0-.5-.3-.8-.3-.2,0-.4.2-.6.3.3,0,.6,0,.9,0,.1,0,.3,0,.4,0,0,0,0,0,.1,0h0ZM30.9,23.5c.3-.4.5-.9.5-1.4,0-.3,0-.6,0-.9v-1.2s0,0,0,0c0,0,0,0,0,0,0,0,0,0-.1,0,0,0,0,0,0,0h0s0,0,0,0c0,0,0,0-.1,0,0,0,0,0,0,0,0,0,0,0-.1,0,0,0,0,0-.1,0,0,0,0,0,0,0,0,0,0,0,0,0,0,0-.1,0-.1,0h0c0,.9,0,1.8,0,2.6s0,.5-.2.8h0c.2-.1.5-.3.7-.5ZM30.5,28.1c0,.2,0,.4-.2.6.5-.3.9-.7,1.1-1.2,0-.2,0-.4,0-.6v-2.8h-.2c-.1.1-.3.2-.4.3-.1.1-.3.2-.4.3v1.6h0c0,.6,0,1.2,0,1.8ZM31.5,34.7c0-1.5,0-2.9,0-4.4,0-.4,0-.7,0-1.1,0-.2,0-.4,0-.6h0s0,0-.1,0c-.1,0-.2.2-.3.3,0,0,0,0,0,0,0,0,0,0,0,0,0,0-.1,0-.2.1,0,0-.1,0-.2,0v.5c0,.8,0,1.6,0,2.4,0,0,0,.2,0,.2h0c0,1.1,0,2.2,0,3.2,0,.3,0,.5-.1.8,0,0,0,0,0,0h0s0,0,0,0c.6-.3,1.1-.9,1.1-1.6ZM31.8,22.5s0,0,0,.1c0,.1,0,.3,0,.5.4-.2.8-.6,1-1,.2-.5.1-1,.1-1.5,0-.5,0-1,0-1.5h0c0,0,0,0,0,0-.3.2-.6.5-.9.7h0c0,.2,0,.3,0,.4h0c0,.8,0,1.6,0,2.4ZM31.9,27.7c.3-.2.6-.4.8-.7,0,0,0-.2.1-.3.1-.4.1-.8.1-1.2v-2.3s0,0-.1.1c-.1,0-.2.1-.4.2-.2.1-.3.2-.5.4h0c0,.2,0,.4,0,.5s0,.3,0,.5h0c0,.2,0,.3,0,.4v2.2c0,0,0-.1,0-.2,0,.2,0,.3,0,.5h0ZM33,31.6c.2-.5,0-1,0-1.4v-2.5h0s0,0-.1,0c0,.1-.2.2-.4.3,0,0-.1,0-.1,0,0,0,0,0-.1,0-.1,0-.2.1-.3.2h0c0,.8,0,1.6,0,2.4s0,.4,0,.7c0,.4,0,.9,0,1.4,0,0,.1,0,.2,0,.4-.3.7-.7.8-1.1h0c0,0,0,0,0,0ZM33.4,21.4c0,.2,0,.5,0,.7.4-.2.7-.6.9-1.1.1-.5,0-1,0-1.5v-.3c0-.3,0-.6,0-.9h0s0,0,0,0c0,0,0,0,0,0,0,0-.2,0-.2,0,0,0-.2,0-.3.1,0,0-.1,0-.2.1h0c0,0,0,0,0,0h0s0,0,0,0c0,.9,0,1.7,0,2.6ZM33.5,24.5v1.7s0,0,0,0c.3-.2.5-.5.7-.8,0,0,0,0,0,0,.2-.5.2-1,.2-1.5v-.7c0-.3,0-.5,0-.8h0c0,0-.2,0-.3,0-.2,0-.3.2-.5.3,0,0-.1.1-.2.2h0c0,.3,0,.6,0,.8v.8h0,0ZM34.5,28.6c0-.8,0-1.6,0-2.3h0s0,0,0,0c0,0-.1.1-.2.2h0c0,0-.1.1-.2.2-.1.1-.3.2-.4.3h0c0,.8,0,1.5,0,2.2,0,.6,0,1.3,0,1.9.4-.3.8-.8.9-1.3h0c0-.4,0-.8,0-1.2ZM34.9,21.3c.3-.3.5-.6.7-1,0-.1,0-.2,0-.4,0-.3,0-.6,0-1,0-.5,0-1,0-1.5h0c-.1,0-.2.1-.3.2,0,0,0,0,0,0,0,0,0,0,0,0-.1,0-.2.2-.4.3h0c0,1,0,1.9,0,2.9,0,.1,0,.3-.1.4,0,0,.1,0,.1,0ZM35.6,23.8s0,0,0,0c0-.2,0-.3,0-.5v-1.1c0-.2,0-.4,0-.6h0c-.2.1-.5.3-.8.5v1.8h0s0,0,0,0v.9c0,0,0,.2,0,.2.4-.3.6-.7.7-1.1ZM35.7,26.1c0-.3,0-.7,0-1h0c-.1,0-.2.2-.3.3-.1.1-.2.2-.4.3h0c0,1.2,0,2.3,0,3.4,0,0,0,0,.1,0,.2-.3.5-.6.6-1h0c.1-.6,0-1.3,0-1.9ZM36.2,22.8v.2c.3-.2.5-.4.7-.7,0-.1.1-.2.1-.3v-.3c0-.4,0-.9,0-1.3h0c-.1,0-.2.2-.4.3,0,0,0,0,0,0-.1.1-.3.3-.4.4h0v.8c0,.3,0,.6,0,.9h0ZM37,23.6v-.6h0c0,0,0,0,0,0,0,0,0,0,0,0h0s0,0,0,0c0,0-.1.2-.2.2,0,0-.1.1-.1.1,0,0,0,.1-.1.2h0c0,0,0,.1,0,.1h0s0,0,0,0c0,0,0,0,0,0h0c0,1.1,0,2.1,0,3.1,0,0,.1,0,.1,0h0c0,0,.1-.1.1-.2.2-.2.4-.4.5-.7h0c0-.8,0-1.6,0-2.4ZM37.1,16.2h0s-.2.1-.2.1h0c0,.1-.1.2-.2.3,0,0-.2.2-.2.3-.1,0-.2.2-.3.3h0c0,.9,0,1.8,0,2.8s0,.5,0,.7c.3-.3.7-.6.8-1.1,0-.6,0-1.2,0-1.8,0-.5,0-.9,0-1.3h0s0,0,0,0h.2ZM37,32.6c0,.2,0,.4-.1.6,0,0,0,0,.1,0,0,0,.2,0,.3-.1.2,0,.3.1.4.2h0c0,0,0-.2.2-.3,0,0,0-.2,0-.3,0-.1,0-.2,0-.3,0,0,.1-.1.2-.2.1-.1.2-.2.3-.4,0-.2,0-.3.1-.4,0-.2.1-.3.1-.5-.1,0-.2.2-.3.3,0,0-.1.1-.2.2h0s0,0,0,0c0-.3,0-.7,0-1h0c-.1,0-.2.2-.3.3-.1.2-.2.3-.2.5,0,.2,0,.3-.2.5,0,0,0,.2-.1.4,0,0,0,.2,0,.2,0,0,0,.1-.1.2,0,0-.1.1-.1.2h0s0,0,0,0ZM38.2,30.1s0,0,0,0h0s0,0,0,0c0,.4,0,.8.1,1.1,0-.4,0-.8-.1-1.1h0ZM38.3,30h0s0,0,0,0h0s0,0,0,0ZM41.5,28.4h0s0,.3,0,.3c0,.2-.1.4-.2.5-.1.4-.2.8-.3,1.2-.2.6-.3,1.2-.5,1.7-.1.5-.2,1-.5,1.4.2,0,.4,0,.6,0,.3,0,.5-.3.6-.6.2-1,.4-2,.7-2.9,0-.3.2-.6.2-.9h0c.1-.4.2-.8.3-1.2,0,0,0-.2,0-.2h0c0-.3,0-.5.1-.7-.4.1-.8.4-.8.8h0s0,0,0,0c0,.2,0,.3-.1.5h0,0s0,0,0,0h0ZM42.8,34.4h0c.2.2.5.3.7.1.4-.2.5-.6.5-.9,0-.7,0-1.4.2-2.1,0-.5,0-1,0-1.5,0-.7.1-1.5.1-2.2v-.4h0c-.3-.2-.5-.3-.8-.3,0,.2,0,.3,0,.5,0,.5-.2,1.1-.2,1.7-.1.7-.2,1.4-.3,2.1h0c-.1.7-.2,1.3-.3,2,0,.3,0,.6.2.9ZM43.3,27.1c-.2,0-.3,0-.6,0-.1.4-.2.8-.3,1.2,0,.3-.1.5-.2.8,0,0,0,.2,0,.2h0c-.2,1.2-.5,2.4-.7,3.6,0,.4-.2.8-.3,1.2,0,0,0,.2,0,.2.2,0,.4.1.6,0,.2,0,.2-.2.3-.4.2-1.3.4-2.6.6-3.9.1-.6.2-1.3.3-1.9h0c0-.3.1-.7.2-1ZM40.9,29.3c0-.4.2-.7.3-1.1-.2.2-.4.5-.5.7,0,0,0,.1-.1.2-.4.5-.7,1.1-1,1.8-.1.3-.2.6-.3.9v.2s-.1-.2-.1-.2c0,0,0,0,0,0,0,0,0-.1,0-.1-.1.2-.2.3-.3.5-.2.4-.5.8-.6,1.3,0,.6.3,1.2.7,1.6,0,0,0,0,0,0,1.8.5,3.6.9,5.5,1h0c.2.1.4.3.6.4.2-.1.4-.3.6-.4h0c1.6,0,3.1-.3,4.6-.7.3,0,.6-.2.8-.3h0c.2-.3.5-.6.6-.9,0-.3.2-.6,0-.9-.2-.5-.5-1-.8-1.6h0c0,.1,0,.2-.1.2v.2c-.1,0-.1-.2-.1-.2,0-.5-.2-.9-.4-1.3-.4-.8-.9-1.6-1.4-2.2.2.9.5,1.7.7,2.6.4,1,.5,2.2,1.2,3h0s0,0,0,0c-.5.2-1,.2-1.5.1,0,.1,0,.2,0,.3,0,.1,0,.2-.2.3-.3.2-.6.3-.9.2-.2,0-.3-.2-.4-.3-.1.4-.5.6-.8.7-.4,0-.7-.2-1-.5-.1.4-.5.6-.8.8h0s0,0,0,0c-.2-.1-.4-.3-.6-.5,0-.1-.2-.2-.2-.4-.2.4-.7.6-1.2.4-.3-.1-.5-.4-.6-.7,0,0-.2.2-.3.2-.4.2-.8,0-1.1-.2-.1,0-.1-.2-.1-.3v-.3c-.5.1-1,.1-1.4,0h0s0,0,0,0c.4-.6.7-1.3.9-2,.2-.9.5-1.8.8-2.6h0s0,0,0,0ZM44.8,34.9c.4-.2.5-.7.5-1.1,0-.9,0-1.7,0-2.6,0-1.2,0-2.3,0-3.5-.1.1-.2.3-.3.4h0c0,0,0,0,0,0,0-.1-.1-.3-.2-.4,0,0,0,0-.1,0,0,.9,0,1.8,0,2.6,0,1.3,0,2.6,0,3.8h0c0,.3.2.5.4.7ZM47.1,27.1c-.2,0-.4,0-.5,0,0,.6.2,1.1.3,1.7h0c0,.5.1,1.1.2,1.6.2,1.2.3,2.3.5,3.5,0,.3.4.5.7.5,0,0,.2,0,.3-.2,0-.3,0-.5-.1-.8-.2-.7-.3-1.5-.4-2.2,0-.2,0-.5-.1-.7-.1-.7-.2-1.3-.4-2h0c0-.5-.2-.9-.3-1.4ZM47.9,29.6c0,.4.2.9.3,1.3,0,.4.2.8.3,1.2,0,.1,0,.3,0,.4.1.3,0,.7.4,1,.2.2.6.1.9.1-.2-.4-.3-.9-.5-1.4-.1-.4-.2-.9-.3-1.3,0-.3-.1-.5-.2-.8,0-.4-.2-.7-.2-1,0-.2,0-.3-.1-.5,0-.3-.1-.7-.2-1h0c-.2-.3-.5-.5-.8-.6h0c.2.8.4,1.6.6,2.5ZM46.6,29.1c0-.2,0-.3,0-.5,0-.5-.2-.9-.2-1.4-.2,0-.3,0-.5.1,0,0-.1,0-.2,0h0c0,.3,0,.6,0,.9,0,.6,0,1.3,0,1.9,0,.8,0,1.6,0,2.4,0,.4,0,.7,0,1.1,0,.4.3.9.7.9.4,0,.6-.3.7-.6,0-.4,0-.8-.1-1.2,0-.4-.1-.7-.1-1.1,0-.2,0-.3,0-.5h0c-.1-.6-.2-1.2-.3-1.8h0c0-.1,0-.3,0-.4ZM52.6,33.8v-.2c0,0,0,0-.1-.1,0,0-.1,0-.2,0,0,0-.1.1-.2.2,0,.1-.1.2-.2.4-.1.2-.3.5-.4.7.1,0,.2-.1.3-.2,0-.1.1-.2.2-.3,0,0,0-.1.1-.2h0s0,0,0,0c.1.1.2.3.2.5,0,.1,0,.2,0,.4v.2c0,.2,0,.3,0,.4,0,0,0,0,.2,0h.1s0,0,0,0c0,0,.1-.1.1-.2h0c0-.2,0-.4,0-.5,0,0,0-.2-.1-.3,0,0,0,0,0-.2,0,0,0,0,0,0,0-.2,0-.4,0-.5ZM37.8,34h0c.1.2.2.4.4.6h0s0,0,0,0h0s0,0,0,0h0s0,0,0,0h0c-.1-.2-.2-.4-.3-.5-.1-.2-.2-.5-.4-.7,0,0-.1,0-.2,0-.2.1-.2.3-.2.5h0c0,0,0,.1,0,.2,0,0,0,.1,0,.2,0,0,0,0,0,0,0,0,0,0,0,0,0,0,0,0,0,0,0,0,0,.2,0,.2h0c0,.1,0,.2,0,.3,0,0,0,.2,0,.3h0c.1.2.3.3.5.3,0-.2,0-.4,0-.6h0c0-.2,0-.4,0-.5,0-.1,0-.3.1-.4h0s0,0,0,0c0,0,0,0,0,0h0ZM36.2,34h0c0,0,0,.2,0,.3,0,0,0,.1,0,.2,0,.1,0,.2,0,.4,0,.1,0,.3.1.4,0,0,.1,0,.2,0h.1c.1-.2.2-.5.2-.7v-.4h0c0-.1,0-.1,0-.2,0,0,0,0,0,0,0,0,0,0,0,0,0,0,0,0,.1.1,0,0,0,0,0,0v-.3c0-.2,0-.5-.3-.8,0,0-.2,0-.2-.1,0,.2-.1.4-.2.7,0,0,0,.2,0,.2ZM35.3,34.2c0,.2-.1.4,0,.6,0,.2.3.3.5.2.1,0,.2,0,.2-.2,0-.2,0-.4,0-.6,0-.2,0-.3,0-.5h0c0-.1,0,0,0,0h0s0,0,0,0h0c0,0,0-.1,0-.2,0,0,0,0,0-.1,0,0,0,0,0-.1-.2-.3-.4-.4-.6-.4h0s0,0,0,0c0,0,0,0,0,0,0,0,0,.1,0,.2v.5s0,0,0,0c0,0,0,.1,0,.2h0ZM54.6,34c0,.2.1.5.2.8,0,.4-.5.6-.7.9h0c0,0,0-.2,0-.3-.2.2-.4.5-.7.6,0-.1,0-.2,0-.3-.2,0-.3,0-.5.3,0,.1-.2.2-.3.2,0,0,0-.2,0-.2-.3-.1-.4-.4-.4-.7,0,0,0,0,0,0-.9.3-1.7.6-2.6.8-1.2.2-2.4.4-3.6.5-.3,0-.5.3-.8.4-.3,0-.5-.4-.8-.4-.9,0-1.8-.1-2.7-.3-1.3-.2-2.5-.6-3.7-1.1h0s0,0,0,0c0,.3-.1.7-.5.8,0,0,0,.2,0,.2-.3-.2-.4-.5-.7-.6v.4c0,0-.2-.1-.2-.2-.1-.1-.3-.3-.4-.4,0,0,0,.2,0,.3-.3-.1-.5-.3-.7-.6-.2-.3,0-.7,0-1h0c0,0,0-.1-.1-.1,0,0,0,0,0,0-.5.4-1,.7-1.6,1-.2.1-.4.2-.5.4,0,.1,0,.3,0,.4v2.8c.4.2.8.4,1.2.6,1.1.5,2.2,1,3.4,1.3,1.2.4,2.5.7,3.8.8.7,0,1.4.2,2,.2.4,0,.9,0,1.3,0,.2,0,.4.5.6.2.1,0,.2-.2.4-.2,1.1,0,2.3-.1,3.4-.3,1.5-.2,2.9-.6,4.3-1,.9-.3,1.7-.6,2.5-1,.1,0,.3-.1.4-.2.3-.1.6-.3.8-.4,0-1,0-2.1,0-3.1-.7-.5-1.5-1-2.2-1.5,0,0-.2,0-.2,0h0s0,0,0,0h0ZM53.7,33.8l.2-.2h0c0,.3,0,.5,0,.7,0,.2,0,.4,0,.5h0c0,.2.2.2.2.2.2,0,.3,0,.4-.2.1-.2,0-.4,0-.6,0,0,0-.2,0-.3,0,0,0,0,0,0h0v-.4c0-.2,0-.3,0-.4-.1,0-.2,0-.4.1-.2.2-.3.4-.3.6ZM52.9,34.1c0-.1.1-.2.2-.2h0s0,.9,0,.9c0,.2.1.4.2.5.2,0,.4-.2.4-.5h0c0,0-.2,0-.2-.1,0,0,0-.2,0-.3,0-.2,0-.3,0-.5,0,0,0-.1,0-.2v-.2c0,0,0-.1-.1-.2h0c-.2,0-.4.2-.4.4h0s0,0,0,0v.4ZM52.3,31.6c-.1-.2-.1-.3-.2-.5,0-.1,0-.2,0-.3,0-.2-.3-.4-.4-.6,0,.2,0,.3,0,.5,0,0,0,.2,0,.3,0,0,0,.2,0,.3h0c0,0,0,0,0,0-.2-.2-.3-.3-.5-.5,0,.2,0,.4.1.5s0,.2.1.3c0,.2,0,.3.2.5h.1c0,.2.2.3.2.5,0,.2,0,.4.2.6v.2c.1,0,.2,0,.2,0h0c.1-.1.2-.2.4-.2,0,0,.2,0,.2,0,0,0,0,0,.1,0,0,0,0-.2,0-.3,0-.1,0-.3,0-.4,0,0,0,0,0,0,0,0-.2-.2-.2-.3,0,0,0-.1,0-.1h0c0-.1,0-.3-.1-.4ZM53.7,27.1s0,0,0,0c0-1,0-2,0-3h0c0-.2-.1-.2-.2-.3,0,0-.1-.1-.2-.2,0,0-.1-.2-.2-.3,0,0,0-.1-.1-.2h0v.7c0,.8,0,1.6,0,2.4,0,.3.3.5.5.7s0,0,.1.1h0s0,0,0,0c0,0,0,0,0,0h0ZM53,17.8c0,.6,0,1.2,0,1.8.1.5.5.8.8,1.1,0-.2,0-.5,0-.7,0-.9,0-1.8,0-2.7h0c-.1-.1-.2-.2-.4-.3-.2-.2-.3-.4-.4-.5h0c0,0,0,0,0,0,0,.4,0,.9,0,1.3ZM55,25.9c0,0-.1,0-.2-.1,0,0-.1,0-.2-.1-.1-.1-.2-.2-.3-.3h0c0,.4,0,.7,0,1,0,.7,0,1.3,0,2,0,.4.3.7.6,1,0,0,0,0,.1,0v-3.3h0ZM55,22.2c-.2-.2-.5-.4-.8-.5,0,0,0,0,0,0,0,0,0,0,0,0,0,0,0,0,0,0,0,.2,0,.4,0,.6v1.1c0,.2,0,.3,0,.5s0,0,0,0c.1.4.4.8.7,1.1v-.2c0-.3,0-.6,0-.9v-1.8h0s0,0,0,0h0ZM55.2,21.5c0-.1,0-.3-.1-.4,0-.9,0-1.9,0-2.8h0c-.3-.2-.5-.5-.8-.7h0c0,.6,0,1.1,0,1.6,0,.3,0,.7,0,1,0,.1,0,.2,0,.3.1.4.4.7.7,1,0,0,.1,0,.2,0ZM56.4,27.2h0c0,0,0,0,0,0-.1,0-.2-.1-.3-.2,0,0,0,0,0,0h0s0,0,0,0c-.1,0-.2-.2-.3-.3,0,0,0,0,0,0h0c0,.8,0,1.6,0,2.4,0,.4,0,.8,0,1.2.1.5.4,1,.9,1.3,0-.6,0-1.3,0-1.9,0-.7,0-1.5,0-2.2ZM56.5,23.1h0c0,0,0-.1-.2-.2,0,0-.1-.1-.2-.2,0,0,0,0,0,0,0,0-.1,0-.2,0,0,0,.1,0,.2,0,0,0-.1,0-.2-.1h0s0,0,0,0c0,0,0,0,0,0,0,0,0,0,0,0,0,0,0,0-.1,0,0,0-.2,0-.3,0h0c0,.3,0,.6,0,.8v.7c0,.5,0,1,.2,1.5,0,0,0,0,0,0,.2.3.4.6.7.8,0,0,0,0,0,0,0-.5,0-1.1,0-1.7v-.8h0c0-.3,0-.5,0-.8ZM56.6,22.3c0-.2,0-.5,0-.7,0-.9,0-1.7,0-2.6h0s0,0,0,0h0c0,0-.1-.1-.2-.2,0,0,0,0,0,0,0,0-.1,0-.2,0h0s-.2,0-.2,0c0,0-.2,0-.2,0h0c0,.4,0,.7,0,1v.3c0,.5,0,1,0,1.5h0c.2.5.5.9.9,1.1ZM57.9,33c-.1-.4,0-.9,0-1.4,0-.2,0-.4,0-.7,0-.8,0-1.6,0-2.4h0c-.2-.1-.3-.2-.4-.3,0,0-.1,0-.1,0,0,0-.1-.1-.2-.2,0,0-.1,0-.2-.2,0,0,0,0,0,0h0c0,.9,0,1.7,0,2.5s0,1,0,1.4h0c.1.5.5.9.8,1.2h0s.1,0,.1,0ZM58,27.8c0-.2,0-.3,0-.5,0,0,0,.1,0,.2v-2.2c0-.1,0-.2,0-.3h0c0-.2,0-.4,0-.6,0-.2,0-.3,0-.5h0c-.4-.2-.6-.5-1-.7v.7c0,.2,0,.5,0,.7v.9c0,.4,0,.8.1,1.2,0,0,0,.2.1.3h0c.2.3.4.6.8.7ZM58.1,23.2c0-.1,0-.3,0-.5,0,0,0-.1,0-.1,0-.8,0-1.6,0-2.4,0-.1,0-.2,0-.4h0c-.3-.2-.6-.5-.9-.7,0,0,0,0,0,0h0c0,.5,0,1,0,1.6,0,.5,0,1,.1,1.5h0c.2.4.5.8,1,1ZM59.5,36.5c0-.3-.2-.5-.1-.8,0-1,0-2.1,0-3.1h0c0-.1,0-.2,0-.2,0-.8,0-1.6,0-2.4v-.5c0,0,0,0-.1,0,0,0-.1,0-.2,0,0,0-.1,0-.2-.1,0,0,0,0-.1,0,0,0-.2-.2-.3-.2,0,0-.1-.2-.1-.2h0c0,.3,0,.5,0,.7,0,.4,0,.7,0,1.1,0,1.5,0,2.9,0,4.4h0c0,.7.5,1.3,1.1,1.6ZM58.5,28.8s0,0,0,0c0,0,0,0,0,0ZM59.6,28.8c0-.2-.1-.4-.2-.6,0-.6,0-1.2,0-1.8v-1.6c-.2,0-.3-.2-.4-.3-.1-.1-.3-.2-.4-.3h-.2v2.9c0,.2,0,.4,0,.6h0c.2.6.6,1,1.1,1.2ZM59.7,24.2c0-.3-.2-.5-.2-.8,0-.9,0-1.7,0-2.6h0c-.4-.2-.6-.6-1-.6v1.2c0,.3,0,.6,0,.9,0,.5.2,1,.5,1.4h0c.2.2.4.4.7.5ZM60,20.1c0-.2-.1-.4-.1-.6,0-2,0-3.9,0-5.9,0-.4-.2-.8-.3-1.1-.5-1.1-1.3-1.9-2.1-2.8-.4-.4-.9-.9-1.5-.8-.6,0-1,.4-1.5.7-.5.3-.9.5-1.5.6h0c-.8.2-1.7.2-2.4-.1-.5-.2-.9-.7-1.2-1.1-.2-.2-.3-.4-.4-.7-.2-.4-.4-.8-.6-1.2-.1-.3-.3-.5-.4-.8-.5-1-1.3-1.8-2.3-2.2h-.2c0,0-.2-.2-.2-.2.5,0,.9.1,1.3.3-.6-.8-1.6-1.2-2.6-1.2s-.7,0-1,.1c-.3,0-.6.2-.8.3-.3.1-.5.3-.7.5,0,0,0,0,0,0h0c0,.3,0,.5,0,.7h0c0,0,0,.1,0,.2,0,.2.1.3.2.4,0,0,0,0,0,0,0,0,.1.2.2.3h0c0,0,.1,0,.2.1,0,0,0,0,0,0,.4.2.7.6.9,1.1.1.4.1.9,0,1.3,0,.2-.1.3-.2.5-.2.4-.5.7-.8,1-.4.3-.9.6-1.4.8h0c-.1,0-.4,0-.7.1-.7,0-2.2-.2-2.9-.3h0c-.5-.2-1-.4-1.5-.7-.5-.3-1-.6-1.5-.7-.6,0-1.1.4-1.5.9-.8.9-1.6,1.8-2.1,2.8-.2.3-.3.7-.3,1.1,0,2,.1,3.9,0,5.8,0,.2,0,.4-.2.6.4-.2.8-.5,1-1,.4-1,0-2.1.3-3.1,0-.2.2-.4.4-.6,0,.2,0,.4,0,.6,0,1,.2,2.1,0,3.2,0,0,0,0,0,0,.6-.3.9-.9,1-1.6,0-.7,0-1.3.2-1.9,0-.2.1-.5.2-.7h0c0,1,0,2,0,3,0,0,0,.2,0,.3.1,0,.3-.2.4-.3.4-.4.5-.9.7-1.4.2-.6.2-1.2.4-1.8,0,0,0-.1.1-.2v2.2c0,.1,0,.2,0,.3,0,.1,0,.3,0,.4,0,0,.1-.1.2-.1.2-.2.4-.4.5-.6.2-.3.3-.7.4-1.1.1-.4,0-.9.2-1.4.1.5.1,1,.1,1.5,0,.3,0,.5-.1.8h0c.2-.3.4-.5.6-.8.2-.3.3-.6.4-1,0-.3,0-.5,0-.8h.1c0,.5.2,1,0,1.5,0,.3-.1.5,0,.8h0c0,.3,0,.5,0,.8,0,.4,0,.9,0,1.3,0,.4,0,.9,0,1.3,0,.3,0,.6,0,.8h0c0,.8,0,1.5,0,2.2,0,.5,0,.9,0,1.4h0s0,0,0,0c.6-.5.9-1.3.8-2.1,0-.4-.1-.8-.2-1.2,0-.3,0-.6,0-.9h.7c0,0,0,.2,0,.2,0,.2,0,.4,0,.6,0,.5.2,1.1.2,1.7,0,.5,0,1.1,0,1.6,0,.5-.1,1-.2,1.5,0,.1,0,.2,0,.3-.1.7-.3,1.4-.4,2.1,0,0,0,0,0,0-.1.4,0,.3-.2.7,0,0,0,0,0,.1.1.2.1.3,0,.5,0,0,.2.1.3.2.1,0,.3-.2.4-.2,0,.1,0,.2,0,.4,0,0,.1,0,.1.1,0,0,0,0,.1.1,0,0,0,0,0,0,.1-.2.3-.4.4-.6,0,0,0,0,0,0-.1.4-.1.8,0,1.2,0,0,0,0,0,0,0-.1.1-.2.2-.3.4-1,.8-2,1.5-2.8,0,0,0,0,0,0,.5-.5,1.2-.9,2-.9.7,0,1.4.3,1.8.9.7-.8,1.9-1.1,2.9-.7.4.2.8.5,1,.8.2.2.4.5.5.8.4.6.6,1.2.9,1.8,0,.2.1.4.2.6,0-.2,0-.5,0-.7,0,0,0-.2,0-.3v-.4c0,.1.1.2.2.3,0,0,.1.1.1.2.1.2.3.4.4.6,0-.2,0-.5,0-.7,0,0,0-.2,0-.2,0,0,0,0,.1,0,0,0,0,0,0,0,0,0,0,0,.1,0,.2.2.5.3.7.4,0-.2,0-.3-.2-.5-.1-.4-.2-.9-.3-1.3,0,0,0,0,0,0-.1-.7-.3-1.4-.4-2.1,0-.1,0-.2,0-.3,0-.5-.1-1-.2-1.5,0-.5,0-1,.2-1.5,0-.6.3-1.2.4-1.7,0-.2,0-.5,0-.7,0,0,0-.1,0-.2h.5s0,0,0,0c0,.4,0,.7,0,1.1,0,.4-.1.8-.2,1.2,0,.8.2,1.6.8,2.1h0s0,0,0,0v-1.2c0-.8,0-1.6,0-2.3h0s.1,0,.1,0h0c0,.5,0,1,0,1.4v.3c0,.1,0,.2.2.3.2.3.4.5.6.7v-.2h0c0-.3,0-.6,0-.9v-.8c-.3-.2-.6-.5-.8-.8h-.1c0-1.2,0-2.4,0-3.5,0-.2,0-.5,0-.7h0c0-.3,0-.6,0-.9-.1-.5,0-1,0-1.5h.1c0,.3,0,.5,0,.8,0,.3.2.7.4,1,.2.3.4.5.6.8h0c0-.2-.1-.5-.1-.8,0-.5,0-1,.1-1.5,0,.4,0,.9.2,1.4,0,.4.2.8.4,1.1.2.2.3.4.5.6,0,0,.1,0,.2.1,0-.2,0-.3,0-.4,0-.1,0-.2,0-.3,0-.7,0-1.4,0-2.1,0,0,.1.1.1.2.2.6.2,1.2.4,1.8.2.5.3,1,.7,1.4.1.1.2.2.4.3,0,0,0-.2,0-.3,0-1,0-2,0-3h0c.1.2.2.4.2.7.2.6.2,1.3.2,1.9,0,.6.4,1.2,1,1.6,0,0,0,0,0,0-.2-1,0-2.1,0-3.2,0-.2,0-.4,0-.6.2.2.3.4.4.6.3,1-.1,2.1.3,3.1h.1s0,0,0,0c.2.4.6.7,1,1ZM60.5,20.9h0s0,0,0,0h0ZM60.5,21h0c0,0,0,0,0,0,0,0,0,0,0,0ZM41,4.8h0c0,0,0-.2,0-.2h0c0,0-.1,0-.2,0v.3c.1,0,.2,0,.3-.1h0ZM30.4,36.3s0,0,0,0c0,0,0,0,0,0h0ZM50.3,19.7v.2c0,0,0,0,0,0-.1.4-.3.7-.5,1-1,1.6-2.8,2.5-4.7,2.5s-.8,0-1.1-.1h-.2c0,0-.2,0-.3-.1-1.1-.3-2.1-1.1-2.8-2-.7-1-1.1-2.1-1.1-3.2s.2-1.9.7-2.7c.7-1.3,1.8-2.2,3.2-2.6,0,0,.1,0,.1,0h.2c.2,0,.4-.1.6-.2.2,0,.5,0,.7,0,1.1,0,2.2.3,3.1.9.8.5,1.5,1.3,1.9,2.2.1.3.2.6.3.8h0c0,0,0,.2,0,.2.1.4.2.8.2,1.3h0c0,.5,0,1-.2,1.4,0,.1,0,.2-.1.4h0s0,0,0,0h0ZM43.5,15.6h0s0,0,0,0v.2c.3,0,.5,0,.8,0h0c.5,0,1,0,1.6,0,.1,0,.3,0,.4,0,.6,0,1.1.1,1.8.2.7.1,1.3.2,1.9.3,0,0,0,0,.1,0,0-.2-.2-.5-.3-.7-.4-.9-1.1-1.6-1.9-2.1-.9-.6-1.9-.9-2.9-.9s-.4,0-.7,0c-.2,0-.4,0-.7.1v.3c0,.4,0,.8-.1,1.2,0,.4,0,.9,0,1.3ZM43.5,23.1c0-.1,0-.3,0-.4,0,0,0-.2,0-.2-.2-.8-.3-1.6-.3-2.3h0v-.2h0c0-1.1,0-2.3,0-3.9v-.5c0-.4,0-.9.1-1.3,0-.4,0-.8,0-1.2v-.2s0,0,0,0c-1.3.4-2.4,1.3-3.1,2.5-.4.8-.7,1.7-.7,2.6s.3,2.2,1,3.1c.7.9,1.7,1.6,2.7,2h0s0,0,.1,0ZM49.9,20c0,0-.1,0-.2,0-.6.1-1.3.2-2,.3-.5,0-1,0-1.5,0h-.4c-.3,0-.7,0-1,0-.1,0-.2,0-.3,0-.4,0-.8,0-1.2-.1,0,.3,0,.6,0,.9,0,0,0,.1,0,.2,0,.4.1.8.2,1.2,0,0,0,.2,0,.2,0,.1,0,.3,0,.4h0c.4.1.8.2,1.2.2,1.8,0,3.5-.9,4.5-2.4h0s0,0,0,0c.2-.3.3-.6.5-.9ZM50.3,18.1h0c0-.5,0-.9-.1-1.3,0,0,0,0,0-.1,0,0,0,0,0,0,0,0,0,0-.1,0-.6-.1-1.2-.2-1.9-.3-.4,0-.8-.1-1.2-.2,0,0-.1,0-.2,0-.3,0-.7,0-1,0h-.3c-.3,0-.6,0-.9,0h-1c0,1.7-.1,2.8,0,4h0s0,0,0,0c.7,0,1.4.1,2.1.1h.1c.7,0,1.4,0,2.1,0,.7,0,1.4-.1,2-.2,0,0,.1,0,.2,0,0,0,0,0,.1,0,0-.2.1-.3.1-.5,0,0,0,0,0,0h0s0,0,0,0c0-.4.2-.8.2-1.2ZM42,37.7s0,0,0,0c0,0,0,0,0,0h0ZM51.8,19.4l.4.3h-.5s-.1,0-.1,0h-.1l-.2.7v-.2c0,0-.2-.2-.2-.2-.2.5-.4.9-.6,1.4-.3.5-.8,1-1.2,1.4-.3.2-.6.5-.9.7h.4c0,0-.7.4-.7.4v.7c0,0,0,0,0,0l-.5-.5-.6.3h0l.2-.4c-.7.2-1.4.4-2.2.4s-1.5-.1-2.2-.4l.2.3h0s0,0,0,0l-.6-.3-.4.4h0c0,0,0,0,0,0v-.6c0,0-.6-.3-.6-.3h.4c-.3-.3-.6-.5-.9-.8-.4-.3-.8-.8-1.1-1.2-.3-.4-.5-.8-.7-1.3,0-.1,0-.2-.1-.3l-.2.4h0s-.2-.7-.2-.7h-.7c0,0,.6-.4.6-.4h0c0-.1-.1-.7-.1-.7h0c0,0,.1.2.1.2h0c0-.2,0-.5,0-.8,0-.5,0-1,.2-1.4.1-.5.3-1,.5-1.5.1-.2.2-.4.4-.6h-.4c0,.1.5-.4.5-.4l-.4-.6.4.2h.3c0,.1.5-.5.5-.5v.4c1-1.1,2.4-1.8,4-1.9l-.3-.2h.7l.2-.7.2.7h.7l-.3.2c.4,0,.7.1,1.1.2,1.1.3,2.1.9,2.9,1.7v-.4s.3.4.3.4l.2.2.7-.3-.4.6.4.5h0s0,0,0,0h-.4c.2.1.3.4.4.7.4.8.6,1.6.6,2.5v.2c0,.3,0,.6,0,.8l.3-.2h0s0,.2,0,.2v.5c-.1,0,0,0,0,0h0s0,0,0,0h.1ZM49.5,14h0s0,0,0,0h.2s.2,0,.2,0h0v.4h0c0,0,.1-.3.1-.3h.1s.1,0,.1,0h.1s-.2-.2-.2-.2l.2-.3h-.3c0,.1-.2,0-.2,0h0c0,0,0,0,0,0v.2h-.2ZM44.5,11.5h.1c0,0,0,.1,0,.1h0c0,0,0,.3,0,.3h0c0,0,.2,0,.2,0h.1c0-.1.1,0,.1,0h0s.1.1.1.1h0c0,0,0-.2,0-.2h0c0-.1.1-.2.1-.2h0c0,0,.1-.1.1-.1h-.4v-.3c-.1,0-.2.3-.2.3h-.4ZM39.7,14.3h.1s.1,0,.1,0v.2c.1,0,.2,0,.2,0v-.2s0-.2,0-.2h.2s.2,0,.2,0h0s-.2-.1-.2-.1h0v-.4l-.2.3h-.2c0,0-.2-.1-.2-.1l.2.3h0s-.2.3-.2.3h.1ZM39.2,19.6h.1-.1c0-.1-.1-.2-.1-.2v-.2c0,0,.1-.2.1-.2h0s-.2.2-.2.2h0s0,0,0,0h0c0,0,0-.1,0-.1v.4c0,0,0,0,0,0h-.1c0,0-.1.2-.1.2h.1s.1,0,.1,0h0v.4c0,0,.1-.1.1-.1h0c0-.1,0-.2,0-.2h0s0,0,0,0h0s.3,0,.3,0ZM42.7,23.5h-.2s-.2,0-.2,0v-.2c0,0-.2-.2-.2-.2h0c0,.1,0,.4,0,.4h-.1s-.1,0-.1,0h-.1s.3.2.3.2v.4s.2-.3.2-.3l.3.2h0c0-.1,0-.2,0-.2h0c0-.1.2-.3.2-.3h0s0,0,0,0ZM48.2,23.7h-.1s-.1,0-.1,0h-.1s0-.3,0-.3h0c0-.1,0,0,0,0v.2c0,0-.3,0-.3,0h-.2s0,0,0,0l.2.2h0c0,.1,0,.2,0,.2h0c0,.1.3,0,.3,0l.2.3v-.4s.3-.2.3-.2ZM50.8,19.8h-.5s0,0,0,0h0s0,0,0,0l.5-.4-.3-.7.3.2h.1c0-.2,0-.5,0-.9s0-.9-.1-1.3c-.2-.8-.5-1.5-.9-2.2l-.2.2v.2c-.1,0-.2-.7-.2-.7l-.7-.2h0s0,0,0,0l.5-.2c-.6-.6-1.3-1.1-2.1-1.5-.6-.2-1.2-.4-1.9-.5l.2.5h0s0,0,0,0l-.6-.4h0s-.5.4-.5.4h0c0,0,0,0,0,0v-.4c-1.5.1-2.9.8-3.9,1.9l.5.2-.7.2v.7s-.1-.2-.1-.2l-.2-.3c-.3.5-.5.9-.7,1.5-.2.6-.3,1.3-.3,2s0,.6,0,.9l.3-.2h.2c0,0-.1.2-.1.2l-.2.4.2.2.3.3h-.3s-.2,0-.2,0c0,.3.2.6.3.9.3.6.7,1.2,1.2,1.6.4.4.8.7,1.3,1v-.5c0,0,.4.6.4.6h.7c0-.1-.4.2-.4.2.7.3,1.4.4,2.2.4s1.5-.1,2.2-.4l-.3-.3h0s.1,0,.1,0h.6c0,.1.3-.4.3-.4h0c0,0,0,0,0,0v.5c.5-.3,1-.6,1.4-1,.6-.6,1.1-1.4,1.4-2.3h0c0,0,0-.1,0-.1ZM51.7,19.5h0c0,0-.2-.2-.2-.2v-.4c0,0,0,0,0,0h0c0,0-.1.1-.1.1h-.2c0-.1,0-.2,0-.2v.2c0,0,.1.2.1.2h-.1c0,.1,0,.2,0,.2h0s.1,0,.1,0h.3s0,0,0,0h0c0,0,0,.2,0,.2h0c0-.1,0-.3,0-.3h.3s.1,0,.1,0ZM54.7,35.5s0,0,.1,0c.2,0,.3,0,.5.1,0,.4.3.8.4,1.2,0,.1,0,.2-.1.3.1,0,.2,0,.3,0,0,.2.2.3.2.5-.3.2-.6.3-1,.4,0-.1-.1-.2-.2-.3v-.3c0,0,0-.1.1-.2-.1,0-.2,0-.3-.1-.1-.3-.2-.6-.4-.9,0-.1-.2-.1-.3-.2,0-.1.1-.3.2-.4,0,0,0-.1,0-.2h0s0,0,0,0c.1.3.3.6.4.9,0,.1.1.3.3.4h0c.2,0,.1-.2,0-.3-.2-.4-.3-.8-.5-1.1,0,0,0,0,0-.1ZM55.4,37.7c0,0,.2,0,.3,0v-.2c0,0-.1,0-.2,0,0,0,0,.2,0,.3ZM55.6,35.8c.3.6.6,1.2.9,1.8,0,0,0,0,0,0,0,0,.2,0,.2,0h0s0,0,0,0c-.2-.6-.6-1.1-.8-1.7,0-.1,0-.2,0-.3-.2,0-.4,0-.6-.2,0,.2.2.5.3.7h0ZM50.2,19.3s0,0,0,0c0,0,0,0,0,0h0ZM38.8,37.9c0,0,.2,0,.2-.1s0-.2-.2-.2-.2,0-.2.2,0,.1.2.1ZM50.8,38.4c.3.1.2.5.3.7-.5.2-1.1.3-1.7.4,0,0-.2-.1-.2-.1.2-.3.4-.6.3-1,0,.2-.1.4-.3.6-.2.2-.4.3-.6.4.3.2.5.4.8.5.7-.1,1.4-.3,2.1-.4-.1-.5-.2-1-.4-1.4-.1.2-.3.3-.4.5ZM34.2,37s0,0,0,0h0ZM35.4,35.3s0,0,0,0c0,0,0,0,0,0h0ZM39.2,38c0,0,.1,0,.1-.2s0-.1-.1-.1-.2,0-.2.1,0,.2.2.2ZM42.4,38.4c0,0,.1,0,.1-.2s0-.1-.1-.1-.2,0-.2.1,0,.2.2.2ZM35.3,35.5c-.3.8-.7,1.5-1,2.2-.4-.1-.7-.3-1.1-.5.2,0,.3-.3.4-.4.2-.2.5-.1.7,0,.2-.3.4-.7.5-1,0,0,0,0,0-.1.1,0,.3,0,.4-.1,0,0,.1,0,.2,0,0,0,0,.1,0,.1ZM34.2,37s0,0,0,0h-.4v.3c0,0,.2,0,.2,0,0,0,0,0,0,0,0,0,0,0,0-.1,0,0,0,0,0,0,0,0,0,0,0,0h0ZM43.4,40.4c-.1,0-.2,0-.3.1,0,0-.2-.2-.2-.2h-.2c0,.2,0,.2,0,.3.1,0,.3,0,.4,0,0,0,.2.1.3,0,0,0,0-.2,0-.3h0ZM41.3,37.2c-.1.9-.3,1.7-.4,2.6-.4,0-.9-.2-1.3-.2-.5,0-.9-.2-1.3-.3-.2-.1-.5-.2-.7-.3h0c-.2.2-.5.3-.7.4-.1-.2-.2-.4-.3-.6v-.2c-.6-.2-1.2-.4-1.7-.7,0,0,0-.2,0-.3.1,0,.3,0,.4.1.6.3,1.2.5,1.8.7,0,.2-.1.3,0,.5,0,0,.1,0,.2,0,0-.2.2-.3.2-.5-.1-.1-.3-.2-.4-.2-.7-.2-1.3-.5-1.9-.8.1-.4.3-.7.5-1.1,0,.2.2.4.3.5-.2,0-.3.2-.3.4.7.3,1.4.5,2.1.8.1.2.2.4.1.6.1,0,.3,0,.4.1,0-.3.1-.6,0-.9,0-.2-.3-.3-.4-.4.2,0,.3,0,.5-.1.1.2.3.4.3.6,0,.3,0,.6,0,.9.1,0,.3,0,.4.1,0-.2.1-.4,0-.6.2,0,.3-.2.5-.3,0,.3-.1.7-.2,1,0,0,.2,0,.3,0,0,0,0-.2,0-.2.2-.1.4-.2.6-.3.1.2.4.4.4.7,0,0,.2,0,.2,0,.1-.4.2-.9.3-1.3,0-.2,0-.4,0-.6h0s0,0,0,0c.2-.1.3-.2.5-.3ZM39.9,39.4c0,0,0-.2,0-.2h-.3s0,0,0,0c0,0,0,0,0,0,0,0,0,0,0,0,0,0,0,0,.2,0h0c0,0,.1,0,.2,0ZM41.7,37.3s-.1,0-.1,0c0,.8-.3,1.7-.4,2.5.1,0,.2,0,.3,0,0-.5.1-.9.2-1.4,0-.2,0-.5.1-.7,0,0,.1,0,.1-.1,0-.1-.2-.2-.3-.4ZM42,40c0-.2,0-.3,0-.5.1-.3.4-.4.7-.5,0-.4.1-.8,0-1.3.1-.1.3-.2.4-.3,0,.8-.1,1.5-.2,2.3.2,0,.3,0,.5,0,0-.1,0-.3,0-.4,0,0-.1-.1-.2-.2.2-.1.3-.2.5-.4,0,.3,0,.7,0,1,.1,0,.2,0,.3,0,0-.1,0-.3,0-.4,0,0,0-.1-.1-.2.2-.1.3-.3.5-.4v.2c0,.4,0,.7,0,1.1h0c-.9,0-1.7-.1-2.6-.2ZM42.8,39.4h-.3c0,0,0,.1,0,.2,0,0,.2,0,.3,0,0,0,0-.2,0-.3ZM42.5,38c0,0,.1,0,.1-.2s0-.2-.1-.2-.2,0-.2.2,0,.2.2.2ZM34.3,35.6c0,0,.2,0,.3,0,0,0,0-.2,0-.3.2,0,.2,0,.2-.2h-.2c0-.1-.2-.1-.2-.1v.3c-.2,0-.2.2-.1.3h0ZM48.2,37.8h0c-.1-.2-.3-.4-.5-.5,0,.8.2,1.7.3,2.5,0,.2.3,0,.4,0,0-.7-.2-1.4-.2-2.1h0ZM43.3,3.9c0,.1,0,.2,0,.4,0,0,0,.1,0,.1-.2.3-.5.2-.8.2,0,0,.2,0,.3,0,0,0,0,.1-.1.2,0,0,0,0,0,0,0,0-.1,0-.2,0-.2-.2-.2-.5-.2-.8-.2,0-.3,0-.4,0,0,0,0,0,0,0,0-.2,0-.3.3-.4.2,0,.4,0,.6,0,.4,0,.8,0,1.2,0-.1,0-.3.1-.4.2,0,0,0,0,0,0ZM42.9,4h0s0,0,0,0c0,0,0,0,0,0,0,0-.1,0-.1,0h-.1c0,0-.1,0-.2,0,0,0,0,0,0,0,0,0,0,0,0,0,0,0,.2,0,.3,0h0ZM47.6,37.8c0,.7.2,1.5.2,2.2-.1,0-.3,0-.4,0-.7,0-1.4.1-2.1.1v.3c-.2.3-.7.3-1,0h0c.2,0,.4,0,.5-.2.1-.3,0-.6,0-.9,0,0-.1-.1-.2-.1,0,0,.1-.1.2-.2,0,0,.2-.2.3-.3v.9h.8c-.1-.3-.4-.6-.5-.9h.3c.1-.1.2-.3.4-.2.2.1.4.2.6.2-.1.3-.3.6-.4.9.3,0,.6,0,.8,0,0-.5,0-1.1-.1-1.6,0-.1,0-.2-.2-.3.1-.1.3-.3.4-.4,0,.1,0,.3,0,.4ZM46.4,39.2h0c0-.1,0-.2-.1-.2,0,0,0,0,0,0,0,0,0,0,0,0h0c0,.1,0,.2,0,.3,0,0,.1,0,.2,0,0,0,0-.2,0-.2ZM51.8,18.3h0s0,.1,0,.1c0,.3,0,.5,0,.8h0s.4.3.4.3h0c0-.8,0-1.7,0-2.5h0c0-.2,0-.5,0-.7,0-.5-.1-1-.3-1.5,0-.3-.2-.5-.2-.8,0,.5.1,1,.1,1.4,0,.9.1,1.8,0,2.7ZM44.5,34.2h0s0,0,0,0h0ZM38.3,19.2h0s-.1-.6-.1-.6v-.3c0,0,.1.2.1.2h0s0-.1,0-.2c0-.9,0-1.9,0-2.8,0-.2-.1-.5-.2-.7h0c-.2.5-.2,1-.3,1.5,0,.2,0,.5,0,.7,0,.9,0,1.8,0,2.6l.6-.4h0ZM50.2,38.3c.1,0,.3,0,.3,0,0,0,0-.1,0-.2,0,0-.2,0-.2,0,0,0,0,0-.1.1-.2,0-.4,0-.4.2h0c.1,0,.3,0,.4,0ZM44.1,40.4c0,0-.2,0-.3.1,0,0,0,.2.1.2,0,0,.2,0,.3,0,0,0,0-.2-.1-.3h0ZM47.5,37.4s0,0,0,0c0,0,0,0,0,0h0ZM53.7,27.1h0s0,0,0,0c0,0,0,0,0,0ZM38.3,34.6h0s0,0,0,0h0ZM47.5,37.4h0s0,0,0,0h0Z"/>
</svg>