<?xml version="1.0" encoding="UTF-8"?>
<svg id="Layer_2" data-name="Layer 2" xmlns="http://www.w3.org/2000/svg" viewBox="0 0 90 45">
  <defs>
    <style>
      .cls-1 {
        fill: #7a7a7a;
      }
    </style>
  </defs>
  <path class="cls-1" d="M67.75,14.63c.02-.2.02-.39.04-.61,0,0-1.7-.22-1.9-.28,0,0,.04.7.07.89,0,0-.98.02-2.07-.02-.72-.04-1.48-.11-2.07-.26-.52-.13-.89-.31-.94-.57,0,0-.15.11-.41.24-.63.33-1.9.81-3.51.57,0,0,.83.94,3.51,1.02h.44s.41,0,.92-.02c.57-.02,1.26-.04,1.59-.09,0,0,.2,0,.48-.02.65-.02,1.77-.07,2.01-.04,0,0-.44,2.57-1.55,4.97,0,0-.24-.07-.46-.09-.02,0-.04-.02-.07-.02,0,0,.02-.11.07-.24.02-.15.02-.33,0-.5-.07-.26-.24-.5-.65-.59,0,0,.31-.37.65-.54.11-.07.24-.11.35-.11,0,0,0-.2-.35-.09-.17.04-.44.15-.81.39-.24.13-.7.2-.39-.26.2-.24.63-.63,1.2-1.09.11-.11.22-.2.35-.31.57-.44.44-1.02-.35-1.02-.13,0-.26.02-.39.04-.28.04-.94.24-1.68.61-.46.24-.94.54-1.35.89-.48.41-.89.89-1.16,1.48-.17.31-.48,1.5.94,1.09,0,0,.09-.02.22-.07.28-.09.85-.22,1.35-.31.68-.09,1.29-.07,1.07.44-.07.02-.48-.04-1.07-.04-.39,0-.85.04-1.35.17-.72.2-1.53.54-2.27,1.24,0,0-1.29.85-.98-.28,0,0,1.33-3.29,2.94-4.69,0,0-1.4.04-1.74.24,0,0-.7.81-.85,1.29,0,0,.85-2.27-.41-2.22-.11-.02-.52.02-1.05.5-.44.39-.94,1.07-1.44,2.25-.15,0-.33.02-.5.04.31-.81.65-3.34-.44-3.44-.15,0-.39,0-.52.09-.39.2-.83.72-.83,2.16,0,0-.04,0-.11-.02-.15-.02-.46-.02-.87.11-.46.15-1.05.5-1.66,1.24-.17.24-.37.5-.54.81-.54.92-1.61,3.16-2.55,2.94-.83.11-1.68-1.5,0-6.28.33-.09.63-.2.96-.31,0,0,.7-.28-.54-.59,0,0,1-2.35,2.57-3.58.04-.04.09-.07.11-.09.41-.28,1.11-.48.54.68,0,0-.24.5-.54,1.2-.41.96-.96,2.31-1.2,3.18-.13.54-.04,1.24.74,1.16.2-.07.33-.2.46-.33.28-.31.5-.68,1-.72-.17-.11-.44-.17-1,.26-.02.02-.07.04-.11.09-.09.09-.37.15-.09-.46.07-.15.13-.28.2-.41.59-1.18,1.22-2.2,1.66-2.96.15-.24.28-.46.39-.65.11-.2.33-.61.48-1.09.17-.54.26-1.18,0-1.63-.15-.28-.41-.48-.87-.59-.04,0-.07-.02-.11-.02,0,0-.61-.13-1.55.22-1.2.46-2.94,1.77-4.58,5.25,0,0-.85-.04-1.09.04,0,0,.44-.41.98-.65,0,0-.63.15-1.29.35-.52.15-1.07.33-1.33.5-.04.11-.09.22-.15.31,0,0-.94.24-1.79.52-.28.09-.54.2-.78.28l-.02.02c-.37.11-.96.31-1.59.41-.48.09-1,.11-1.48,0-.22-.07-.17-.35-.02-.63,0,0-.78,1-2.03,1.66-.54.28-1.18.52-1.87.59,0,0,.76.09,1.87.09.98-.02,2.2-.13,3.36-.48.07-.02.13-.04.17-.07.59-.17,1.11-.41,1.61-.63.26-.13.52-.24.78-.35.57-.26,1.07-.48,1.55-.57-.24.61-.7,2.59-.85,5.54,0,0-.02-.02-.28,0,0,0,.11-.72-.41-1-.15-.09-.31-.13-.54-.13,0,0,.11-.41.54-.74.07-.04.15-.11.24-.15,0,0-.09-.02-.24.04-.17.07-.44.2-.78.54,0,.02-.02.02-.02.04-.17.22-.52.37-.35-.2.07-.22.22-.46.37-.7.24-.35.52-.68.72-.94.02-.04.04-.07.07-.09.15-.28.15-.57,0-.74-.15-.13-.41-.2-.78-.11-.09.02-.17.04-.26.09-.22.09-.72.35-1.35.96-.41.41-.87.98-1.33,1.74-.2.26-.78,1.63-.31,1.98-.35.37-.94.98-1.83,2.72-.02.04-.04.11-.07.15-.33.61-1.02,1.16-1.26.24-.07-.37-.02-1.05.2-1.98,0,0-.2,1.33.74.98.09-.02.2-.11.33-.22.52-.48,1.33-1.68,1.57-3.1.15-.65.28-2.35-.5-2.4-.11-.02-.52-.04-1.07.54-.52.52-1.16,1.57-1.81,3.6,0,0-1.2,4.16.35,4.32,0,0,.61.26,1.46-1.11.09-.15.17-.31.26-.48.85-1.57.87-1.92,1.9-3.03,0,0,.54.11,1.37-.44l.02-.02s1.16-.74,1.59-.59c.13.02.2.13.17.35-.07,0-.11.02-.17.02-.41.09-.98.28-1.61.61-.35.17-.72.41-1.09.7,0,0-1.83,1.4-1.92,3.34,0,0-.2.11-.52.26-.87.41-2.59,1.29-3.64,2.01,0,0-3.34,1.9-3.99,2.29,0,0,1.11-2.42,1.44-5.25,0,0-.13,3.51,1.94,3.07.44-.15,1.53-.46,2.25-6.54.33-2.22.04-5.23-2.18-4.27,0,0,1.37-.2,1.22,1.63.07.7-.17,4.88-1.02,6.37-.02.13-.83,1.02-.92-.57,0,0,0-5.69,1.42-6.74,0,0-.7.04-1.42,1.09-.28.41-.98,1.07-1.68,1.05,0,0,.46.13.26,1.09,0,0-.89,4.32-1.35,5.41-.22.59-.89,1.33-.78-.26,0,0,.39-3.51.85-5.45,0,0,1.02-4.56,1.22-7.67,0,0,.26-3.42-2.07-3.29-4.19.7-4.58,8.63-1.79,9.79.35.22.33-.13.26-.13-3.12-2.16-.26-8.44,1-7.46,0,0,.78,0-.22,5.19,0,0-1.85,8.37-1.63,10.86,0,0-.07,2.49,1,3.05,0,0-2.7,1.48-3.9-.44,0,0-1.7-2.99-1.5-6.89.09-.89.87-4.05,2.07-.48h-1c1.09.85,2.18,1.7,3.27,2.55.04-1.72.09-3.47.13-5.19-.17.17-.37.33-.57.5,0,0-.7-3.03-2.62-2.33,0,0-2.27.41-2.14,6.58,0,0,.15,4.47,2.99,6.26,0,0-1.92-.09-3.27-3.55,0,0,1.22,5.32,5.32,6.39,3.75.81,6.67-1.29,10.22-1.77-.81-.07-1.61-.11-2.42-.15,0,0,.35-.54,3.25-2.14.89-.52,2.05-1.11,3.53-1.85.5-.24,1.05-.5,1.61-.76.26-.13.5-.24.78-.37.41-.2.87-.41,1.33-.63-.02.22-.04.44-.07.65,0,0,1-.04,2.01,1.53.24.39.46.85.7,1.44,0,0-.24-1.66-.7-3.12-.11-.35-.24-.7-.37-.98.09-.07.22-.13.37-.17,1.05-.46,3.2-1.13,5.97-1.66.54-.11,1.09-.2,1.66-.28.28-.04.59-.09.87-.13.31-.02.61-.07.94-.11.07,0,.15,0,.24-.02.85-.09,1.74-.15,2.66-.2,1.42-.07,2.88-.07,4.36.04.44.02.89.07,1.35.13h.15s-.07.17-.15.41c-.13.39-.24.98,0,1.44.24.44.81.76,2.07.65.13-.02.28-.04.46-.07.63-.13,1.63.02,3.03.13.92.02,3.4.31,3.38-3.07-.07.63-.39,2.25-1.92,2.64-1.02.17-1.35-.22-2.46.04,0,0,3.47-.87,3.55-2.99,0,0,.26-1.07-2.16-1.07,0,0-.44.09-.52-.35,0,0,.31.04.78-.04,0,0-2.38-.74-.35-5.06,0,0-1.7,2.49-2.03,5.06-.09.72,0,1.53-.13,2.25,0,0,.46-.48.5-.78,0,0,.22.65,1.26.65,0,0,1.5-.13.7.65,0,0-.65.89-3.03,1.42,0,0,1.5-1.63-.83-2.38,0,0,3.03-5.45,3.51-9.07,0,0,4.36.54,2.72,1.37,0,0,1.29.04,1.44-.35v-.17c-.02-.07-.11-.17-.22-.28,0,0-.61-.94-3.84-1.35ZM61.82,18.51c-.11.24-.13.46,0,.61.02.02.04.04.04.04,0,.02-.02.02-.04.02-.5.07-1.29.52-1-.28.24-.63.65-1.07,1-1.33.2-.15.37-.26.44-.31.31-.17.5-.17.59-.09.09.11.07.2-.24.41-.22.17-.61.57-.78.92ZM34.29,21.89c.09-.2.2-.39.28-.54.26-.5.52-.81.63-.76.15.09-.02.81-.37,1.59-.09.2-.17.39-.26.54-.28.5-.52.81-.65.74-.13-.07.02-.78.37-1.57ZM39.15,19.29c-.11.09-1.4,1.81-.48,1.96,0,0-.11.09-.31.22-.09.09-.17.13-.26.15-.52.22-.41-.37-.41-.37.07-.33.22-.7.41-1.07.17-.31.37-.59.57-.81.37-.39.57-.31.48-.09ZM40.5,23.39c.17-.46.28-.89.35-1.2.13-.02.22-.04.37-.07-.07.26-.02,1.42.07,2.05,0,0-.37.07-.78.2-.28.11-.59.22-.78.35l-.02.02s.02-.02.02-.02c.33-.35.59-.85.78-1.33ZM31.78,31.35c-.28.22-.63.44-1.07.63-.61.31-1.2.5-1.7.57-.52.09-.87-.02-1-.28-.11-.26-.02-.59.33-.96.33-.39.81-.74,1.4-1.02.02-.02.04-.02.04-.02.02-.02.04-.02.04-.02.22-.11.41-.2.61-.26.22-.07.41-.13.61-.15.02-.02.02-.07.04-.09v-.09l.35-.17.35.59-.39.2c-.11-.13-.31-.17-.54-.17-.26.02-.54.13-.92.31-.35.17-.59.37-.72.57-.11.2-.15.37-.15.52.02.04.02.09.04.11,0,.04.02.09.02.11.11.17.28.31.54.33.24.04.63-.04,1.11-.31.31-.15.57-.31.78-.5.2-.17.37-.37.48-.54l.41-.07c-.17.26-.41.5-.68.74ZM36.71,27.47l.28.55s.02.02.02.04t.02.04c.02.07.02.13.02.2-.02.07-.07.13-.13.22-.11.11-.22.22-.35.31-.15.11-.28.2-.44.28-.04.02-.09.04-.15.09-.04.02-.09.04-.13.07-.04.02-.09.04-.13.07-.02,0-.07.02-.11.04-.33.17-.65.28-.94.37-.31.07-.5.02-.59-.13l-.31-.59c-.04-.09-.09-.11-.15-.11s-.2.04-.41.15l-.07-.13,1.77-.92.07.13c-.2.11-.33.2-.35.24-.04.04-.04.11,0,.2l.28.52c.02.07.07.11.11.15.04.02.13.04.26.02.09-.02.17-.04.28-.09.09-.02.2-.07.28-.13h.04s0-.02.02-.02c.28-.15.48-.28.61-.41.13-.13.15-.26.09-.39l-.28-.57c-.04-.07-.09-.09-.15-.09s-.17.04-.33.13l-.07.02-.07-.13,1.31-.68.07.13c-.15.09-.26.15-.33.22-.09.04-.11.11-.07.2ZM36.9,25.64c-.5.2-.44-.17-.44-.17.17-.74.83-1.57,1.63-2.18.5-.39,1.07-.72,1.61-.87h.02s-.02.04-.02.07c-.22.52-.85,1.46-1.61,2.2-.39.41-.81.76-1.2.96ZM41.13,26.86c-.22.17-.5.35-.87.48-.02.02-.07.04-.09.04-.04.02-.09.02-.11.04-.17.04-.33.11-.5.13-.17.04-.33.09-.48.11v.13l-.33.13-.2-.5.33-.11c.13.07.31.09.54.09.24-.02.48-.09.74-.17.15-.07.28-.13.39-.22.11-.09.13-.15.11-.22-.02-.07-.09-.09-.22-.09-.13.02-.26.02-.39.07-.09,0-.15.02-.22.04-.09,0-.13.02-.2.02,0,0-.02,0-.02.02h-.02c-.28.04-.52.09-.74.11-.24,0-.37-.04-.41-.17-.07-.15.02-.31.22-.48.22-.15.48-.31.78-.41.15-.07.33-.13.48-.15.15-.04.31-.09.46-.11l.02-.11.33-.13.15.41-.31.13c-.09-.07-.22-.11-.41-.09-.22.02-.41.07-.63.15-.02,0-.04.02-.07.02s-.04.02-.07.02c-.09.04-.17.11-.24.15-.07.07-.11.11-.09.15.02.04.07.07.15.07.07,0,.15-.02.24-.02t.04-.02h.07l.59-.11c.28-.07.54-.09.76-.11.22-.02.37.04.41.17.07.15,0,.33-.22.52ZM43.7,15.83s.02-.02.07-.02c.15-.07.59-.17,1.07-.15,0,0-.94,2.03-1.07,4.21-.02.35-.02.7,0,1.05.07.89.31,1.77.85,2.46,0,0-.41.09-.85.17-.41.09-.85.17-.98.22-.35-1.11.15-5.67.92-7.94ZM45.49,24.55c-.04-.07-.09-.13-.17-.17-.07-.02-.22-.02-.46.04l-.46.11.22.94c.02.09.07.15.13.15.09.02.22-.02.46-.07l.04.13-2.01.5-.04-.15c.24-.04.39-.11.44-.13.07-.04.09-.11.04-.22l-.22-.94-.52.13c-.17.04-.31.11-.35.17-.04.07-.07.13-.07.2v.04l-.35.07-.04-.44,3.53-.85.15.41-.33.07ZM54.45,19.12c-.2.39-.98,2.94-.11,3.47,0,0-.41,0-.89.02h-.24c-.37,0-.72,0-.94.02h-.13s.09-.07.13-.11c.37-.31.68-.74.94-1.22.09-.15.15-.33.24-.5.26-.63.46-1.24.57-1.59,0,0,.22,0,.44-.09ZM53.21,16.74c.04-.22.13-.35.24-.37.61-.13.09,2.07.02,2.07,0,0-.02,0-.02-.02-.13-.11-.2-.33-.24-.54-.09-.39-.09-.83,0-1.13ZM52.27,18.38c.07-.11.13-.2.2-.26.04.39.22.85.74,1.09,0,.02.02.02.04.04,0,0-.02.04-.04.15-.15.35-.5,1.24-.94,1.81-.2.26-.44.46-.65.46-.09-.02-.17-.07-.22-.13-.15-.22-.13-.65,0-1.13.17-.72.54-1.55.87-2.03ZM49.89,24.65c-.33.15-.72.28-1.22.35h-.09c-.46.04-.85.04-1.18-.02-.35-.09-.52-.22-.54-.44-.04-.22.11-.39.44-.57.33-.15.72-.28,1.2-.35h.09c.46-.04.85-.04,1.18.02.35.09.54.22.57.44.04.22-.11.39-.44.57ZM49.74,22.74c-.78.07-1.74.13-1.74.13.35-.41,1.46-2.4,1.46-2.4.11-.17.2-.35.28-.5.76-1.16,1.42-1.57,1.66-1.7.07-.02.11-.04.11-.04-.04.04-.07.09-.11.13-.54.74-1.74,3.1-.72,4.34-.15,0-.52.02-.94.04ZM53.12,24.39v-.09c.15-.02.26-.02.28-.04.04-.02.07-.07.07-.13l-.02-.52s0,.04-.02.07c-.02.02-.02.04-.04.07l-.57.68h-.28l-.65-.61s-.02-.02-.02-.02l-.02-.02-.02-.02s-.02-.04-.02-.04l.04.54s.02.07.07.09c.04.02.13.02.24.02h.04v.09l-.98.07v-.11c.15,0,.24-.02.28-.04.04-.02.07-.07.07-.13l-.02-.48s-.02-.09-.07-.11c-.04-.02-.13-.02-.28,0v-.11l1.05-.04.57.54s0,.02.02.02v.04h.02s0-.02.02-.04v-.02l.52-.61,1-.04v.09c-.13,0-.24.02-.26.04-.04.02-.07.07-.04.11l.02.5c0,.07.02.11.07.11.04.02.13.02.28,0l.02.11-1.35.07ZM56.11,18.53c.17-.28.37-.57.61-.83.74-.7.5.78.44.94,0,0-.7,1.63-.83,2.25,0,0-.09.11-.22.24-.31.31-.81.72-.81.07,0,0,.07-1.37.81-2.66ZM56.11,21.86c.07-.07.11-.13.15-.2,0,0,.22.68.92.72,0,0-.24.17-.35.39-.26-.04-.5-.07-.72-.09-.41-.04-.78-.07-1.07-.07.39-.09.72-.37,1.07-.76ZM56.91,24.18c-.2.07-.44.09-.72.09h-.15c-.13-.02-.24-.02-.37-.04-.11-.02-.24-.04-.33-.07l-.04.09-.26-.02v-.31h.26c.07.07.17.13.33.17.15.04.35.09.54.09.13,0,.22-.02.33-.04.09-.02.13-.04.13-.09s-.04-.07-.13-.09c-.09-.02-.17-.04-.28-.07-.04-.02-.11-.02-.15-.02-.04-.02-.09-.02-.13-.02l-.02-.02h-.02c-.2-.02-.37-.07-.52-.11-.15-.04-.22-.11-.22-.17,0-.11.09-.17.28-.22.17-.04.39-.07.63-.07.11,0,.24.02.35.02.11.02.22.04.33.07l.04-.07h.26v.28h-.26c-.02-.07-.11-.11-.24-.15-.15-.04-.31-.07-.46-.07h-.11c-.07,0-.13.02-.2.02-.07.02-.09.04-.09.07,0,.04.02.07.07.07.07.02.11.04.17.04,0,.02.02.02.04.02h.02l.44.07c.2.04.37.09.52.13.17.04.24.11.24.2s-.09.17-.28.22ZM59.42,22.78c-.94.41-1,.11-.78-.26.57-.68,1.22-1.09,1.83-1.37.5-.22,1-.35,1.35-.41.28-.04.48-.07.57-.07-.09.13-.31.33-.57.54-.39.31-.89.65-1.35.96-.44.26-.81.5-1.05.61ZM64.43,26.25c.02.15-.15.48-.54.48-.11,0-.24-.02-.37-.07-.35-.24-.22-.61.11-1.29.09.02.17.04.26.09.31.15.61.44.54.78ZM63.89,21.28c-.35.68-.96,1.87-1.42,2.64-.2-.07-.41-.13-.65-.2-.24-.07-.52-.13-.87-.17.24-.2.54-.44.87-.72.72-.61,1.48-1.44,1.87-2.07,0,0,.07.02.2.02.07.02.15.02.24.04,0,0-.11.17-.24.46ZM49.48,24.2v.13c-.02.11-.07.22-.2.33-.11.11-.31.17-.61.22h-.09c-.24.02-.44,0-.57-.07-.13-.07-.24-.15-.26-.24-.02-.02-.02-.04-.04-.07v-.22c.02-.11.11-.22.22-.31.13-.11.33-.17.59-.22h.07c.28-.02.48-.02.61.04.13.09.22.17.26.28v.07s.02.02.02.04Z"/>
</svg>