<?xml version="1.0" encoding="UTF-8"?>
<svg id="Layer_2" data-name="Layer 2" xmlns="http://www.w3.org/2000/svg" viewBox="0 0 200 100">
  <defs>
    <style>
      .cls-1 {
        fill: #787878;
      }
    </style>
  </defs>
  <path class="cls-1" d="M106.37,62.16c.39.48.76,1.05,1.25,1.5.26.24.73.36,1.11.37,4.92.02,9.84.03,14.76,0,.62,0,1.02.16,1.38.66,1.25,1.71,2.54,3.41,3.84,5.09.32.41.3.68,0,1.08-1.41,1.84-2.77,3.72-4.18,5.56-.2.25-.62.48-.93.48-7.92.03-15.83.02-23.76.02-.12,0-.24-.03-.57-.06,1.61-1.6,3.1-3.11,4.63-4.56.19-.18.61-.16.92-.16,4.53,0,9.06-.09,13.59.04,1.64.05,2.74-.42,3.52-1.9-.38-.49-.76-1.09-1.27-1.56-.26-.24-.75-.32-1.14-.32-4.86-.02-9.71-.03-14.57,0-.68,0-1.13-.18-1.54-.74-1.35-1.88-2.76-3.72-4.17-5.6,1.56-2.09,3.07-4.17,4.65-6.21.2-.26.73-.36,1.11-.36,5.57-.02,11.14-.01,16.72-.01,10.16,0,20.33,0,30.49,0h1.4c-1.61,1.67-3.01,3.16-4.47,4.6-.2.2-.66.2-1,.21-1.79.02-3.57.01-5.42.01v20.3c-.35-.16-.6-.25-.83-.38-1.53-.84-3.05-1.73-4.6-2.53-.66-.34-.9-.73-.9-1.49.04-4.9.02-9.8.02-14.7v-1.19c-1.65,0-3.24-.07-4.82.02-1.07.06-1.86-.24-2.53-1.07-.52-.65-1.15-1.22-1.85-1.94-.76.76-1.53,1.48-2.23,2.27-.45.49-.93.68-1.61.67-4.47-.03-8.93.08-13.39-.06-1.72-.05-2.84.47-3.6,1.99M63.13,10.47c3.71,6.68,7.42,13.36,11.16,20.02.15.26.6.47.91.48,1.56.05,3.13,0,4.69.04.53,0,.81-.15,1.06-.62.67-1.29,1.41-2.55,2.19-3.92.77,1.4,1.5,2.64,2.16,3.92.24.47.54.63,1.06.61,1.53-.03,3.07-.04,4.59,0,.61.02.92-.19,1.2-.71,3.58-6.5,7.19-12.97,10.78-19.46.13-.24.22-.5.37-.83-1.98,0-3.83.03-5.68-.01-.61-.01-.92.19-1.2.7-1.5,2.73-3.03,5.44-4.56,8.16-1.01,1.81-2.03,3.62-3.14,5.58-.69-1.2-1.26-2.27-1.89-3.29-.32-.51-.28-.9,0-1.4,1.64-2.91,3.25-5.83,4.87-8.75.16-.29.31-.59.52-.99-2.05,0-3.94.02-5.82-.01-.56,0-.88.17-1.14.66-.67,1.26-1.4,2.49-2.17,3.85-.78-1.39-1.47-2.65-2.2-3.89-.14-.24-.43-.56-.65-.57-2.04-.04-4.08-.03-6.25-.03.21.41.35.69.5.96,1.64,2.94,3.29,5.88,4.92,8.84.15.28.3.72.19.95-.59,1.19-1.27,2.34-1.98,3.61-.2-.32-.34-.52-.47-.74-2.43-4.31-4.84-8.62-7.28-12.92-.16-.27-.46-.65-.7-.66-2.04-.06-4.08-.03-6.2-.03.08.22.09.35.15.45M46.4,76.7h1.2c6.22,0,12.45-.11,18.66.06,2.22.06,3.71-.43,4.83-2.39.87-1.51,2.07-2.83,3.12-4.22-1.06-1.42-2.06-2.76-3.08-4.12,1.04-1.4,2.05-2.77,3.08-4.14-1.47-1.95-2.92-3.83-4.32-5.76-.4-.56-.82-.77-1.52-.77-6.97.03-13.94.02-20.91.02h-1.06v21.32ZM65.76,63.56c-.13.15-.37.3-.56.3-4.06.02-8.12.01-12.24.01v-3.72h10.5q2.16,0,3.59,1.79c-.45.57-.85,1.11-1.29,1.61M52.95,68.26h1.02c3.22,0,6.45.12,9.66-.05,1.73-.1,2.64.62,3.34,1.95-.71,1.26-1.65,1.89-3.26,1.81-3.21-.15-6.44-.04-9.67-.04h-1.09v-3.67ZM138.06,32.74h-25.62v21.29h1.1c5.6,0,11.21-.07,16.81.04,1.73.03,3.03-.34,4.13-1.69.88-1.07,1.97-1.98,3.17-3.16h-18.64v-3.65h1.13c3.26,0,6.52,0,9.77,0,.31,0,.74.03.93-.14,1.42-1.33,2.79-2.71,4.36-4.26h-16.2v-3.8h1.11c4.24,0,8.47,0,12.7-.01.36,0,.82-.07,1.07-.29,1.49-1.33,2.93-2.71,4.38-4.08-.07-.08-.14-.16-.21-.24M102.06,55.52h-25.6v21.38c6.63,0,13.18,0,19.73-.02.33,0,.73-.24.99-.48,1.27-1.2,2.5-2.43,3.74-3.66.16-.16.29-.36.56-.7h-18.52v-3.7h1.12c3.1,0,6.19-.05,9.29.02,1.03.02,1.77-.26,2.46-1.02,1-1.1,2.12-2.11,3.37-3.34h-16.23v-3.81h1.15c4.2,0,8.41,0,12.61,0,.36,0,.84-.03,1.08-.24,1.52-1.35,2.99-2.76,4.47-4.15-.07-.1-.14-.19-.21-.28M110.78,22.73c3.01,0,5.95-.13,8.86.04,2.12.13,3.76-.37,5.09-2.04.6-.75,1.41-1.33,2.13-1.98-.06-.09-.11-.17-.17-.26h-15.92v-3.67c3.78,0,7.5-.16,11.2.06,2.46.15,4.32-.45,5.82-2.36.63-.81,1.48-1.46,2.3-2.26h-25.86v20.73h1.14c4.92,0,9.84,0,14.76,0,1.47,0,3.09.36,4.35-.14,1.29-.53,2.22-1.91,3.3-2.93.47-.45.92-.91,1.56-1.55h-18.57v-3.64ZM110.11,53.76v-20.94h-6.5v8.29h-12.97v-8.29h-6.4v20.98h6.44v-8.33h12.92v8.29h6.51ZM55.25,32.72c1.41,1.47,2.67,2.84,4.01,4.13.34.33.93.56,1.42.58,1.75.07,3.5.03,5.37.03v16.72h6.34v-16.73c1.89,0,3.68.01,5.47,0,.31,0,.73,0,.91-.19,1.45-1.44,2.86-2.92,4.42-4.54h-27.93ZM101.55,89.97c1.59.06,3.19.02,4.78.02,2.93,0,3.22-.3,3.17-3.21-.04-1.92-.47-2.34-2.46-2.34-1.72,0-3.43,0-5.17,0v-1.57c1.68,0,3.3,0,4.92,0,.13,0,.33-.01.37.06.6.96,1.48.32,2.22.51.05-1.7-.4-2.26-1.97-2.32-1.76-.07-3.52-.08-5.27-.03-1.94.05-2.29.46-2.3,2.37-.01,2.63.25,2.89,2.94,2.89,1.55,0,3.1,0,4.64,0v1.72h-5.41c-.1,0-.25,0-.28-.04-.5-1-1.39-.45-2.18-.58-.2,1.8.31,2.47,2,2.53M71.04,81.17c-1.15-.32-1.93-.05-2.6.94-.94,1.4-2.06,2.69-3.15,4.09-1.16-1.47-2.34-2.8-3.34-4.25-.69-1-1.52-.99-2.51-.79v8.78h1.88v-5.65c.87,1.14,1.57,2.05,2.27,2.95q1.57,2.05,3.14-.02c.68-.9,1.37-1.79,2.05-2.69.06.04.12.07.17.11v5.3h2.09v-8.77ZM139.9,83.17c-.07-1.53-.49-2.01-2.06-2.06-1.92-.06-3.84-.06-5.76,0-1.59.05-2.04.55-2.07,2.16-.04,1.5-.04,3.01,0,4.51.04,1.66.56,2.16,2.27,2.2,1.43.03,2.87,0,4.3,0,3.1,0,3.5-.41,3.33-3.46,0-.09-.07-.17-.11-.29h-2.15c-.03.61-.06,1.17-.08,1.76h-5.18v-5.05h5.24v1.5h2.29c0-.52.01-.9,0-1.28M80.29,81.14c0,2.47-.02,4.87,0,7.26,0,.79.43,1.42,1.27,1.44,2.49.05,4.99.04,7.49,0,.74-.01,1.22-.52,1.23-1.25.03-2.48.01-4.96.01-7.48h-2.23v6.88h-5.53v-6.86h-2.26ZM118.69,89.94h2.16v-8.81h-2.16v8.81Z"/>
</svg>